<?xml version="1.0" encoding="UTF-8" standalone="no"?>
<!-- Created with Inkscape (http://www.inkscape.org/) -->

<svg
   width="210mm"
   height="297mm"
   viewBox="0 0 210 297"
   version="1.1"
   id="svg516"
   inkscape:version="1.2.2 (732a01da63, 2022-12-09, custom)"
   sodipodi:docname="isba_poster_overview_schema.svg"
   inkscape:export-filename="../f284f7f7/isba_poster_package_schema.png"
   inkscape:export-xdpi="600"
   inkscape:export-ydpi="600"
   xmlns:inkscape="http://www.inkscape.org/namespaces/inkscape"
   xmlns:sodipodi="http://sodipodi.sourceforge.net/DTD/sodipodi-0.dtd"
   xmlns="http://www.w3.org/2000/svg"
   xmlns:svg="http://www.w3.org/2000/svg">
  <sodipodi:namedview
     id="namedview518"
     pagecolor="#02202c"
     bordercolor="#eeeeee"
     borderopacity="1"
     inkscape:showpageshadow="0"
     inkscape:pageopacity="0"
     inkscape:pagecheckerboard="0"
     inkscape:deskcolor="#464646"
     inkscape:document-units="mm"
     showgrid="false"
     inkscape:zoom="2.1971895"
     inkscape:cx="621.70332"
     inkscape:cy="316.31318"
     inkscape:window-width="1489"
     inkscape:window-height="779"
     inkscape:window-x="1994"
     inkscape:window-y="98"
     inkscape:window-maximized="0"
     inkscape:current-layer="layer1" />
  <defs
     id="defs513">
    <rect
       x="220.42146"
       y="328.60086"
       width="283.58385"
       height="29.829959"
       id="rect473" />
    <rect
       x="45.018448"
       y="69.021225"
       width="338.89316"
       height="24.575319"
       id="rect1093" />
    <rect
       x="45.018448"
       y="69.021225"
       width="503.22812"
       height="28.669018"
       id="rect8434" />
    <rect
       x="45.018448"
       y="69.021225"
       width="503.22812"
       height="28.669018"
       id="rect8450" />
    <rect
       x="45.018448"
       y="69.021225"
       width="503.22812"
       height="28.669018"
       id="rect8458" />
    <rect
       x="45.018448"
       y="69.021225"
       width="503.22812"
       height="28.669018"
       id="rect8466" />
    <rect
       x="45.018448"
       y="69.021225"
       width="503.22812"
       height="28.669018"
       id="rect12535" />
    <rect
       x="45.018448"
       y="69.021225"
       width="503.22812"
       height="28.669018"
       id="rect1913" />
    <rect
       x="45.018448"
       y="69.021225"
       width="114.53818"
       height="16.482262"
       id="rect2010" />
    <rect
       x="45.018448"
       y="69.021225"
       width="503.22812"
       height="28.669018"
       id="rect2054" />
    <rect
       x="45.018448"
       y="69.021225"
       width="503.22812"
       height="28.669018"
       id="rect2094" />
    <rect
       x="45.018448"
       y="69.021225"
       width="73.824265"
       height="133.96901"
       id="rect4548" />
    <rect
       x="45.018448"
       y="69.021225"
       width="130.6765"
       height="117.6236"
       id="rect5454" />
    <rect
       x="45.018448"
       y="69.021225"
       width="256.31253"
       height="35.357952"
       id="rect6884" />
    <rect
       x="45.018448"
       y="69.021225"
       width="434.67093"
       height="51.91468"
       id="rect7962" />
    <rect
       x="45.018448"
       y="69.021225"
       width="133.64043"
       height="213.9296"
       id="rect8967" />
    <rect
       x="45.018448"
       y="69.021225"
       width="133.64043"
       height="213.9296"
       id="rect16315" />
    <rect
       x="45.018448"
       y="69.021225"
       width="503.22812"
       height="28.669018"
       id="rect8519" />
    <rect
       x="45.018448"
       y="69.021225"
       width="503.22812"
       height="28.669018"
       id="rect9251" />
    <rect
       x="45.018448"
       y="69.021225"
       width="503.22812"
       height="28.669018"
       id="rect9257" />
    <rect
       x="45.018448"
       y="69.021225"
       width="503.22812"
       height="28.669018"
       id="rect9989" />
    <rect
       x="45.018448"
       y="69.021225"
       width="503.22812"
       height="28.669018"
       id="rect9995" />
    <rect
       x="45.018448"
       y="69.021225"
       width="503.22812"
       height="28.669018"
       id="rect10001" />
    <rect
       x="45.018448"
       y="69.021225"
       width="503.22812"
       height="28.669018"
       id="rect10083" />
    <rect
       x="45.018448"
       y="69.021225"
       width="503.22812"
       height="28.669018"
       id="rect10145" />
    <rect
       x="45.018448"
       y="69.021225"
       width="503.22812"
       height="28.669018"
       id="rect10161" />
    <rect
       x="45.018448"
       y="69.021225"
       width="503.22812"
       height="28.669018"
       id="rect10169" />
    <rect
       x="45.018448"
       y="69.021225"
       width="338.89316"
       height="24.575319"
       id="rect3708" />
    <rect
       x="45.018448"
       y="69.021225"
       width="503.22812"
       height="28.669018"
       id="rect469" />
    <rect
       x="220.42146"
       y="328.60086"
       width="485.26712"
       height="16.933731"
       id="rect481" />
    <rect
       x="220.42146"
       y="328.60086"
       width="485.26712"
       height="16.933731"
       id="rect487" />
    <rect
       x="220.42146"
       y="328.60086"
       width="173.44328"
       height="31.147562"
       id="rect627" />
  </defs>
  <g
     inkscape:label="Layer 1"
     inkscape:groupmode="layer"
     id="layer1">
    <path
       style="fill:none;stroke:#ffffff;stroke-width:0.381;stroke-linecap:butt;stroke-linejoin:miter;stroke-opacity:1;stroke-dasharray:none"
       d="M 166.07475,126.22943 V 84.899795 l -33.23493,0.0028 -9.55008,-10.35459 52.75387,-0.0343 v 10.388886 l -1.73123,-0.0028 v 41.329639 z"
       id="path1679"
       inkscape:export-filename="../7690c242/isba_poster_package_overview.png"
       inkscape:export-xdpi="600"
       inkscape:export-ydpi="600" />
    <path
       style="fill:none;stroke:#ffffff;stroke-width:0.381;stroke-linecap:butt;stroke-linejoin:miter;stroke-opacity:1;stroke-dasharray:none"
       d="m 56.334127,84.899795 h -8.237624 v 41.329625 h -1.729529 v 4.79071 H 176.0419 v -4.79071 H 56.334127 Z"
       id="path1677" />
    <rect
       style="fill:none;stroke:#ffffff;stroke-width:0.221;stroke-linejoin:round;stroke-dasharray:none;stroke-opacity:1"
       id="rect1743"
       width="8.2376242"
       height="41.329632"
       x="71.692131"
       y="84.899796"
       ry="0" />
    <rect
       style="fill:none;stroke:#ffffff;stroke-width:0.221;stroke-linejoin:round;stroke-dasharray:none;stroke-opacity:1"
       id="rect1745"
       width="8.2376242"
       height="41.329632"
       x="95.287811"
       y="84.899796"
       ry="0" />
    <rect
       style="fill:none;stroke:#ffffff;stroke-width:0.221;stroke-linejoin:round;stroke-dasharray:none;stroke-opacity:1"
       id="rect1747"
       width="8.2376242"
       height="41.329632"
       x="118.88342"
       y="84.899796"
       ry="0" />
    <rect
       style="fill:none;stroke:#ffffff;stroke-width:0.221;stroke-linejoin:round;stroke-dasharray:none;stroke-opacity:1"
       id="rect1749"
       width="8.2376242"
       height="41.327991"
       x="142.4791"
       y="84.901436"
       ry="0" />
    <path
       id="path362"
       style="fill:none;fill-opacity:1;stroke:#ffffff;stroke-width:0.681;stroke-linecap:round;stroke-linejoin:bevel;stroke-dasharray:none;stroke-opacity:1"
       inkscape:transform-center-x="3.8469362e-06"
       inkscape:transform-center-y="-3.366933"
       d="M 111.18042,54.346327 177.9929,74.548094 44.367201,74.547971 Z"
       sodipodi:nodetypes="cccc" />
    <rect
       style="fill:none;stroke:#ffffff;stroke-width:0.381;stroke-linejoin:round;stroke-dasharray:none;stroke-opacity:1"
       id="rect2537"
       width="134.675"
       height="7.5655241"
       x="43.867199"
       y="131.02011"
       ry="0" />
    <text
       xml:space="preserve"
       transform="matrix(0.26458333,0,0,0.26458333,40.610487,57.199008)"
       id="text8517"
       style="font-style:normal;font-variant:normal;font-weight:normal;font-stretch:normal;font-size:16px;line-height:1.25;font-family:'Courier New';-inkscape-font-specification:'Courier New';letter-spacing:0px;word-spacing:0px;white-space:pre;shape-inside:url(#rect8519);display:inline;fill:#fff8f8;fill-opacity:1;stroke:none;stroke-opacity:1"><tspan
         x="45.017578"
         y="83.257926"
         id="tspan10711"><tspan
           style="font-weight:bold;-inkscape-font-specification:'Courier New Bold'"
           id="tspan10709">Public archives</tspan></tspan></text>
    <g
       id="g9135"
       transform="matrix(0.12104093,0,0,0.12323146,30.828621,69.766173)"
       style="stroke:#ffcc00;stroke-width:3.27516;stroke-dasharray:none;stroke-opacity:1;fill:none"
       inkscape:export-filename="../4bd68ea6/mini1.png"
       inkscape:export-xdpi="600"
       inkscape:export-ydpi="600">
      <ellipse
         style="stroke:#ffcc00;stroke-width:3.27516;stroke-linejoin:round;stroke-dasharray:none;stroke-opacity:1;fill:none"
         id="path9003"
         cx="155.91458"
         cy="57.658981"
         rx="10.402641"
         ry="5.1675391" />
      <path
         id="ellipse9007"
         style="stroke:#ffcc00;stroke-width:3.27516;stroke-linejoin:round;stroke-dasharray:none;stroke-opacity:1;fill:none"
         d="m 166.31722,72.475662 c 0,2.853953 -4.65742,5.167539 -10.40264,5.167539 -5.74522,0 -10.40264,-2.313586 -10.40264,-5.167539"
         sodipodi:nodetypes="csc" />
      <path
         style="stroke:#ffcc00;stroke-width:3.27516;stroke-linecap:butt;stroke-linejoin:miter;stroke-dasharray:none;stroke-opacity:1;fill:none"
         d="m 145.51194,57.658981 v 14.81668"
         id="path9126" />
      <path
         style="stroke:#ffcc00;stroke-width:3.27516;stroke-linecap:butt;stroke-linejoin:miter;stroke-dasharray:none;stroke-opacity:1;fill:none"
         d="m 166.31722,57.658981 v 14.81668"
         id="path9128" />
    </g>
    <text
       xml:space="preserve"
       transform="matrix(0,-0.26458333,0.26458333,0,31.45228,127.72642)"
       id="text9249"
       style="font-style:normal;font-variant:normal;font-weight:normal;font-stretch:normal;font-size:16px;line-height:1.25;font-family:'Courier New';-inkscape-font-specification:'Courier New';letter-spacing:0px;word-spacing:0px;white-space:pre;shape-inside:url(#rect9251);display:inline;fill:#fff8f8;fill-opacity:1;stroke:none;stroke-opacity:1"><tspan
         x="45.017578"
         y="83.257926"
         id="tspan10715"><tspan
           style="font-weight:bold;-inkscape-font-specification:'Courier New Bold'"
           id="tspan10713">Software</tspan></tspan></text>
    <text
       xml:space="preserve"
       transform="matrix(0,-0.26458333,0.26458333,0,55.090259,126.42831)"
       id="text9255"
       style="font-style:normal;font-variant:normal;font-weight:normal;font-stretch:normal;font-size:16px;line-height:1.25;font-family:'Courier New';-inkscape-font-specification:'Courier New';letter-spacing:0px;word-spacing:0px;white-space:pre;shape-inside:url(#rect9257);display:inline;fill:#fff8f8;fill-opacity:1;stroke:none;stroke-opacity:1"><tspan
         x="45.017578"
         y="83.257926"
         id="tspan10717">trident</tspan></text>
    <text
       xml:space="preserve"
       transform="matrix(0,-0.26458333,0.26458333,0,78.270433,125.04854)"
       id="text9987"
       style="font-style:normal;font-variant:normal;font-weight:normal;font-stretch:normal;font-size:16px;line-height:1.25;font-family:'Courier New';-inkscape-font-specification:'Courier New';letter-spacing:0px;word-spacing:0px;white-space:pre;shape-inside:url(#rect9989);display:inline;fill:#fff8f8;fill-opacity:1;stroke:none;stroke-opacity:1"><tspan
         x="45.017578"
         y="83.257926"
         id="tspan10719">xerxes</tspan></text>
    <text
       xml:space="preserve"
       transform="matrix(0,-0.26458333,0.26458333,0,101.91459,125.14053)"
       id="text9993"
       style="font-style:normal;font-variant:normal;font-weight:normal;font-stretch:normal;font-size:16px;line-height:1.25;font-family:'Courier New';-inkscape-font-specification:'Courier New';letter-spacing:0px;word-spacing:0px;white-space:pre;shape-inside:url(#rect9995);display:inline;fill:#fff8f8;fill-opacity:1;stroke:none;stroke-opacity:1"><tspan
         x="45.017578"
         y="83.257926"
         id="tspan10721">qjanno</tspan></text>
    <text
       xml:space="preserve"
       transform="matrix(0,-0.26458333,0.26458333,0,125.5092,127.27476)"
       id="text9999"
       style="font-style:normal;font-variant:normal;font-weight:normal;font-stretch:normal;font-size:16px;line-height:1.25;font-family:'Courier New';-inkscape-font-specification:'Courier New';letter-spacing:0px;word-spacing:0px;white-space:pre;shape-inside:url(#rect10001);display:inline;fill:#fff8f8;fill-opacity:1;stroke:none;stroke-opacity:1"><tspan
         x="45.017578"
         y="83.257926"
         id="tspan10723">janno(R)</tspan></text>
    <text
       xml:space="preserve"
       transform="matrix(0,-0.26458333,0.26458333,0,149.46862,127.60446)"
       id="text10081"
       style="font-style:normal;font-variant:normal;font-weight:normal;font-stretch:normal;font-size:16px;line-height:1.25;font-family:'Courier New';-inkscape-font-specification:'Courier New';letter-spacing:0px;word-spacing:0px;white-space:pre;shape-inside:url(#rect10083);display:inline;fill:#fff8f8;fill-opacity:1;stroke:none;stroke-opacity:1"><tspan
         x="45.017578"
         y="83.257926"
         id="tspan10727"><tspan
           style="font-weight:bold;-inkscape-font-specification:'Courier New Bold';fill:#ffffff"
           id="tspan10725">Minotaur</tspan></tspan></text>
    <circle
       style="fill:none;fill-opacity:1;stroke:#ffffff;stroke-width:0.381;stroke-linecap:round;stroke-linejoin:bevel;stroke-dasharray:none;stroke-opacity:1"
       id="path10139"
       cx="111.18021"
       cy="64.476494"
       r="5.9134765" />
    <text
       xml:space="preserve"
       transform="matrix(0.26458333,0,0,0.26458333,95.288153,43.650862)"
       id="text10143"
       style="font-style:normal;font-variant:normal;font-weight:normal;font-stretch:normal;font-size:16px;line-height:1.25;font-family:'Courier New';-inkscape-font-specification:'Courier New';letter-spacing:0px;word-spacing:0px;white-space:pre;shape-inside:url(#rect10145);display:inline;fill:#fff8f8;fill-opacity:1;stroke:none;stroke-opacity:1"><tspan
         x="45.017578"
         y="83.257926"
         id="tspan10729">PCA</tspan></text>
    <circle
       style="fill:none;fill-opacity:1;stroke:#ffffff;stroke-width:0.381;stroke-linecap:round;stroke-linejoin:bevel;stroke-dasharray:none;stroke-opacity:1"
       id="circle10155"
       cx="96.892715"
       cy="66.593163"
       r="5.9134765" />
    <text
       xml:space="preserve"
       transform="matrix(0.26458333,0,0,0.26458333,81.000662,45.773732)"
       id="text10159"
       style="font-style:normal;font-variant:normal;font-weight:normal;font-stretch:normal;font-size:16px;line-height:1.25;font-family:'Courier New';-inkscape-font-specification:'Courier New';letter-spacing:0px;word-spacing:0px;white-space:pre;shape-inside:url(#rect10161);display:inline;fill:#fff8f8;fill-opacity:1;stroke:none;stroke-opacity:1"><tspan
         x="45.017578"
         y="83.257926"
         id="tspan10731">PMA</tspan></text>
    <circle
       style="fill:none;fill-opacity:1;stroke:#ffffff;stroke-width:0.381;stroke-linecap:round;stroke-linejoin:bevel;stroke-dasharray:none;stroke-opacity:1"
       id="circle10163"
       cx="125.4677"
       cy="66.593163"
       r="5.9134765" />
    <text
       xml:space="preserve"
       transform="matrix(0.26458333,0,0,0.26458333,109.57564,45.773732)"
       id="text10167"
       style="font-style:normal;font-variant:normal;font-weight:normal;font-stretch:normal;font-size:16px;line-height:1.25;font-family:'Courier New';-inkscape-font-specification:'Courier New';letter-spacing:0px;word-spacing:0px;white-space:pre;shape-inside:url(#rect10169);display:inline;fill:#fff8f8;fill-opacity:1;stroke:none;stroke-opacity:1"><tspan
         x="45.017578"
         y="83.257926"
         id="tspan10733">PAA</tspan></text>
    <text
       xml:space="preserve"
       transform="matrix(0.26458333,0,0,0.26458333,38.982214,113.67235)"
       id="text3706"
       style="font-style:normal;font-variant:normal;font-weight:normal;font-stretch:normal;font-size:16px;line-height:1.25;font-family:'Courier New';-inkscape-font-specification:'Courier New';letter-spacing:0px;word-spacing:0px;white-space:pre;shape-inside:url(#rect3708);display:inline;fill:#fff8f8;fill-opacity:1;stroke:none;stroke-opacity:1"><tspan
         x="45.017578"
         y="83.257926"
         id="tspan10737"><tspan
           style="font-weight:bold;-inkscape-font-specification:'Courier New Bold'"
           id="tspan10735">The Poseidon Package</tspan></tspan></text>
    <g
       id="g10229"
       transform="matrix(0.83462377,0,0,0.83462377,-8.2002553,33.011683)"
       style="fill:none;stroke:#08b8fa;stroke-width:0.479258;stroke-dasharray:none;stroke-opacity:1"
       inkscape:export-filename="../9fd9fd1d/mini3.png"
       inkscape:export-xdpi="600"
       inkscape:export-ydpi="600">
      <rect
         style="fill:none;stroke:#08b8fa;stroke-width:0.479258;stroke-linejoin:round;stroke-dasharray:none;stroke-opacity:1"
         id="rect7445"
         width="3.5648186"
         height="3.5648088"
         x="64.947464"
         y="119.71169"
         ry="0" />
      <path
         style="fill:none;stroke:#08b8fa;stroke-width:0.479258;stroke-linecap:butt;stroke-linejoin:miter;stroke-dasharray:none;stroke-opacity:1"
         d="m 66.729872,119.71169 v 1.30358"
         id="path10225" />
    </g>
    <path
       id="path58241"
       style="fill:#00ff00;fill-opacity:1;stroke:#000000;stroke-width:0.0998573;stroke-linecap:round;stroke-linejoin:round;stroke-dasharray:none;stroke-dashoffset:162;stroke-opacity:1"
       d="m 52.226224,116.78523 c -0.123586,0 -0.244023,0.0129 -0.360847,0.0366 v 0.40644 c -0.127654,0.069 -0.13071,0.0705 -0.309297,0.18039 l -0.324891,-0.32469 c -0.10104,0.067 -0.193505,0.1456 -0.279207,0.23118 -0.08525,0.0854 -0.164193,0.17799 -0.230942,0.2791 l 0.324441,0.32467 c -0.09767,0.16254 -0.09878,0.16364 -0.180428,0.30961 h -0.40608 c -0.0239,0.11653 -0.03699,0.23731 -0.03699,0.36084 0,0.12351 0.01307,0.24425 0.03699,0.36085 h 0.40608 c 0.08466,0.16844 0.08878,0.16642 0.180428,0.30965 l -0.324441,0.32467 c 0.06676,0.1011 0.145694,0.19361 0.230942,0.27907 0.08571,0.0854 0.178163,0.1642 0.279207,0.23118 l 0.324891,-0.32467 c 0.186438,0.10988 0.18736,0.1108 0.309297,0.18039 v 0.40644 c 0.116831,0.0238 0.237257,0.0366 0.360847,0.0366 0.123586,0 0.244474,-0.013 0.360849,-0.0366 v -0.40644 c 0.170634,-0.0879 0.17104,-0.0925 0.309746,-0.18039 l 0.324893,0.32467 c 0.10104,-0.067 0.193503,-0.14561 0.278752,-0.23118 0.08571,-0.0854 0.164193,-0.178 0.231396,-0.27907 l -0.324896,-0.32467 c 0.104899,-0.18732 0.103836,-0.18878 0.180428,-0.30965 h 0.406535 c 0.0239,-0.11651 0.03653,-0.23729 0.03653,-0.36085 0,-0.12352 -0.0127,-0.24424 -0.03653,-0.36084 h -0.406535 c -0.08425,-0.17652 -0.08004,-0.17909 -0.180428,-0.30961 l 0.324896,-0.32467 c -0.06721,-0.10121 -0.145694,-0.19363 -0.231396,-0.2791 -0.08525,-0.0854 -0.177722,-0.16419 -0.278752,-0.23118 l -0.324893,0.32467 c -0.155395,-0.0943 -0.156628,-0.0962 -0.309746,-0.1804 v -0.40641 c -0.116371,-0.0238 -0.237259,-0.0366 -0.360849,-0.0366 z m 0,1.02944 c 0.49797,0 0.774789,0.27682 0.774789,0.7748 0,0.49797 -0.276819,0.77478 -0.774789,0.77478 -0.497968,0 -0.774791,-0.27681 -0.774791,-0.77478 0,-0.49798 0.276823,-0.7748 0.774791,-0.7748 z"
       sodipodi:nodetypes="scccccccccscccccccccscccccccccscccccccccssssss"
       inkscape:export-filename="../76da4771/mini2.png"
       inkscape:export-xdpi="600"
       inkscape:export-ydpi="600" />
    <text
       xml:space="preserve"
       transform="matrix(0.26458333,0,0,0.26458333,50.344255,43.911477)"
       id="text471"
       style="font-style:normal;font-weight:normal;font-size:10.6667px;line-height:1.25;font-family:sans-serif;letter-spacing:0px;word-spacing:0px;white-space:pre;shape-inside:url(#rect473);shape-padding:1.36696;display:inline;fill:#000000;fill-opacity:1;stroke:none"><tspan
         x="221.78906"
         y="339.45974"
         id="tspan10741"><tspan
           style="font-family:'Courier New';-inkscape-font-specification:'Courier New';fill:#ffffff"
           id="tspan10739">Open data format for genotype data and
</tspan></tspan><tspan
         x="221.78906"
         y="352.84658"
         id="tspan10745"><tspan
           style="font-family:'Courier New';-inkscape-font-specification:'Courier New';fill:#ffffff"
           id="tspan10743">(spatiotemporal) context information</tspan></tspan></text>
    <text
       xml:space="preserve"
       transform="matrix(0.26458333,0,0,0.26458333,-9.279015,39.437083)"
       id="text479"
       style="font-style:normal;font-weight:normal;font-size:10.6667px;line-height:1.25;font-family:sans-serif;letter-spacing:0px;word-spacing:0px;white-space:pre;shape-inside:url(#rect481);shape-padding:1.36696;display:inline;fill:#000000;fill-opacity:1;stroke:none"><tspan
         x="221.78906"
         y="339.45974"
         id="tspan10749"><tspan
           style="font-family:'Courier New';-inkscape-font-specification:'Courier New';fill:#ffffff"
           id="tspan10747">Software to download, subset, merge, query, analyse and validate packages</tspan></tspan></text>
    <text
       xml:space="preserve"
       transform="matrix(0.26458333,0,0,0.26458333,-10.779726,-6.9012147)"
       id="text485"
       style="font-style:normal;font-weight:normal;font-size:10.6667px;line-height:1.25;font-family:sans-serif;letter-spacing:0px;word-spacing:0px;white-space:pre;shape-inside:url(#rect487);shape-padding:1.36696;display:inline;fill:#000000;fill-opacity:1;stroke:none"><tspan
         x="221.78906"
         y="339.45974"
         id="tspan10753"><tspan
           style="font-family:'Courier New';-inkscape-font-specification:'Courier New';fill:#ffffff"
           id="tspan10751">Community-maintained data storage &amp; Web-API</tspan></tspan></text>
    <text
       xml:space="preserve"
       transform="matrix(0.26458333,0,0,0.26458333,70.786848,-10.53244)"
       id="text625"
       style="font-style:normal;font-weight:normal;font-size:10.6667px;line-height:1.25;font-family:sans-serif;letter-spacing:0px;word-spacing:0px;white-space:pre;shape-inside:url(#rect627);shape-padding:1.36696;display:inline;fill:#000000;fill-opacity:1;stroke:none"
       x="132.94313"
       y="0"><tspan
         x="226.07044"
         y="339.45974"
         id="tspan10757"><tspan
           style="font-family:'Courier New';-inkscape-font-specification:'Courier New';text-align:end;text-anchor:end;fill:#ffffff"
           id="tspan10755">Standardized genotype data
</tspan></tspan><tspan
         x="270.87787"
         y="352.84658"
         id="tspan10761"><tspan
           style="font-family:'Courier New';-inkscape-font-specification:'Courier New';text-align:end;text-anchor:end;fill:#ffffff"
           id="tspan10759">generation pipeline</tspan></tspan></text>
    <path
       style="fill:none;stroke:#ffffff;stroke-width:0.381;stroke-linecap:butt;stroke-linejoin:miter;stroke-opacity:1;stroke-dasharray:none"
       d="m 132.83982,84.902595 -86.523032,3.7e-5 V 74.513746 l 76.972952,0.03426 z"
       id="path1681" />
    <g
       id="g4993"
       transform="matrix(0.11463242,0,0,0.11463242,111.84973,139.53524)"
       style="fill:#ff0000"
       inkscape:export-filename="../6924c80d/mini4.png"
       inkscape:export-xdpi="600"
       inkscape:export-ydpi="600">
	<g
   id="g4991"
   style="fill:#ff0000"
   transform="translate(-23.382816,47.520226)">
		<g
   id="g4989"
   style="fill:#ff0000"
   transform="translate(23.882705,68.958178)">
			
			
			
			
			<path
   d="m 502.08532,-540.52004 -0.83577,0.37152 0.27641,0.87185 c 0.79202,2.4984 1.706,5.41124 2.10876,6.69628 -0.14108,0.1748 -0.27564,0.35775 -0.40302,0.54971 -0.34804,-0.24199 -0.74727,-1.0172 -1.17814,-1.10121 -0.20819,-0.51801 -0.5771,-1.23573 -1.2071,-1.9558 -1.03621,-1.18421 -6.01215,-4.10128 -9.48962,-4.10128 l 2.1076,4.15257 c 3.40313,0 5.19869,1.61482 5.82079,2.70869 -1.1026,0.48207 0.83453,1.58278 0.83453,2.86104 v 10.28229 c 0,1.27826 -1.93713,2.37898 -0.83453,2.86105 -0.6221,1.09387 -2.41766,2.70868 -5.82079,2.70868 l -2.1076,4.15258 c 3.47747,0 8.45341,-2.91708 9.48962,-4.10129 0.63,-0.72007 0.99891,-1.43786 1.2071,-1.95586 0.43087,-0.0841 0.83004,-0.85923 1.1782,-1.10121 0.12726,0.19196 0.26188,0.37491 0.40296,0.54971 -0.40276,1.28498 -1.31661,4.19775 -2.10876,6.69628 l -0.27641,0.87185 0.83577,0.37151 c 1.07939,0.47979 2.6644,0.86004 4.08556,-0.0528 1.80945,-1.16236 2.36665,-3.81202 2.53826,-5.36656 0.26435,0.0208 0.53444,0.0324 0.81158,0.0324 2.46155,0 3.97174,-0.56725 5.88365,-1.28556 0.63698,-0.23931 1.29568,-0.48677 2.06571,-0.74304 1.9995,-0.66541 4.06136,-1.46995 5.59595,-2.83971 1.66738,-1.48828 2.47792,-3.43098 2.47792,-5.93916 0,-2.50819 -0.81054,-4.45088 -2.47792,-5.93916 -1.53459,-1.36983 -3.59638,-2.17431 -5.59595,-2.83972 -0.7701,-0.25633 -1.4288,-0.50373 -2.06571,-0.74303 -1.91197,-0.71825 -3.4221,-1.28557 -5.88365,-1.28557 -0.27714,0 -0.54723,0.0117 -0.81158,0.0324 -0.17161,-1.55448 -0.72881,-4.20414 -2.53826,-5.36656 -1.42109,-0.91287 -3.0061,-0.53255 -4.08556,-0.0528 z"
   id="path4987"
   style="fill:#ff0000;stroke-width:0.065224"
   sodipodi:nodetypes="ccccccccccsscccccccscsccssssscccsccc" />

		</g>

	</g>

</g>
  </g>
</svg>
