<?xml version="1.0" encoding="UTF-8" standalone="no"?>
<!-- Created with Inkscape (http://www.inkscape.org/) -->

<svg
   width="269.06918mm"
   height="104.83702mm"
   viewBox="0 0 269.06917 104.83702"
   version="1.1"
   id="svg21"
   inkscape:version="1.2.2 (b0a8486541, 2022-12-01)"
   sodipodi:docname="poseidon_overview.svg"
   xml:space="preserve"
   xmlns:inkscape="http://www.inkscape.org/namespaces/inkscape"
   xmlns:sodipodi="http://sodipodi.sourceforge.net/DTD/sodipodi-0.dtd"
   xmlns="http://www.w3.org/2000/svg"
   xmlns:svg="http://www.w3.org/2000/svg"><sodipodi:namedview
     id="namedview23"
     pagecolor="#505050"
     bordercolor="#eeeeee"
     borderopacity="1"
     inkscape:showpageshadow="0"
     inkscape:pageopacity="0"
     inkscape:pagecheckerboard="0"
     inkscape:deskcolor="#505050"
     inkscape:document-units="mm"
     showgrid="false"
     inkscape:zoom="1.4142136"
     inkscape:cx="702.86412"
     inkscape:cy="195.51502"
     inkscape:window-width="1920"
     inkscape:window-height="1056"
     inkscape:window-x="1920"
     inkscape:window-y="0"
     inkscape:window-maximized="1"
     inkscape:current-layer="layer1"
     showguides="false" /><defs
     id="defs18"><marker
       style="overflow:visible"
       id="marker11122"
       refX="0"
       refY="0"
       orient="auto"
       inkscape:stockid="Dot"
       markerWidth="5.66666669"
       markerHeight="5.66666669"
       viewBox="0 0 5.66666669 5.66666669"
       inkscape:isstock="true"
       inkscape:collect="always"
       preserveAspectRatio="xMidYMid"><path
         transform="scale(0.5)"
         style="fill:context-stroke;fill-rule:evenodd;stroke:context-stroke;stroke-width:1pt"
         d="M 5,0 C 5,2.76 2.76,5 0,5 -2.76,5 -5,2.76 -5,0 c 0,-2.76 2.3,-5 5,-5 2.76,0 5,2.24 5,5 z"
         id="path11120"
         sodipodi:nodetypes="sssss" /></marker><marker
       style="overflow:visible"
       id="Dot"
       refX="0"
       refY="0"
       orient="auto"
       inkscape:stockid="Dot"
       markerWidth="5.6666665"
       markerHeight="5.6666665"
       viewBox="0 0 5.6666667 5.6666667"
       inkscape:isstock="true"
       inkscape:collect="always"
       preserveAspectRatio="xMidYMid"><path
         transform="scale(0.5)"
         style="fill:context-stroke;fill-rule:evenodd;stroke:context-stroke;stroke-width:1pt"
         d="M 5,0 C 5,2.76 2.76,5 0,5 -2.76,5 -5,2.76 -5,0 c 0,-2.76 2.3,-5 5,-5 2.76,0 5,2.24 5,5 z"
         id="Dot1"
         sodipodi:nodetypes="sssss" /></marker><rect
       x="45.018448"
       y="69.021225"
       width="338.89316"
       height="24.575319"
       id="rect3708" /><rect
       x="45.018448"
       y="69.021225"
       width="208.26877"
       height="303.53708"
       id="rect3718" /><rect
       x="45.018448"
       y="69.021225"
       width="208.26877"
       height="303.53708"
       id="rect9918" /><rect
       x="45.018448"
       y="69.021225"
       width="503.22812"
       height="28.669018"
       id="rect8519" /><rect
       x="45.018448"
       y="69.021225"
       width="503.22812"
       height="28.669018"
       id="rect9251" /><rect
       x="45.018448"
       y="69.021225"
       width="503.22812"
       height="28.669018"
       id="rect9257" /><rect
       x="45.018448"
       y="69.021225"
       width="503.22812"
       height="28.669018"
       id="rect9989" /><rect
       x="45.018448"
       y="69.021225"
       width="503.22812"
       height="28.669018"
       id="rect9995" /><rect
       x="45.018448"
       y="69.021225"
       width="503.22812"
       height="28.669018"
       id="rect10001" /><rect
       x="45.018448"
       y="69.021225"
       width="503.22812"
       height="28.669018"
       id="rect10083" /><rect
       x="45.018448"
       y="69.021225"
       width="503.22812"
       height="28.669018"
       id="rect10145" /><rect
       x="45.018448"
       y="69.021225"
       width="503.22812"
       height="28.669018"
       id="rect10153" /><rect
       x="45.018448"
       y="69.021225"
       width="503.22812"
       height="28.669018"
       id="rect10161" /><rect
       x="45.018448"
       y="69.021225"
       width="503.22812"
       height="28.669018"
       id="rect10169" /><style
       id="style306">.cls-1{fill:url(#linear-gradient);}</style><linearGradient
       id="linear-gradient"
       x1="99.209999"
       y1="197.00999"
       x2="99.209999"
       y2="1.42"
       gradientUnits="userSpaceOnUse"
       gradientTransform="matrix(0.26458333,0,0,0.26458333,77.349427,21.131245)"><stop
         offset="0"
         stop-color="#4866ee"
         id="stop308" /><stop
         offset="0.55"
         stop-color="#2593f5"
         id="stop310" /><stop
         offset="1"
         stop-color="#06bcfb"
         id="stop312" /></linearGradient><rect
       x="45.018448"
       y="69.021225"
       width="338.89316"
       height="24.575319"
       id="rect1093" /><rect
       x="45.018448"
       y="69.021225"
       width="503.22812"
       height="28.669018"
       id="rect8434" /><rect
       x="45.018448"
       y="69.021225"
       width="503.22812"
       height="28.669018"
       id="rect8442" /><rect
       x="45.018448"
       y="69.021225"
       width="503.22812"
       height="28.669018"
       id="rect8450" /><rect
       x="45.018448"
       y="69.021225"
       width="503.22812"
       height="28.669018"
       id="rect8458" /><rect
       x="45.018448"
       y="69.021225"
       width="503.22812"
       height="28.669018"
       id="rect8466" /><rect
       x="45.018448"
       y="69.021225"
       width="503.22812"
       height="28.669018"
       id="rect12535" /></defs><g
     inkscape:label="Layer 1"
     inkscape:groupmode="layer"
     id="layer1"
     transform="translate(-30.109962,-22.928253)"><text
       xml:space="preserve"
       style="font-style:normal;font-weight:normal;font-size:10.5833px;line-height:1.25;font-family:sans-serif;letter-spacing:0px;word-spacing:0px;fill:#000000;fill-opacity:1;stroke:none;stroke-width:0.264583"
       x="35.327183"
       y="64.968819"
       id="text488"><tspan
         sodipodi:role="line"
         id="tspan486"
         style="stroke-width:0.264583"
         x="35.327183"
         y="64.968819" /></text><rect
       style="fill:#ffffff;fill-opacity:1;stroke:none;stroke-width:0.923306;stroke-linecap:round;stroke-linejoin:bevel"
       id="rect364"
       width="269.06918"
       height="104.83702"
       x="30.212185"
       y="22.928253" /><rect
       style="fill:#ffffff;stroke:#000000;stroke-width:0.381;stroke-linejoin:round;stroke-dasharray:none;stroke-opacity:1"
       id="rect5898"
       width="9.0850019"
       height="52.916687"
       x="38.506748"
       y="60.425442"
       ry="0" /><rect
       style="fill:#ffffff;stroke:#000000;stroke-width:0.381;stroke-linejoin:round;stroke-dasharray:none;stroke-opacity:1"
       id="rect1743"
       width="9.0850019"
       height="52.916687"
       x="62.092949"
       y="60.425442"
       ry="0" /><rect
       style="fill:#ffffff;stroke:#000000;stroke-width:0.381;stroke-linejoin:round;stroke-dasharray:none;stroke-opacity:1"
       id="rect1745"
       width="9.0850019"
       height="52.916687"
       x="85.679199"
       y="60.425442"
       ry="0" /><rect
       style="fill:#ffffff;stroke:#000000;stroke-width:0.381;stroke-linejoin:round;stroke-dasharray:none;stroke-opacity:1"
       id="rect1747"
       width="9.0850019"
       height="52.916687"
       x="109.26537"
       y="60.425442"
       ry="0" /><rect
       style="fill:#ffffff;stroke:#000000;stroke-width:0.381;stroke-linejoin:round;stroke-dasharray:none;stroke-opacity:1"
       id="rect1749"
       width="9.0850019"
       height="52.916687"
       x="132.85162"
       y="60.425442"
       ry="0" /><rect
       style="fill:#ffffff;stroke:#000000;stroke-width:0.381;stroke-linejoin:round;stroke-dasharray:none;stroke-opacity:1"
       id="rect1751"
       width="9.0850019"
       height="52.916687"
       x="156.43784"
       y="60.425442"
       ry="0" /><rect
       style="fill:#ffffff;stroke:#000000;stroke-width:0.381;stroke-linejoin:round;stroke-dasharray:none;stroke-opacity:1"
       id="rect3712"
       width="129.67491"
       height="13.931154"
       x="37.153107"
       y="46.371063"
       ry="0" /><path
       id="path362"
       style="fill:#ffffff;fill-opacity:1;stroke:#000000;stroke-width:0.681;stroke-linecap:round;stroke-linejoin:bevel;stroke-dasharray:none;stroke-opacity:1"
       inkscape:transform-center-x="3.8469362e-06"
       inkscape:transform-center-y="-3.366933"
       d="M 101.99078,26.177688 168.80326,46.379455 35.177559,46.379332 Z"
       sodipodi:nodetypes="cccc" /><rect
       style="fill:#ffffff;stroke:#000000;stroke-width:0.381;stroke-linejoin:round;stroke-dasharray:none;stroke-opacity:1"
       id="rect2537"
       width="134.675"
       height="7.5655241"
       x="34.677559"
       y="118.19731"
       ry="0" /><rect
       style="fill:#ffffff;stroke:#000000;stroke-width:0.381;stroke-linejoin:round;stroke-dasharray:none;stroke-opacity:1"
       id="rect2535"
       width="129.67493"
       height="4.7906985"
       x="37.177334"
       y="113.40662"
       ry="0" /><text
       xml:space="preserve"
       transform="matrix(0.26458333,0,0,0.26458333,30.362511,29.030369)"
       id="text8517"
       style="font-style:normal;font-weight:normal;font-size:16px;line-height:1.25;font-family:sans-serif;letter-spacing:0px;word-spacing:0px;white-space:pre;shape-inside:url(#rect8519);display:inline;fill:#000000;fill-opacity:1;stroke:none"><tspan
         x="45.017578"
         y="83.579487"
         id="tspan12686"><tspan
           style="font-weight:bold;font-family:C059;-inkscape-font-specification:'C059 Bold'"
           id="tspan12684">Public archives</tspan></tspan></text><g
       id="g9135"
       transform="matrix(0.12104093,0,0,0.12323146,21.109812,41.597534)"
       style="stroke-width:3.27516;stroke-dasharray:none"><ellipse
         style="fill:none;stroke:#000000;stroke-width:3.27516;stroke-linejoin:round;stroke-dasharray:none"
         id="path9003"
         cx="155.91458"
         cy="57.658981"
         rx="10.402641"
         ry="5.1675391" /><path
         id="ellipse9007"
         style="fill:none;stroke:#000000;stroke-width:3.27516;stroke-linejoin:round;stroke-dasharray:none"
         d="m 166.31722,72.475662 c 0,2.853953 -4.65742,5.167539 -10.40264,5.167539 -5.74522,0 -10.40264,-2.313586 -10.40264,-5.167539"
         sodipodi:nodetypes="csc" /><path
         style="fill:none;stroke:#000000;stroke-width:3.27516;stroke-linecap:butt;stroke-linejoin:miter;stroke-dasharray:none;stroke-opacity:1"
         d="m 145.51194,57.658981 v 14.81668"
         id="path9126" /><path
         style="fill:none;stroke:#000000;stroke-width:3.27516;stroke-linecap:butt;stroke-linejoin:miter;stroke-dasharray:none;stroke-opacity:1"
         d="m 166.31722,57.658981 v 14.81668"
         id="path9128" /></g><path
       id="path58241"
       style="fill:#000000;fill-opacity:1;stroke:#000000;stroke-width:0.0998573;stroke-linecap:round;stroke-linejoin:round;stroke-dasharray:none;stroke-dashoffset:162;stroke-opacity:1"
       d="m 43.049253,101.28067 c -0.123586,0 -0.244023,0.0129 -0.360847,0.0366 v 0.40644 c -0.127654,0.069 -0.13071,0.0705 -0.309297,0.18039 l -0.324891,-0.32469 c -0.10104,0.067 -0.193505,0.1456 -0.279207,0.23118 -0.08525,0.0854 -0.164193,0.17799 -0.230942,0.2791 l 0.324441,0.32467 c -0.09767,0.16254 -0.09878,0.16364 -0.180428,0.30961 h -0.40608 c -0.0239,0.11653 -0.03699,0.23731 -0.03699,0.36084 0,0.12351 0.01307,0.24425 0.03699,0.36085 h 0.40608 c 0.08466,0.16844 0.08878,0.16642 0.180428,0.30965 l -0.324441,0.32467 c 0.06676,0.1011 0.145694,0.19361 0.230942,0.27907 0.08571,0.0854 0.178163,0.1642 0.279207,0.23118 l 0.324891,-0.32467 c 0.186438,0.10988 0.18736,0.1108 0.309297,0.18039 v 0.40644 c 0.116831,0.0238 0.237257,0.0366 0.360847,0.0366 0.123586,0 0.244474,-0.013 0.360849,-0.0366 v -0.40644 c 0.170634,-0.0879 0.17104,-0.0925 0.309746,-0.18039 l 0.324893,0.32467 c 0.10104,-0.067 0.193503,-0.14561 0.278752,-0.23118 0.08571,-0.0854 0.164193,-0.178 0.231396,-0.27907 l -0.324896,-0.32467 c 0.104899,-0.18732 0.103836,-0.18878 0.180428,-0.30965 h 0.406535 c 0.0239,-0.11651 0.03653,-0.23729 0.03653,-0.36085 0,-0.12352 -0.0127,-0.24424 -0.03653,-0.36084 h -0.406535 c -0.08425,-0.17652 -0.08004,-0.17909 -0.180428,-0.30961 l 0.324896,-0.32467 c -0.06721,-0.10121 -0.145694,-0.19363 -0.231396,-0.2791 -0.08525,-0.0854 -0.177722,-0.16419 -0.278752,-0.23118 l -0.324893,0.32467 c -0.155395,-0.0943 -0.156628,-0.0962 -0.309746,-0.1804 v -0.40641 c -0.116371,-0.0238 -0.237259,-0.0366 -0.360849,-0.0366 z m 0,1.02944 c 0.49797,0 0.774789,0.27682 0.774789,0.7748 0,0.49797 -0.276819,0.77478 -0.774789,0.77478 -0.497968,0 -0.774791,-0.27681 -0.774791,-0.77478 0,-0.49798 0.276823,-0.7748 0.774791,-0.7748 z"
       sodipodi:nodetypes="scccccccccscccccccccscccccccccscccccccccssssss" /><text
       xml:space="preserve"
       transform="matrix(0,-0.26458333,0.26458333,0,22.463743,112.42181)"
       id="text9249"
       style="font-style:normal;font-weight:normal;font-size:16px;line-height:1.25;font-family:sans-serif;letter-spacing:0px;word-spacing:0px;white-space:pre;shape-inside:url(#rect9251);display:inline;fill:#000000;fill-opacity:1;stroke:none"><tspan
         x="45.017578"
         y="83.579487"
         id="tspan12690"><tspan
           style="font-weight:bold;font-family:C059;-inkscape-font-specification:'C059 Bold'"
           id="tspan12688">Software tools</tspan></tspan></text><text
       xml:space="preserve"
       transform="matrix(0,-0.26458333,0.26458333,0,46.049944,105.66327)"
       id="text9255"
       style="font-style:normal;font-weight:normal;font-size:16px;line-height:1.25;font-family:sans-serif;letter-spacing:0px;word-spacing:0px;white-space:pre;shape-inside:url(#rect9257);display:inline;fill:#000000;fill-opacity:1;stroke:none"><tspan
         x="45.017578"
         y="83.579487"
         id="tspan12694"><tspan
           style="font-family:C059;-inkscape-font-specification:C059"
           id="tspan12692">trident</tspan></tspan></text><text
       xml:space="preserve"
       transform="matrix(0,-0.26458333,0.26458333,0,69.094328,104.97324)"
       id="text9987"
       style="font-style:normal;font-weight:normal;font-size:16px;line-height:1.25;font-family:sans-serif;letter-spacing:0px;word-spacing:0px;white-space:pre;shape-inside:url(#rect9989);display:inline;fill:#000000;fill-opacity:1;stroke:none"><tspan
         x="45.017578"
         y="83.579487"
         id="tspan12698"><tspan
           style="font-family:C059;-inkscape-font-specification:C059"
           id="tspan12696">xerxes</tspan></tspan></text><text
       xml:space="preserve"
       transform="matrix(0,-0.26458333,0.26458333,0,92.779985,105.42408)"
       id="text9993"
       style="font-style:normal;font-weight:normal;font-size:16px;line-height:1.25;font-family:sans-serif;letter-spacing:0px;word-spacing:0px;white-space:pre;shape-inside:url(#rect9995);display:inline;fill:#000000;fill-opacity:1;stroke:none"><tspan
         x="45.017578"
         y="83.579487"
         id="tspan12702"><tspan
           style="font-family:C059;-inkscape-font-specification:C059"
           id="tspan12700">qjanno</tspan></tspan></text><text
       xml:space="preserve"
       transform="matrix(0,-0.26458333,0.26458333,0,116.41069,114.61891)"
       id="text9999"
       style="font-style:normal;font-weight:normal;font-size:16px;line-height:1.25;font-family:sans-serif;letter-spacing:0px;word-spacing:0px;white-space:pre;shape-inside:url(#rect10001);display:inline;fill:#000000;fill-opacity:1;stroke:none"><tspan
         x="45.017578"
         y="83.579487"
         id="tspan12706"><tspan
           style="font-family:C059;-inkscape-font-specification:C059"
           id="tspan12704">janno R package</tspan></tspan></text><text
       xml:space="preserve"
       transform="matrix(0,-0.26458333,0.26458333,0,140.39483,119.87033)"
       id="text10081"
       style="font-style:normal;font-weight:normal;font-size:16px;line-height:1.25;font-family:sans-serif;letter-spacing:0px;word-spacing:0px;white-space:pre;shape-inside:url(#rect10083);display:inline;fill:#000000;fill-opacity:1;stroke:none"><tspan
         x="45.017578"
         y="83.579487"
         id="tspan12710"><tspan
           style="font-weight:bold;font-family:C059;-inkscape-font-specification:'C059 Bold'"
           id="tspan12708">Minotaur workflow</tspan></tspan></text><circle
       style="fill:none;fill-opacity:1;stroke:#000000;stroke-width:0.381;stroke-linecap:round;stroke-linejoin:bevel;stroke-dasharray:none;stroke-opacity:1"
       id="path10139"
       cx="101.99056"
       cy="36.307854"
       r="5.9134765" /><text
       xml:space="preserve"
       transform="matrix(0.26458333,0,0,0.26458333,85.575396,15.751981)"
       id="text10143"
       style="font-style:normal;font-weight:normal;font-size:16px;line-height:1.25;font-family:sans-serif;letter-spacing:0px;word-spacing:0px;white-space:pre;shape-inside:url(#rect10145);display:inline;fill:#000000;fill-opacity:1;stroke:none"><tspan
         x="45.017578"
         y="83.579487"
         id="tspan12714"><tspan
           style="font-family:C059;-inkscape-font-specification:C059"
           id="tspan12712">PBA</tspan></tspan></text><circle
       style="fill:none;fill-opacity:1;stroke:#000000;stroke-width:0.381;stroke-linecap:round;stroke-linejoin:bevel;stroke-dasharray:none;stroke-opacity:1"
       id="circle10155"
       cx="87.703072"
       cy="38.424522"
       r="5.9134765" /><text
       xml:space="preserve"
       transform="matrix(0.26458333,0,0,0.26458333,71.287887,17.868649)"
       id="text10159"
       style="font-style:normal;font-weight:normal;font-size:16px;line-height:1.25;font-family:sans-serif;letter-spacing:0px;word-spacing:0px;white-space:pre;shape-inside:url(#rect10161);display:inline;fill:#000000;fill-opacity:1;stroke:none"><tspan
         x="45.017578"
         y="83.579487"
         id="tspan12718"><tspan
           style="font-family:C059;-inkscape-font-specification:C059"
           id="tspan12716">PUA</tspan></tspan></text><circle
       style="fill:none;fill-opacity:1;stroke:#000000;stroke-width:0.381;stroke-linecap:round;stroke-linejoin:bevel;stroke-dasharray:none;stroke-opacity:1"
       id="circle10163"
       cx="116.27806"
       cy="38.424522"
       r="5.9134765" /><text
       xml:space="preserve"
       transform="matrix(0.26458333,0,0,0.26458333,99.862905,17.868649)"
       id="text10167"
       style="font-style:normal;font-weight:normal;font-size:16px;line-height:1.25;font-family:sans-serif;letter-spacing:0px;word-spacing:0px;white-space:pre;shape-inside:url(#rect10169);display:inline;fill:#000000;fill-opacity:1;stroke:none"><tspan
         x="45.017578"
         y="83.579487"
         id="tspan12722"><tspan
           style="font-family:C059;-inkscape-font-specification:C059"
           id="tspan12720">PAA</tspan></tspan></text><text
       xml:space="preserve"
       transform="matrix(0.26458333,0,0,0.26458333,56.543485,100.99875)"
       id="text3706"
       style="font-style:normal;font-weight:normal;font-size:16px;line-height:1.25;font-family:sans-serif;letter-spacing:0px;word-spacing:0px;white-space:pre;shape-inside:url(#rect3708);display:inline;fill:#000000;fill-opacity:1;stroke:none"><tspan
         x="45.017578"
         y="83.579487"
         id="tspan12726"><tspan
           style="font-weight:bold;font-family:C059;-inkscape-font-specification:'C059 Bold'"
           id="tspan12724">The Poseidon Package definition</tspan></tspan></text><g
       id="g10229"
       transform="matrix(0.83462377,0,0,0.83462377,9.5976096,20.188887)"
       style="stroke-width:0.479258;stroke-dasharray:none"><rect
         style="fill:none;stroke:#000000;stroke-width:0.479258;stroke-linejoin:round;stroke-dasharray:none"
         id="rect7445"
         width="3.5648186"
         height="3.5648088"
         x="64.947464"
         y="119.71169"
         ry="0" /><path
         style="fill:none;stroke:#000000;stroke-width:0.479258;stroke-linecap:butt;stroke-linejoin:miter;stroke-dasharray:none;stroke-opacity:1"
         d="m 66.729872,119.71169 v 1.30358"
         id="path10225" /></g><path
       class="cls-1"
       d="m 163.97138,49.502686 a 5.8036428,5.8036428 0 1 0 -5.33657,9.776997 v -0.844526 a 4.9727709,4.9727709 0 0 1 -2.29025,-1.305656 c -0.0421,-0.04214 -0.0832,-0.08546 -0.12395,-0.128805 h 0.80239 v -0.261114 h -1.02554 a 4.9300399,4.9300399 0 0 1 -0.38461,-0.545404 h 1.41012 l -0.0177,-0.25991 h -1.54303 a 4.9039271,4.9039271 0 0 1 -0.24755,-0.544816 h 1.13293 l -0.0475,-0.260513 h -1.17865 a 5.0214363,5.0214363 0 0 1 -0.1413,-0.544816 h 1.74542 l -0.085,-0.260512 h -1.70505 a 5.1442865,5.1442865 0 0 1 -0.0482,-0.545408 h 1.03681 l -0.10093,-0.259946 h -0.93829 a 5.0327121,5.0327121 0 0 1 0.0553,-0.660545 h 1.18697 L 156.00856,52.5972 h -1.02137 a 4.9852338,4.9852338 0 0 1 9.75919,0 h -1.02374 l -0.11864,0.260512 h 1.18693 a 5.0327121,5.0327121 0 0 1 0.0553,0.660545 h -0.93768 l -0.10094,0.259946 h 1.03741 a 4.8493268,4.8493268 0 0 1 -0.0482,0.545408 h -1.70456 l -0.085,0.260512 h 1.74482 a 4.8884968,4.8884968 0 0 1 -0.14131,0.544816 h -1.17802 l -0.0474,0.260513 h 1.13412 a 5.0149079,5.0149079 0 0 1 -0.24755,0.544816 h -1.54302 l -0.0177,0.260512 h 1.41486 a 5.0938404,5.0938404 0 0 1 -0.38461,0.545408 H 162.7106 V 57.0007 h 0.80239 c -0.0411,0.04335 -0.0825,0.08662 -0.12466,0.128804 a 4.960308,4.960308 0 0 1 -3.11163,1.442156 v -1.570347 h 1.63561 v -0.411285 c 0,-3.328235 1.50747,-4.437452 1.83506,-4.639827 a 4.1579222,4.1579222 0 0 0 -0.3715,-0.734134 c -0.33999,0.20059 -2.14604,1.428504 -2.27662,4.963276 h -0.82258 v -6.264775 l -0.82195,0.81959 v 5.445185 h -0.82198 c -0.13103,-3.534772 -1.93769,-4.762679 -2.27778,-4.963276 a 4.1157855,4.1157855 0 0 0 -0.37101,0.734127 c 0.32759,0.202361 1.83446,1.311592 1.83446,4.639827 v 0.411285 h 1.63624 v 2.238606 0 0.156073 c 0.136,0.0096 0.27234,0.01452 0.41067,0.01452 a 5.8036428,5.8036428 0 0 0 4.10392,-9.90815 z"
       id="path317"
       style="fill:#000000;fill-opacity:1;stroke:none;stroke-width:0;stroke-dasharray:none;stroke-opacity:1" /><text
       xml:space="preserve"
       style="font-style:normal;font-weight:normal;font-size:7.05556px;line-height:1.25;font-family:sans-serif;letter-spacing:0px;word-spacing:0px;fill:#000000;fill-opacity:1;stroke:none;stroke-width:0.264583"
       x="31.898285"
       y="29.960625"
       id="text419"><tspan
         sodipodi:role="line"
         id="tspan417"
         style="font-style:normal;font-variant:normal;font-weight:bold;font-stretch:normal;font-size:7.05556px;font-family:sans-serif;-inkscape-font-specification:'sans-serif Bold';stroke-width:0.264583"
         x="31.898285"
         y="29.960625">A</tspan></text><text
       xml:space="preserve"
       style="font-style:normal;font-weight:normal;font-size:7.05556px;line-height:1.25;font-family:sans-serif;letter-spacing:0px;word-spacing:0px;fill:#000000;fill-opacity:1;stroke:none;stroke-width:0.264583"
       x="166.30672"
       y="29.960625"
       id="text473"><tspan
         sodipodi:role="line"
         id="tspan471"
         style="font-style:normal;font-variant:normal;font-weight:bold;font-stretch:normal;font-size:7.05556px;font-family:sans-serif;-inkscape-font-specification:'sans-serif Bold';stroke-width:0.264583"
         x="166.30672"
         y="29.960625">B</tspan></text><rect
       style="fill:none;stroke:#000000;stroke-width:0.381;stroke-linecap:round;stroke-linejoin:bevel;stroke-dasharray:none;stroke-opacity:1"
       id="rect527"
       width="120.18329"
       height="95.611382"
       x="176.23181"
       y="30.151291" /><text
       xml:space="preserve"
       transform="matrix(0.26458333,0,0,0.26458333,164.1212,6.7058381)"
       id="text1091"
       style="font-style:normal;font-weight:normal;font-size:16px;line-height:1.25;font-family:sans-serif;letter-spacing:0px;word-spacing:0px;white-space:pre;shape-inside:url(#rect1093);display:inline;fill:#000000;fill-opacity:1;stroke:none"><tspan
         x="45.017578"
         y="83.579487"
         id="tspan12730"><tspan
           style="font-weight:bold;font-family:C059;-inkscape-font-specification:'C059 Bold'"
           id="tspan12728">The Poseidon Package</tspan></tspan></text><path
       id="rect5055"
       style="fill:none;stroke:#000000;stroke-width:0.699624;stroke-linecap:round;stroke-linejoin:bevel;stroke-dasharray:none;stroke-opacity:1"
       d="m 224.43105,59.571208 h 17.39189 l 6.39292,7.510901 v 25.867868 h -23.78481 z"
       sodipodi:nodetypes="cccccc" /><rect
       style="fill:none;stroke:#000000;stroke-width:0.136146;stroke-linecap:round;stroke-linejoin:bevel;stroke-dasharray:none;stroke-opacity:1"
       id="rect8220"
       width="36.123444"
       height="40.618645"
       x="181.49141"
       y="55.289738" /><path
       id="path8386"
       style="fill:none;stroke:#000000;stroke-width:0.113901;stroke-linecap:round;stroke-linejoin:bevel;stroke-opacity:1"
       d="m 182.37413,34.759329 h 4.73836 l 1.74174,1.761075 v 6.065216 h -6.4801 z"
       sodipodi:nodetypes="cccccc" /><rect
       style="fill:none;stroke:#000000;stroke-width:0.125285;stroke-linecap:round;stroke-linejoin:bevel;stroke-dasharray:none;stroke-opacity:1"
       id="rect8388"
       width="67.406731"
       height="18.432955"
       x="181.48537"
       y="33.871643" /><path
       id="path8412"
       style="fill:none;stroke:#000000;stroke-width:0.113901;stroke-linecap:round;stroke-linejoin:bevel;stroke-opacity:1"
       d="m 189.78251,34.759329 h 4.73836 l 1.74174,1.761075 v 6.065216 h -6.4801 z"
       sodipodi:nodetypes="cccccc" /><path
       id="path8414"
       style="fill:none;stroke:#000000;stroke-width:0.113901;stroke-linecap:round;stroke-linejoin:bevel;stroke-opacity:1"
       d="m 197.19089,34.759329 h 4.73836 l 1.74174,1.761075 v 6.065216 h -6.4801 z"
       sodipodi:nodetypes="cccccc" /><path
       id="path8416"
       style="fill:none;stroke:#000000;stroke-width:0.113901;stroke-linecap:round;stroke-linejoin:bevel;stroke-opacity:1"
       d="m 182.37413,56.171994 h 4.73836 l 1.74174,1.761075 v 6.065216 h -6.4801 z"
       sodipodi:nodetypes="cccccc" /><rect
       style="fill:none;stroke:#000000;stroke-width:0.186339;stroke-linecap:round;stroke-linejoin:bevel;stroke-dasharray:none;stroke-opacity:1"
       id="rect8418"
       width="116.88782"
       height="23.515068"
       x="177.81239"
       y="100.29404" /><path
       id="path8420"
       style="fill:none;stroke:#000000;stroke-width:0.113901;stroke-linecap:round;stroke-linejoin:bevel;stroke-opacity:1"
       d="m 178.66994,101.15119 h 4.73836 l 1.74174,1.76109 v 6.06525 h -6.4801 z"
       sodipodi:nodetypes="cccccc" /><rect
       style="fill:none;stroke:#000000;stroke-width:0.182931;stroke-linecap:round;stroke-linejoin:bevel;stroke-dasharray:none;stroke-opacity:1"
       id="rect8424"
       width="39.846455"
       height="66.47998"
       x="255.01334"
       y="31.930079" /><path
       id="path8426"
       style="fill:none;stroke:#000000;stroke-width:0.113901;stroke-linecap:round;stroke-linejoin:bevel;stroke-opacity:1"
       d="m 255.87268,32.788943 h 4.73836 l 1.74174,1.761075 v 6.065216 h -6.4801 z"
       sodipodi:nodetypes="cccccc" /><text
       xml:space="preserve"
       transform="matrix(0.26458333,0,0,0.26458333,174.9062,82.036567)"
       id="text8432"
       style="font-style:normal;font-weight:normal;font-size:16px;line-height:1.25;font-family:sans-serif;letter-spacing:0px;word-spacing:0px;white-space:pre;shape-inside:url(#rect8434);display:inline;fill:#000000;fill-opacity:1;stroke:none"><tspan
         x="45.017578"
         y="83.579487"
         id="tspan12734"><tspan
           style="font-family:C059;-inkscape-font-specification:C059"
           id="tspan12732">.janno file</tspan></tspan></text><text
       xml:space="preserve"
       transform="matrix(0.26458333,0,0,0.26458333,179.03644,37.507757)"
       id="text8448"
       style="font-style:normal;font-weight:normal;font-size:16px;line-height:1.25;font-family:sans-serif;letter-spacing:0px;word-spacing:0px;white-space:pre;shape-inside:url(#rect8450);display:inline;fill:#000000;fill-opacity:1;stroke:none"><tspan
         x="45.017578"
         y="83.579487"
         id="tspan12738"><tspan
           style="font-family:C059;-inkscape-font-specification:C059"
           id="tspan12736">.bib file</tspan></tspan></text><text
       xml:space="preserve"
       transform="matrix(0.26458333,0,0,0.26458333,193.38309,15.980442)"
       id="text8456"
       style="font-style:normal;font-weight:normal;font-size:16px;line-height:1.25;font-family:sans-serif;letter-spacing:0px;word-spacing:0px;white-space:pre;shape-inside:url(#rect8458);display:inline;fill:#000000;fill-opacity:1;stroke:none"><tspan
         x="45.017578"
         y="83.579487"
         id="tspan12742"><tspan
           style="font-family:C059;-inkscape-font-specification:C059"
           id="tspan12740">genotype data files</tspan></tspan></text><text
       xml:space="preserve"
       transform="matrix(0.26458333,0,0,0.26458333,251.64584,14.040606)"
       id="text8464"
       style="font-style:normal;font-weight:normal;font-size:16px;line-height:1.25;font-family:sans-serif;letter-spacing:0px;word-spacing:0px;white-space:pre;shape-inside:url(#rect8466);display:inline;fill:#000000;fill-opacity:1;stroke:none"><tspan
         x="45.017578"
         y="83.579487"
         id="tspan12746"><tspan
           style="font-family:C059;-inkscape-font-specification:C059"
           id="tspan12744">.ssf file</tspan></tspan></text><path
       style="fill:none;stroke:#000000;stroke-width:0.265;stroke-linecap:butt;stroke-linejoin:miter;stroke-opacity:1;stroke-dasharray:0.26499999,0.26499999;stroke-dashoffset:0"
       d="m 259.067,37.293457 h -6.37144 v 60.757557 h -71.22239 v 6.981546"
       id="path9248" /><path
       style="fill:none;stroke:#000000;stroke-width:0.264583px;stroke-linecap:butt;stroke-linejoin:miter;stroke-opacity:1;stroke-dasharray:0.26458299,0.26458299;stroke-dashoffset:0"
       d="M 181.47317,98.051012 H 178.7607 V 60.245308 h 7.05089"
       id="path9250" /><path
       style="fill:none;stroke:#000000;stroke-width:0.264583px;stroke-linecap:butt;stroke-linejoin:miter;stroke-opacity:1;marker-start:url(#Dot);marker-end:url(#marker11122)"
       d="m 235.99756,92.959288 v 7.334752"
       id="path9254" /><path
       style="fill:none;stroke:#000000;stroke-width:0.264583px;stroke-linecap:butt;stroke-linejoin:miter;stroke-opacity:1;marker-start:url(#Dot);marker-end:url(#marker11122)"
       d="m 224.42174,76.714178 h -6.80689"
       id="path9256" /><path
       style="fill:none;stroke:#000000;stroke-width:0.264583px;stroke-linecap:butt;stroke-linejoin:miter;stroke-opacity:1;marker-start:url(#Dot);marker-end:url(#marker11122)"
       d="m 232.88619,60.469072 v -8.28955"
       id="path9258" /><path
       style="fill:none;stroke:#000000;stroke-width:0.264583px;stroke-linecap:butt;stroke-linejoin:miter;stroke-opacity:1;marker-start:url(#Dot);marker-end:url(#marker11122)"
       d="m 247.57339,76.714178 h 7.43994"
       id="path9260"
       sodipodi:nodetypes="cc" /><path
       style="fill:none;stroke:#000000;stroke-width:0.264583px;stroke-linecap:butt;stroke-linejoin:miter;stroke-opacity:1;stroke-dasharray:0.26458299,0.26458299;stroke-dashoffset:0"
       d="M 178.7607,60.245308 V 31.955754 h 21.18169 v 6.739858"
       id="path11580" /><path
       style="fill:none;stroke:#000000;stroke-width:0.264583px;stroke-linecap:butt;stroke-linejoin:miter;stroke-opacity:1;stroke-dasharray:0.26458299,0.26458299;stroke-dashoffset:0"
       d="m 199.94239,31.955754 h 52.75285 l 2.6e-4,5.337703"
       id="path11582" /><text
       xml:space="preserve"
       transform="matrix(0,-0.26458333,0.26458333,0,206.17762,104.43835)"
       id="text12533"
       style="font-style:normal;font-weight:normal;font-size:16px;line-height:1.25;font-family:sans-serif;letter-spacing:0px;word-spacing:0px;white-space:pre;shape-inside:url(#rect12535);display:inline;fill:#000000;fill-opacity:1;stroke:none"><tspan
         x="45.017578"
         y="83.579487"
         id="tspan12750"><tspan
           style="font-family:C059;-inkscape-font-specification:C059"
           id="tspan12748">POSEIDON.yml</tspan></tspan></text></g></svg>
