<?xml version="1.0" encoding="utf-8"?>
<!-- Generator: Adobe Illustrator 28.3.0, SVG Export Plug-In . SVG Version: 6.00 Build 0)  -->
<svg version="1.1" id="Layer_1" xmlns="http://www.w3.org/2000/svg" xmlns:xlink="http://www.w3.org/1999/xlink" x="0px" y="0px"
	 viewBox="0 0 366.9 324.6" style="enable-background:new 0 0 366.9 324.6;" xml:space="preserve">
<style type="text/css">
	.st0{fill:#FFCC00;fill-opacity:0.15;stroke:#000000;stroke-width:1.5;stroke-linecap:round;stroke-linejoin:round;}
	.st1{fill:#FFFFFF;stroke:#FFCC00;stroke-width:1.5;stroke-linecap:round;stroke-linejoin:round;}
	.st2{fill:#08B8FA;fill-opacity:0.15;stroke:#000000;stroke-width:1.5;stroke-linecap:round;stroke-linejoin:round;}
	.st3{enable-background:new    ;}
	.st4{fill:#FFCC00;}
	.st5{fill:none;stroke:#000000;stroke-width:1.5;stroke-linecap:round;stroke-linejoin:round;}
	.st6{fill:#00C800;fill-opacity:0.15;stroke:#000000;stroke-width:1.5;stroke-linecap:round;stroke-linejoin:round;}
	.st7{fill:#FFF5F4;stroke:#000000;stroke-width:1.5;stroke-linecap:round;stroke-linejoin:round;}
	.st8{fill:#00C800;}
	.st9{fill:#FF0000;}
	.st10{fill:none;stroke:#00C800;stroke-width:1.5;stroke-miterlimit:10;}
	.st11{fill:#FFFFFF;stroke:#00C800;stroke-miterlimit:10;}
	.st12{fill:#00C800;stroke:#000000;stroke-width:1.5;stroke-linecap:round;stroke-linejoin:round;}
	.st13{fill:none;stroke:#000000;stroke-miterlimit:10;}
	.st14{fill:none;}
	.st15{fill:#FFFFFF;}
	.st16{fill:none;stroke:#08B8FA;stroke-width:1.5;stroke-linejoin:round;stroke-miterlimit:9.4634;}
	.st17{fill:none;stroke:#FFCC00;stroke-width:1.5;stroke-linecap:round;stroke-linejoin:round;}
	.st18{fill:#FF0000;stroke:#000000;stroke-width:1.5;stroke-linecap:round;stroke-linejoin:round;}
	.st19{fill:none;stroke:#FFCC00;stroke-linecap:round;stroke-opacity:0.5;}
</style>
<g id="svg516" xmlns:inkscape="http://www.inkscape.org/namespaces/inkscape" xmlns:sodipodi="http://sodipodi.sourceforge.net/DTD/sodipodi-0.dtd" xmlns:svg="http://www.w3.org/2000/svg">
	<path class="st0" d="M5.4,92.8v31.6h356.9V92.8c0,0-178.5-86.2-179.8-86.2C180.9,6.6,5.2,92.9,5.4,92.8z"/>
	
		<sodipodi:namedview  bordercolor="#eeeeee" borderopacity="1" id="namedview518" inkscape:current-layer="layer1" inkscape:cx="438.71476" inkscape:cy="407.09862" inkscape:deskcolor="#464646" inkscape:document-units="mm" inkscape:pagecheckerboard="0" inkscape:pageopacity="0" inkscape:showpageshadow="0" inkscape:window-height="1049" inkscape:window-maximized="1" inkscape:window-width="1920" inkscape:window-x="0" inkscape:window-y="0" inkscape:zoom="1.5340263" pagecolor="#ffffff" showgrid="false">
		</sodipodi:namedview>
	<g>
		<path class="st1" d="M199.3,45.6c0,8.6-7,15.6-15.6,15.6s-15.6-7-15.6-15.6s7-15.6,15.6-15.6C192.3,29.9,199.3,36.9,199.3,45.6z"
			/>
		<path class="st1" d="M243.5,65.6c0,8.6-7,15.6-15.6,15.6s-15.6-7-15.6-15.6s7-15.6,15.6-15.6C236.5,49.9,243.5,56.9,243.5,65.6z"
			/>
		<path class="st1" d="M155.1,66.2c0,8.6-7,15.6-15.6,15.6s-15.6-7-15.6-15.6s7-15.6,15.6-15.6S155.1,57.6,155.1,66.2z"/>
	</g>
	<path class="st2" d="M5.5,317.3v-32.8h356.6v32.1C362.1,316.7,6.6,317.3,5.5,317.3z"/>
	<g class="st3">
		<path d="M66.5,221.9v-1.5c1.2,0,1.6-0.8,1.6-1.9c0-1-0.4-1.6-1.1-1.6c-0.6,0-0.9,0.4-1.1,1.6l-0.1,0.7c-0.3,1.5-1,2.5-2.4,2.5
			c-1.3,0-2.2-1-2.2-2.9c0-2.2,1-3.1,2.5-3.2v1.4c-0.8,0.1-1.3,0.5-1.3,1.7c0,0.9,0.4,1.4,1,1.4c0.6,0,0.9-0.4,1.2-1.5l0.1-0.7
			c0.4-1.8,1.1-2.6,2.3-2.6c1.6,0,2.4,1.2,2.4,3.2C69.3,220.7,68.3,221.9,66.5,221.9z"/>
		<path d="M66.3,214.7c-1.8,0-3-1.2-3-2.9s1.2-2.9,3-2.9c1.8,0,3,1.2,3,2.9S68.1,214.7,66.3,214.7z M66.3,210.3
			c-1.2,0-1.8,0.6-1.8,1.5c0,0.9,0.6,1.5,1.8,1.5c1.2,0,1.8-0.6,1.8-1.5C68.1,210.9,67.5,210.3,66.3,210.3z"/>
		<path d="M64.5,206.5h3.1c0.4,0,0.5-0.2,0.5-0.6v-0.5h1.1c0,0.3,0,0.5,0,0.7c0,1.2-0.4,1.8-1.5,1.8h-3.2v0.9h-1.1v-0.9h-1.7v-1.4
			h1.7v-1.1h1.1V206.5z"/>
		<path d="M63,202.7h0.4v-1.2h1.1v1.2h4.6v1.4h-4.6v0.9h-1.1v-0.9H63c-1,0-1.8-0.5-1.8-1.9c0-0.2,0-0.5,0-0.7h1.1v0.5
			C62.3,202.5,62.6,202.7,63,202.7z"/>
		<path d="M63.4,192.3l5.7,1.9v1.5l-2.3,0.7c-0.6,0.2-1.1,0.3-1.7,0.5c0.6,0.2,1.1,0.3,1.7,0.5l2.3,0.7v1.5l-5.7,1.9v-1.5l2.1-0.6
			c0.6-0.2,1.3-0.4,2-0.6c-0.7-0.2-1.3-0.3-2-0.5l-2.1-0.6v-1.3l2.1-0.6c0.7-0.2,1.3-0.4,2-0.5c-0.6-0.2-1.3-0.4-2-0.6l-2.1-0.6
			V192.3z"/>
		<path d="M69.1,188.2c-0.2,0.1-0.4,0.1-0.7,0.2c0.5,0.4,0.8,1,0.8,1.8c0,1.2-0.6,2-1.7,2c-0.9,0-1.6-0.6-1.8-2.2l-0.1-0.9
			c-0.1-0.5-0.2-0.8-0.6-0.8c-0.4,0-0.7,0.2-0.7,1c0,0.8,0.2,1.1,0.9,1.2v1.4c-1.2-0.1-1.9-0.8-1.9-2.6c0-1.7,0.7-2.4,1.7-2.4h3
			c0.4,0,0.9-0.1,1.1-0.2V188.2z M66.9,188.4h-0.5c0.1,0.1,0.2,0.4,0.2,0.6l0.1,0.7c0.1,0.8,0.4,1,0.8,1c0.5,0,0.8-0.3,0.8-1
			C68.3,189.2,67.9,188.4,66.9,188.4z"/>
		<path d="M63.4,182.7h1.3v0.4c0,1,0.5,1.6,1.6,1.6h2.9v1.4h-5.7v-1.3h1c-0.6-0.3-1.1-0.8-1.1-1.7C63.3,182.9,63.3,182.8,63.4,182.7
			z"/>
		<path d="M66.7,176.8v4.2c1-0.1,1.5-0.7,1.5-1.5c0-0.7-0.3-1.1-0.8-1.3v-1.3c1.2,0.3,1.9,1.3,1.9,2.6c0,1.7-1.2,2.8-3,2.8
			c-1.8,0-3-1.1-3-2.8c0-1.7,1.3-2.8,3.1-2.8H66.7z M65.7,181v-2.8c-0.8,0.1-1.4,0.6-1.4,1.4C64.4,180.4,64.8,180.9,65.7,181z"/>
	</g>
	<g class="st3">
		<path d="M63.9,106.5c0,1.5-1,2.5-2.8,2.5h-2v2.7h-1.5V104h3.4C63,104,63.9,105,63.9,106.5z M62.4,106.5c0-0.8-0.5-1.3-1.3-1.3
			h-1.9v2.5h1.9C62,107.8,62.4,107.3,62.4,106.5z"/>
		<path d="M69.9,106.1v5.7h-1.3V111c-0.4,0.5-1,1-1.8,1c-1.2,0-2-0.7-2-2v-3.8h1.4v3.5c0,0.7,0.4,1.1,1.1,1.1c0.6,0,1.3-0.4,1.3-1.4
			v-3.2H69.9z"/>
		<path d="M76.7,109c0,1.8-1,3-2.5,3c-0.8,0-1.4-0.4-1.8-0.9v0.8H71V104h1.4v2.9c0.4-0.6,1-0.9,1.8-0.9
			C75.7,106,76.7,107.2,76.7,109z M75.3,108.9c0-1.2-0.6-1.8-1.5-1.8c-0.9,0-1.5,0.6-1.5,1.8c0,1.2,0.6,1.8,1.5,1.8
			C74.7,110.8,75.3,110.1,75.3,108.9z"/>
		<path d="M77.6,104H79v7.8h-1.4V104z"/>
		<path d="M80.1,106.1h1.4v5.7h-1.4V106.1z M80.1,104.1h1.4v1.3h-1.4V104.1z"/>
		<path d="M82.3,109c0-1.8,1.1-3,2.8-3c1.5,0,2.5,0.8,2.6,2.2h-1.4c-0.1-0.7-0.6-1-1.3-1c-0.8,0-1.4,0.6-1.4,1.8s0.6,1.8,1.4,1.8
			c0.6,0,1.2-0.3,1.3-1.1h1.4c-0.2,1.4-1.2,2.2-2.7,2.2C83.5,111.9,82.3,110.8,82.3,109z"/>
		<path d="M94.7,111.8c-0.1-0.2-0.1-0.4-0.2-0.7c-0.4,0.5-1,0.8-1.8,0.8c-1.2,0-2-0.6-2-1.7c0-0.9,0.6-1.6,2.2-1.8l0.9-0.1
			c0.5-0.1,0.8-0.2,0.8-0.6c0-0.4-0.2-0.7-1-0.7c-0.8,0-1.1,0.2-1.2,0.9h-1.4c0.1-1.2,0.8-1.9,2.6-1.9c1.7,0,2.4,0.7,2.4,1.7v3
			c0,0.4,0.1,0.9,0.2,1.1H94.7z M94.5,109.6V109c-0.1,0.1-0.4,0.2-0.6,0.2l-0.7,0.1c-0.8,0.1-1,0.4-1,0.8c0,0.5,0.3,0.8,1,0.8
			C93.8,110.9,94.5,110.5,94.5,109.6z"/>
		<path d="M100.3,106.1v1.3h-0.4c-1,0-1.6,0.5-1.6,1.6v2.9h-1.4v-5.7h1.3v1c0.3-0.6,0.8-1.1,1.7-1.1C100,106,100.1,106,100.3,106.1z
			"/>
		<path d="M100.5,109c0-1.8,1.1-3,2.8-3c1.5,0,2.5,0.8,2.6,2.2h-1.4c-0.1-0.7-0.6-1-1.3-1c-0.8,0-1.4,0.6-1.4,1.8s0.6,1.8,1.4,1.8
			c0.6,0,1.2-0.3,1.3-1.1h1.4c-0.2,1.4-1.2,2.2-2.7,2.2C101.6,111.9,100.5,110.8,100.5,109z"/>
		<path d="M111.8,108v3.8h-1.4v-3.5c0-0.7-0.4-1.1-1.1-1.1c-0.6,0-1.3,0.4-1.3,1.4v3.2h-1.4V104h1.4v2.9c0.4-0.5,1-0.9,1.7-0.9
			C111,106,111.8,106.7,111.8,108z"/>
		<path d="M113,106.1h1.4v5.7H113V106.1z M113,104.1h1.4v1.3H113V104.1z"/>
		<path d="M120.7,106.1l-2.1,5.7H117l-2.1-5.7h1.5l0.5,1.5c0.3,0.9,0.6,1.9,0.9,2.9c0.3-1,0.6-2,0.9-2.9l0.6-1.5H120.7z"/>
		<path d="M126.3,109.4h-4.2c0.1,1,0.7,1.5,1.5,1.5c0.7,0,1.1-0.3,1.3-0.8h1.3c-0.3,1.2-1.3,1.9-2.6,1.9c-1.7,0-2.8-1.2-2.8-3
			c0-1.8,1.1-3,2.8-3c1.7,0,2.8,1.3,2.8,3.1V109.4z M122.1,108.4h2.8c-0.1-0.8-0.6-1.4-1.4-1.4C122.8,107.1,122.2,107.5,122.1,108.4
			z"/>
		<path d="M126.9,110h1.4c0.1,0.7,0.4,1,1.3,1c0.8,0,1.1-0.3,1.1-0.7c0-0.4-0.3-0.6-1.1-0.7l-0.6-0.1c-1.2-0.2-1.9-0.7-1.9-1.7
			c0-1.1,0.8-1.7,2.4-1.7c1.7,0,2.5,0.8,2.5,1.9h-1.3c0-0.7-0.5-0.9-1.2-0.9c-0.7,0-1,0.3-1,0.7c0,0.4,0.3,0.6,0.9,0.7l0.7,0.1
			c1.4,0.2,2,0.7,2,1.7c0,1.1-0.9,1.8-2.5,1.8C127.8,112,127,111.4,126.9,110z"/>
	</g>
	<g class="st3">
		<path class="st4" d="M132.4,66.5v1h0.5c0.2,0,0.4,0,0.5,0.1s0.1,0.2,0.1,0.4c0,0.2,0,0.3-0.1,0.4s-0.2,0.1-0.4,0.1h-1.7
			c-0.2,0-0.4,0-0.5-0.1s-0.1-0.2-0.1-0.4c0-0.2,0-0.3,0.1-0.4c0.1-0.1,0.2-0.1,0.4-0.1h0.1v-3.6h-0.1c-0.2,0-0.3,0-0.4-0.1
			c-0.1-0.1-0.1-0.2-0.1-0.4c0-0.2,0-0.3,0.1-0.4c0.1-0.1,0.2-0.1,0.5-0.1h2c0.8,0,1.4,0.2,1.8,0.5s0.6,0.8,0.6,1.4
			c0,0.6-0.2,1.1-0.6,1.4s-1,0.5-1.8,0.5H132.4z M132.4,63.8v1.5h0.7c0.4,0,0.7-0.1,0.9-0.2s0.3-0.3,0.3-0.6c0-0.2-0.1-0.4-0.3-0.6
			c-0.2-0.1-0.5-0.2-0.9-0.2H132.4z"/>
		<path class="st4" d="M140,66l0.9-2.8c0.1-0.2,0.1-0.3,0.2-0.4c0.1-0.1,0.2-0.1,0.4-0.1h0.8c0.2,0,0.4,0,0.5,0.1s0.1,0.2,0.1,0.4
			c0,0.2,0,0.3-0.1,0.4s-0.2,0.1-0.4,0.1h-0.1l0.1,3.6h0.1c0.2,0,0.3,0,0.4,0.1c0.1,0.1,0.1,0.2,0.1,0.4c0,0.2,0,0.3-0.1,0.4
			s-0.2,0.1-0.5,0.1h-1.1c-0.2,0-0.4,0-0.5-0.1c-0.1-0.1-0.1-0.2-0.1-0.4c0-0.2,0-0.3,0.1-0.4c0.1-0.1,0.2-0.1,0.4-0.1h0.1l-0.1-3
			l-0.7,2.2c-0.1,0.2-0.1,0.3-0.2,0.4c-0.1,0.1-0.2,0.1-0.4,0.1s-0.3,0-0.4-0.1c-0.1-0.1-0.2-0.2-0.2-0.4l-0.7-2.2l-0.1,3h0.1
			c0.2,0,0.3,0,0.4,0.1c0.1,0.1,0.1,0.2,0.1,0.4c0,0.2,0,0.3-0.1,0.4s-0.3,0.1-0.5,0.1h-1.1c-0.2,0-0.4,0-0.5-0.1s-0.1-0.2-0.1-0.4
			c0-0.2,0-0.3,0.1-0.4c0.1-0.1,0.2-0.1,0.4-0.1h0.1l0.1-3.6h-0.1c-0.2,0-0.3,0-0.4-0.1s-0.1-0.2-0.1-0.4c0-0.2,0-0.3,0.1-0.4
			s0.3-0.1,0.5-0.1h0.8c0.2,0,0.3,0,0.4,0.1s0.2,0.2,0.3,0.4L140,66z"/>
		<path class="st4" d="M149.5,67.5L149.5,67.5c0.3,0,0.4,0,0.5,0.1c0.1,0.1,0.1,0.2,0.1,0.4c0,0.2,0,0.3-0.1,0.4s-0.3,0.1-0.5,0.1
			H148c-0.2,0-0.4,0-0.5-0.1c-0.1-0.1-0.1-0.2-0.1-0.4c0-0.2,0-0.3,0.1-0.4s0.3-0.1,0.5-0.1h0.2l-0.2-0.6h-2.1l-0.2,0.6h0.2
			c0.2,0,0.4,0,0.5,0.1c0.1,0.1,0.1,0.2,0.1,0.4c0,0.2,0,0.3-0.1,0.4s-0.3,0.1-0.5,0.1h-1.3c-0.2,0-0.4,0-0.5-0.1S144,68.2,144,68
			c0-0.2,0-0.3,0.1-0.4c0.1-0.1,0.2-0.1,0.4-0.1h0.1l1.3-3.6h-0.4c-0.2,0-0.4,0-0.5-0.1s-0.1-0.2-0.1-0.4c0-0.2,0-0.3,0.1-0.4
			s0.3-0.1,0.5-0.1h1.8c0.3,0,0.5,0.2,0.6,0.5v0L149.5,67.5z M146.9,63.8l-0.7,2.1h1.4L146.9,63.8z"/>
	</g>
	<g class="st3">
		<path class="st4" d="M176.8,46.1v1h0.5c0.2,0,0.4,0,0.5,0.1s0.1,0.2,0.1,0.4c0,0.2,0,0.3-0.1,0.4s-0.2,0.1-0.4,0.1h-1.7
			c-0.2,0-0.4,0-0.5-0.1s-0.1-0.2-0.1-0.4c0-0.2,0-0.3,0.1-0.4c0.1-0.1,0.2-0.1,0.4-0.1h0.1v-3.6h-0.1c-0.2,0-0.3,0-0.4-0.1
			c-0.1-0.1-0.1-0.2-0.1-0.4c0-0.2,0-0.3,0.1-0.4c0.1-0.1,0.2-0.1,0.5-0.1h2c0.8,0,1.4,0.2,1.8,0.5s0.6,0.8,0.6,1.4
			c0,0.6-0.2,1.1-0.6,1.4s-1,0.5-1.8,0.5H176.8z M176.8,43.5V45h0.7c0.4,0,0.7-0.1,0.9-0.2s0.3-0.3,0.3-0.6c0-0.2-0.1-0.4-0.3-0.6
			c-0.2-0.1-0.5-0.2-0.9-0.2H176.8z"/>
		<path class="st4" d="M186,42.6c0.1-0.1,0.1-0.2,0.2-0.2s0.2-0.1,0.3-0.1c0.2,0,0.3,0,0.3,0.1c0.1,0.1,0.1,0.2,0.1,0.4l0,1.3
			c0,0.2,0,0.4-0.1,0.5s-0.2,0.1-0.4,0.1c-0.1,0-0.2,0-0.3-0.1s-0.1-0.2-0.2-0.4c-0.1-0.3-0.2-0.5-0.4-0.7s-0.4-0.2-0.8-0.2
			c-0.5,0-0.9,0.2-1.2,0.5s-0.4,0.8-0.4,1.5c0,0.6,0.1,1.1,0.4,1.5c0.3,0.3,0.7,0.5,1.2,0.5c0.3,0,0.7-0.1,1.1-0.3
			c0.4-0.2,0.7-0.3,0.8-0.3c0.1,0,0.2,0.1,0.3,0.2c0.1,0.1,0.1,0.2,0.1,0.4c0,0.3-0.3,0.6-0.8,0.8c-0.5,0.3-1.1,0.4-1.7,0.4
			c-0.9,0-1.5-0.3-2.1-0.8s-0.8-1.3-0.8-2.2c0-0.9,0.3-1.6,0.8-2.2s1.2-0.9,2-0.9c0.2,0,0.5,0,0.7,0.1S185.8,42.5,186,42.6z"/>
		<path class="st4" d="M193.9,47.1L193.9,47.1c0.3,0,0.4,0,0.5,0.1c0.1,0.1,0.1,0.2,0.1,0.4c0,0.2,0,0.3-0.1,0.4
			c-0.1,0.1-0.3,0.1-0.5,0.1h-1.5c-0.2,0-0.4,0-0.5-0.1c-0.1-0.1-0.1-0.2-0.1-0.4c0-0.2,0-0.3,0.1-0.4c0.1-0.1,0.3-0.1,0.5-0.1h0.2
			l-0.2-0.6h-2.1l-0.2,0.6h0.2c0.2,0,0.4,0,0.5,0.1c0.1,0.1,0.1,0.2,0.1,0.4c0,0.2,0,0.3-0.1,0.4c-0.1,0.1-0.3,0.1-0.5,0.1H189
			c-0.2,0-0.4,0-0.5-0.1c-0.1-0.1-0.1-0.2-0.1-0.4c0-0.2,0-0.3,0.1-0.4c0.1-0.1,0.2-0.1,0.4-0.1h0.1l1.3-3.6h-0.4
			c-0.2,0-0.4,0-0.5-0.1c-0.1-0.1-0.1-0.2-0.1-0.4c0-0.2,0-0.3,0.1-0.4c0.1-0.1,0.3-0.1,0.5-0.1h1.8c0.3,0,0.5,0.2,0.6,0.5v0
			L193.9,47.1z M191.4,43.5l-0.7,2.1h1.4L191.4,43.5z"/>
	</g>
	<g class="st3">
		<path class="st4" d="M220.2,65.9v1h0.5c0.2,0,0.4,0,0.5,0.1c0.1,0.1,0.1,0.2,0.1,0.4c0,0.2,0,0.3-0.1,0.4
			c-0.1,0.1-0.2,0.1-0.4,0.1H219c-0.2,0-0.4,0-0.5-0.1s-0.1-0.2-0.1-0.4c0-0.2,0-0.3,0.1-0.4c0.1-0.1,0.2-0.1,0.4-0.1h0.1v-3.6h-0.1
			c-0.2,0-0.3,0-0.4-0.1c-0.1-0.1-0.1-0.2-0.1-0.4c0-0.2,0-0.3,0.1-0.4c0.1-0.1,0.2-0.1,0.5-0.1h2c0.8,0,1.4,0.2,1.8,0.5
			c0.4,0.3,0.6,0.8,0.6,1.4c0,0.6-0.2,1.1-0.6,1.4c-0.4,0.3-1,0.5-1.8,0.5H220.2z M220.2,63.3v1.5h0.7c0.4,0,0.7-0.1,0.9-0.2
			c0.2-0.1,0.3-0.3,0.3-0.6c0-0.2-0.1-0.4-0.3-0.6c-0.2-0.1-0.5-0.2-0.9-0.2H220.2z"/>
		<path class="st4" d="M230.3,66.9L230.3,66.9c0.3,0,0.4,0,0.5,0.1c0.1,0.1,0.1,0.2,0.1,0.4c0,0.2,0,0.3-0.1,0.4
			c-0.1,0.1-0.3,0.1-0.5,0.1h-1.5c-0.2,0-0.4,0-0.5-0.1c-0.1-0.1-0.1-0.2-0.1-0.4c0-0.2,0-0.3,0.1-0.4c0.1-0.1,0.3-0.1,0.5-0.1h0.2
			l-0.2-0.6h-2.1l-0.2,0.6h0.2c0.2,0,0.4,0,0.5,0.1c0.1,0.1,0.1,0.2,0.1,0.4c0,0.2,0,0.3-0.1,0.4c-0.1,0.1-0.3,0.1-0.5,0.1h-1.3
			c-0.2,0-0.4,0-0.5-0.1c-0.1-0.1-0.1-0.2-0.1-0.4c0-0.2,0-0.3,0.1-0.4c0.1-0.1,0.2-0.1,0.4-0.1h0.1l1.3-3.6h-0.4
			c-0.2,0-0.4,0-0.5-0.1c-0.1-0.1-0.1-0.2-0.1-0.4c0-0.2,0-0.3,0.1-0.4c0.1-0.1,0.3-0.1,0.5-0.1h1.8c0.3,0,0.5,0.2,0.6,0.5v0
			L230.3,66.9z M227.8,63.3l-0.7,2.1h1.4L227.8,63.3z"/>
		<path class="st4" d="M237.3,66.9L237.3,66.9c0.3,0,0.4,0,0.5,0.1c0.1,0.1,0.1,0.2,0.1,0.4c0,0.2,0,0.3-0.1,0.4
			c-0.1,0.1-0.3,0.1-0.5,0.1h-1.5c-0.2,0-0.4,0-0.5-0.1c-0.1-0.1-0.1-0.2-0.1-0.4c0-0.2,0-0.3,0.1-0.4c0.1-0.1,0.3-0.1,0.5-0.1h0.2
			l-0.2-0.6h-2.1l-0.2,0.6h0.2c0.2,0,0.4,0,0.5,0.1c0.1,0.1,0.1,0.2,0.1,0.4c0,0.2,0,0.3-0.1,0.4c-0.1,0.1-0.3,0.1-0.5,0.1h-1.3
			c-0.2,0-0.4,0-0.5-0.1c-0.1-0.1-0.1-0.2-0.1-0.4c0-0.2,0-0.3,0.1-0.4c0.1-0.1,0.2-0.1,0.4-0.1h0.1l1.3-3.6h-0.4
			c-0.2,0-0.4,0-0.5-0.1c-0.1-0.1-0.1-0.2-0.1-0.4c0-0.2,0-0.3,0.1-0.4c0.1-0.1,0.3-0.1,0.5-0.1h1.8c0.3,0,0.5,0.2,0.6,0.5v0
			L237.3,66.9z M234.8,63.3l-0.7,2.1h1.4L234.8,63.3z"/>
	</g>
	<g class="st3">
		<path d="M63.8,297.6h-2.5v6.5h-1.5v-6.5h-2.5v-1.3h6.5V297.6z"/>
		<path d="M69.5,300.4v3.8h-1.4v-3.5c0-0.7-0.4-1.1-1.1-1.1c-0.6,0-1.3,0.4-1.3,1.4v3.2h-1.4v-7.8h1.4v2.9c0.4-0.5,1-0.9,1.7-0.9
			C68.7,298.3,69.5,299,69.5,300.4z"/>
		<path d="M76,301.7h-4.2c0.1,1,0.7,1.5,1.5,1.5c0.7,0,1.1-0.3,1.3-0.8h1.3c-0.3,1.2-1.3,1.9-2.6,1.9c-1.7,0-2.8-1.2-2.8-3
			c0-1.8,1.1-3,2.8-3c1.7,0,2.8,1.3,2.8,3.1V301.7z M71.7,300.8h2.8c-0.1-0.8-0.6-1.4-1.4-1.4C72.4,299.4,71.9,299.8,71.7,300.8z"/>
		<path d="M85.5,298.9c0,1.5-1,2.5-2.8,2.5h-2v2.7h-1.5v-7.8h3.4C84.6,296.3,85.5,297.4,85.5,298.9z M84,298.9
			c0-0.8-0.5-1.3-1.3-1.3h-1.9v2.5h1.9C83.6,300.1,84,299.7,84,298.9z"/>
		<path d="M85.8,301.3c0-1.8,1.2-3,2.9-3c1.7,0,2.9,1.2,2.9,3c0,1.8-1.2,3-2.9,3C87,304.3,85.8,303.1,85.8,301.3z M90.2,301.3
			c0-1.2-0.6-1.8-1.5-1.8c-0.9,0-1.5,0.6-1.5,1.8c0,1.2,0.6,1.8,1.5,1.8C89.6,303.1,90.2,302.5,90.2,301.3z"/>
		<path d="M92,302.3h1.4c0.1,0.7,0.4,1,1.3,1c0.8,0,1.1-0.3,1.1-0.7c0-0.4-0.3-0.6-1.1-0.7l-0.6-0.1c-1.2-0.2-1.9-0.7-1.9-1.7
			c0-1.1,0.8-1.7,2.4-1.7c1.7,0,2.5,0.8,2.5,1.9h-1.3c0-0.7-0.5-0.9-1.2-0.9c-0.7,0-1,0.3-1,0.7c0,0.4,0.3,0.6,0.9,0.7l0.7,0.1
			c1.4,0.2,2,0.7,2,1.7c0,1.1-0.9,1.8-2.5,1.8C93,304.3,92.1,303.7,92,302.3z"/>
		<path d="M103.2,301.7H99c0.1,1,0.7,1.5,1.5,1.5c0.7,0,1.1-0.3,1.3-0.8h1.3c-0.3,1.2-1.3,1.9-2.6,1.9c-1.7,0-2.8-1.2-2.8-3
			c0-1.8,1.1-3,2.8-3c1.7,0,2.8,1.3,2.8,3.1V301.7z M99,300.8h2.8c-0.1-0.8-0.6-1.4-1.4-1.4C99.7,299.4,99.1,299.8,99,300.8z"/>
		<path d="M104.1,298.5h1.4v5.7h-1.4V298.5z M104.1,296.4h1.4v1.3h-1.4V296.4z"/>
		<path d="M112.1,296.3v7.8h-1.3v-0.8c-0.4,0.6-1,0.9-1.8,0.9c-1.6,0-2.6-1.2-2.6-3c0-1.8,1-3,2.6-3c0.8,0,1.4,0.3,1.7,0.9v-2.9
			H112.1z M110.7,301.3c0-1.2-0.6-1.8-1.5-1.8c-0.9,0-1.5,0.7-1.5,1.9c0,1.2,0.6,1.8,1.5,1.8C110.1,303.1,110.7,302.5,110.7,301.3z"
			/>
		<path d="M118.5,301.7h-4.2c0.1,1,0.7,1.5,1.5,1.5c0.7,0,1.1-0.3,1.3-0.8h1.3c-0.3,1.2-1.3,1.9-2.6,1.9c-1.7,0-2.8-1.2-2.8-3
			c0-1.8,1.1-3,2.8-3c1.7,0,2.8,1.3,2.8,3.1V301.7z M114.3,300.8h2.8c-0.1-0.8-0.6-1.4-1.4-1.4C115,299.4,114.4,299.8,114.3,300.8z"
			/>
		<path d="M124.5,300.4v3.8h-1.4v-3.5c0-0.7-0.4-1.1-1.1-1.1c-0.6,0-1.3,0.4-1.3,1.4v3.2h-1.4v-5.7h1.3v0.8c0.4-0.5,1-0.9,1.8-0.9
			C123.7,298.3,124.5,299,124.5,300.4z"/>
		<path d="M134.3,298.9c0,1.5-1,2.5-2.8,2.5h-2v2.7h-1.5v-7.8h3.4C133.4,296.3,134.3,297.4,134.3,298.9z M132.8,298.9
			c0-0.8-0.5-1.3-1.3-1.3h-1.9v2.5h1.9C132.4,300.1,132.8,299.7,132.8,298.9z"/>
		<path d="M138.5,304.2c-0.1-0.2-0.1-0.4-0.2-0.7c-0.4,0.5-1,0.8-1.8,0.8c-1.2,0-2-0.6-2-1.7c0-0.9,0.6-1.6,2.2-1.8l0.9-0.1
			c0.5-0.1,0.8-0.2,0.8-0.6c0-0.4-0.2-0.7-1-0.7c-0.8,0-1.1,0.2-1.2,0.9h-1.4c0.1-1.2,0.8-1.9,2.6-1.9c1.7,0,2.4,0.7,2.4,1.7v3
			c0,0.4,0.1,0.9,0.2,1.1H138.5z M138.3,301.9v-0.5c-0.1,0.1-0.4,0.2-0.6,0.2l-0.7,0.1c-0.8,0.1-1,0.4-1,0.8c0,0.5,0.3,0.8,1,0.8
			C137.6,303.3,138.3,302.9,138.3,301.9z"/>
		<path d="M140.4,301.3c0-1.8,1.1-3,2.8-3c1.5,0,2.5,0.8,2.6,2.2h-1.4c-0.1-0.7-0.6-1-1.3-1c-0.8,0-1.4,0.6-1.4,1.8s0.6,1.8,1.4,1.8
			c0.6,0,1.2-0.3,1.3-1.1h1.4c-0.2,1.4-1.2,2.2-2.7,2.2C141.5,304.3,140.4,303.1,140.4,301.3z"/>
		<path d="M148.9,301.5l-0.9,0.9v1.8h-1.4v-7.8h1.4v4.5l2.3-2.4h1.7l-2.1,2.1l2.3,3.5h-1.6L148.9,301.5z"/>
		<path d="M156.1,304.2c-0.1-0.2-0.1-0.4-0.2-0.7c-0.4,0.5-1,0.8-1.8,0.8c-1.2,0-2-0.6-2-1.7c0-0.9,0.6-1.6,2.2-1.8l0.9-0.1
			c0.5-0.1,0.8-0.2,0.8-0.6c0-0.4-0.2-0.7-1-0.7c-0.8,0-1.1,0.2-1.2,0.9h-1.4c0.1-1.2,0.8-1.9,2.6-1.9c1.7,0,2.4,0.7,2.4,1.7v3
			c0,0.4,0.1,0.9,0.2,1.1H156.1z M155.9,301.9v-0.5c-0.1,0.1-0.4,0.2-0.6,0.2l-0.7,0.1c-0.8,0.1-1,0.4-1,0.8c0,0.5,0.3,0.8,1,0.8
			C155.2,303.3,155.9,302.9,155.9,301.9z"/>
		<path d="M163.7,298.5v5.5c0,1.5-1,2.5-2.8,2.5c-1.6,0-2.5-0.8-2.6-2h1.4c0.1,0.6,0.5,0.9,1.3,0.9c0.9,0,1.4-0.5,1.4-1.4v-0.7
			c-0.4,0.5-0.9,0.8-1.7,0.8c-1.5,0-2.6-1.2-2.6-2.9c0-1.7,1-2.9,2.6-2.9c0.8,0,1.4,0.3,1.8,0.9v-0.8H163.7z M162.3,301.2
			c0-1.1-0.6-1.8-1.5-1.8c-0.9,0-1.5,0.7-1.5,1.8c0,1.1,0.6,1.7,1.5,1.7C161.8,303,162.3,302.4,162.3,301.2z"/>
		<path d="M170.1,301.7h-4.2c0.1,1,0.7,1.5,1.5,1.5c0.7,0,1.1-0.3,1.3-0.8h1.3c-0.3,1.2-1.3,1.9-2.6,1.9c-1.7,0-2.8-1.2-2.8-3
			c0-1.8,1.1-3,2.8-3c1.7,0,2.8,1.3,2.8,3.1V301.7z M165.9,300.8h2.8c-0.1-0.8-0.6-1.4-1.4-1.4C166.6,299.4,166,299.8,165.9,300.8z"
			/>
	</g>
	<g>
		<g class="st3">
			<path d="M205,296c0-1.5,0.9-2.6,2.4-2.6c1.4,0,2.4,1.1,2.4,2.6s-0.9,2.6-2.4,2.6C205.9,298.6,205,297.5,205,296z M209.1,296
				c0-1.3-0.7-2.1-1.8-2.1s-1.8,0.8-1.8,2.1s0.7,2.1,1.8,2.1S209.1,297.3,209.1,296z"/>
			<path d="M213.9,296.7c0,1.2-0.7,1.9-1.7,1.9c-0.5,0-0.9-0.2-1.2-0.6v1.9h-0.6v-5h0.5v0.6c0.3-0.4,0.7-0.6,1.2-0.6
				C213.2,294.8,213.9,295.5,213.9,296.7z M213.3,296.7c0-0.9-0.5-1.4-1.2-1.4s-1.2,0.5-1.2,1.4c0,0.9,0.5,1.4,1.2,1.4
				S213.3,297.5,213.3,296.7z"/>
			<path d="M217.7,296.9h-2.7c0.1,0.8,0.5,1.2,1.1,1.2c0.5,0,0.8-0.3,1-0.7h0.6c-0.2,0.7-0.7,1.2-1.6,1.2c-1,0-1.7-0.7-1.7-1.9
				c0-1.1,0.7-1.9,1.7-1.9c1.1,0,1.7,0.9,1.7,1.9V296.9z M214.9,296.4h2.1c-0.1-0.6-0.4-1.1-1.1-1.1
				C215.5,295.3,215,295.7,214.9,296.4z"/>
			<path d="M221.3,296.1v2.4h-0.6v-2.4c0-0.6-0.3-0.8-0.8-0.8c-0.5,0-1,0.3-1,1.1v2h-0.6v-3.6h0.5v0.5c0.2-0.4,0.6-0.6,1.1-0.6
				C220.8,294.8,221.3,295.3,221.3,296.1z"/>
			<path d="M226.7,293.5v5h-0.5v-0.6c-0.3,0.4-0.7,0.6-1.2,0.6c-1,0-1.7-0.7-1.7-1.9c0-1.2,0.7-1.9,1.7-1.9c0.5,0,0.9,0.2,1.2,0.6
				v-1.9H226.7z M226.2,296.7c0-0.9-0.5-1.4-1.2-1.4s-1.2,0.5-1.2,1.4c0,0.9,0.5,1.4,1.2,1.4S226.2,297.6,226.2,296.7z"/>
			<path d="M230.7,298v0.5c-0.1,0-0.2,0-0.3,0c-0.4,0-0.6-0.2-0.6-0.5c-0.3,0.4-0.7,0.6-1.2,0.6c-0.8,0-1.3-0.4-1.3-1.1
				c0-0.6,0.3-1,1.3-1.1l0.5-0.1c0.4,0,0.6-0.2,0.6-0.5c0-0.4-0.2-0.6-0.8-0.6s-0.9,0.2-0.9,0.7h-0.6c0-0.7,0.4-1.2,1.5-1.2
				c1,0,1.4,0.4,1.4,1.1v2c0,0.1,0.1,0.2,0.2,0.2H230.7z M229.8,297.1v-0.4c-0.1,0.1-0.3,0.1-0.5,0.2l-0.5,0.1
				c-0.7,0.1-0.8,0.3-0.8,0.7c0,0.4,0.2,0.6,0.7,0.6C229.2,298.1,229.8,297.8,229.8,297.1z"/>
			<path d="M231.9,295.4v2.3c0,0.2,0.1,0.3,0.4,0.3h0.3v0.5c-0.2,0-0.3,0-0.4,0c-0.6,0-0.9-0.2-0.9-0.8v-2.4h-0.6v-0.5h0.6v-1h0.6v1
				h0.7v0.5H231.9z"/>
			<path d="M236.4,298v0.5c-0.1,0-0.2,0-0.3,0c-0.4,0-0.6-0.2-0.6-0.5c-0.3,0.4-0.7,0.6-1.2,0.6c-0.8,0-1.3-0.4-1.3-1.1
				c0-0.6,0.3-1,1.3-1.1l0.5-0.1c0.4,0,0.6-0.2,0.6-0.5c0-0.4-0.2-0.6-0.8-0.6c-0.6,0-0.9,0.2-0.9,0.7h-0.6c0-0.7,0.4-1.2,1.5-1.2
				c1,0,1.4,0.4,1.4,1.1v2c0,0.1,0.1,0.2,0.2,0.2H236.4z M235.4,297.1v-0.4c-0.1,0.1-0.3,0.1-0.5,0.2l-0.5,0.1
				c-0.7,0.1-0.8,0.3-0.8,0.7c0,0.4,0.2,0.6,0.7,0.6C234.9,298.1,235.4,297.8,235.4,297.1z"/>
			<path d="M239,294.5v0.4h0.8v0.5H239v3.1h-0.6v-3.1h-0.6v-0.5h0.6v-0.4c0-0.6,0.3-1,1-1c0.1,0,0.3,0,0.4,0v0.5h-0.3
				C239.2,294,239,294.2,239,294.5z"/>
			<path d="M240,296.7c0-1.2,0.7-1.9,1.8-1.9s1.8,0.7,1.8,1.9c0,1.2-0.7,1.9-1.8,1.9S240,297.8,240,296.7z M242.9,296.7
				c0-0.9-0.5-1.4-1.2-1.4s-1.2,0.5-1.2,1.4c0,0.9,0.5,1.4,1.2,1.4S242.9,297.6,242.9,296.7z"/>
			<path d="M246,294.8v0.5h-0.1c-0.7,0-1.2,0.4-1.2,1.1v2.1h-0.6v-3.6h0.5v0.6c0.2-0.4,0.6-0.7,1.2-0.7
				C245.9,294.8,246,294.8,246,294.8z"/>
			<path d="M251.6,296v2.5H251v-2.4c0-0.6-0.3-0.8-0.8-0.8c-0.5,0-0.9,0.3-0.9,1.2v2h-0.6v-2.4c0-0.6-0.3-0.8-0.8-0.8
				c-0.4,0-0.9,0.3-0.9,1.2v2h-0.6v-3.6h0.5v0.5c0.2-0.4,0.6-0.6,1-0.6c0.6,0,0.9,0.3,1.1,0.7c0.2-0.4,0.6-0.7,1.1-0.7
				C251.2,294.8,251.6,295.3,251.6,296z"/>
			<path d="M255.6,298v0.5c-0.1,0-0.2,0-0.3,0c-0.4,0-0.6-0.2-0.6-0.5c-0.3,0.4-0.7,0.6-1.2,0.6c-0.8,0-1.3-0.4-1.3-1.1
				c0-0.6,0.3-1,1.3-1.1l0.5-0.1c0.4,0,0.6-0.2,0.6-0.5c0-0.4-0.2-0.6-0.8-0.6c-0.6,0-0.9,0.2-0.9,0.7h-0.6c0-0.7,0.4-1.2,1.5-1.2
				c1,0,1.4,0.4,1.4,1.1v2c0,0.1,0.1,0.2,0.2,0.2H255.6z M254.6,297.1v-0.4c-0.1,0.1-0.3,0.1-0.5,0.2l-0.5,0.1
				c-0.7,0.1-0.8,0.3-0.8,0.7c0,0.4,0.2,0.6,0.7,0.6C254.1,298.1,254.6,297.8,254.6,297.1z"/>
			<path d="M256.8,295.4v2.3c0,0.2,0.1,0.3,0.4,0.3h0.3v0.5c-0.2,0-0.3,0-0.4,0c-0.6,0-0.9-0.2-0.9-0.8v-2.4h-0.6v-0.5h0.6v-1h0.6v1
				h0.7v0.5H256.8z"/>
			<path d="M260.3,294.5v0.4h0.8v0.5h-0.8v3.1h-0.6v-3.1h-0.6v-0.5h0.6v-0.4c0-0.6,0.3-1,1-1c0.1,0,0.3,0,0.4,0v0.5h-0.3
				C260.4,294,260.3,294.2,260.3,294.5z"/>
			<path d="M261.2,296.7c0-1.2,0.7-1.9,1.8-1.9s1.8,0.7,1.8,1.9c0,1.2-0.7,1.9-1.8,1.9S261.2,297.8,261.2,296.7z M264.1,296.7
				c0-0.9-0.5-1.4-1.2-1.4s-1.2,0.5-1.2,1.4c0,0.9,0.5,1.4,1.2,1.4S264.1,297.6,264.1,296.7z"/>
			<path d="M267.3,294.8v0.5h-0.1c-0.7,0-1.2,0.4-1.2,1.1v2.1h-0.6v-3.6h0.5v0.6c0.2-0.4,0.6-0.7,1.2-0.7
				C267.1,294.8,267.2,294.8,267.3,294.8z"/>
			<path d="M272.5,294.9v3.5c0,0.9-0.5,1.6-1.7,1.6c-0.9,0-1.5-0.5-1.5-1.2h0.6c0.1,0.5,0.4,0.7,1,0.7c0.7,0,1.1-0.4,1.1-1.1V298
				c-0.3,0.4-0.7,0.6-1.2,0.6c-1,0-1.7-0.7-1.7-1.9c0-1.2,0.7-1.9,1.7-1.9c0.5,0,1,0.2,1.2,0.6v-0.5H272.5z M271.9,296.7
				c0-0.9-0.5-1.4-1.2-1.4s-1.2,0.5-1.2,1.4c0,0.8,0.5,1.4,1.2,1.4S271.9,297.6,271.9,296.7z"/>
			<path d="M276.5,296.9h-2.7c0.1,0.8,0.5,1.2,1.1,1.2c0.5,0,0.8-0.3,1-0.7h0.6c-0.2,0.7-0.7,1.2-1.6,1.2c-1,0-1.7-0.7-1.7-1.9
				c0-1.1,0.7-1.9,1.7-1.9c1.1,0,1.7,0.9,1.7,1.9V296.9z M273.7,296.4h2.1c-0.1-0.6-0.4-1.1-1.1-1.1
				C274.2,295.3,273.8,295.7,273.7,296.4z"/>
			<path d="M280.1,296.1v2.4h-0.6v-2.4c0-0.6-0.3-0.8-0.8-0.8c-0.5,0-1,0.3-1,1.1v2h-0.6v-3.6h0.5v0.5c0.2-0.4,0.6-0.6,1.1-0.6
				C279.6,294.8,280.1,295.3,280.1,296.1z"/>
			<path d="M280.7,296.7c0-1.2,0.7-1.9,1.8-1.9s1.8,0.7,1.8,1.9c0,1.2-0.7,1.9-1.8,1.9S280.7,297.8,280.7,296.7z M283.7,296.7
				c0-0.9-0.5-1.4-1.2-1.4s-1.2,0.5-1.2,1.4c0,0.9,0.5,1.4,1.2,1.4S283.7,297.6,283.7,296.7z"/>
			<path d="M285.5,295.4v2.3c0,0.2,0.1,0.3,0.4,0.3h0.3v0.5c-0.2,0-0.3,0-0.4,0c-0.6,0-0.9-0.2-0.9-0.8v-2.4h-0.6v-0.5h0.6v-1h0.6v1
				h0.7v0.5H285.5z"/>
			<path d="M289.8,294.9l-1.5,4.2c-0.2,0.6-0.6,0.8-1.2,0.8c-0.1,0-0.2,0-0.3,0v-0.5h0.3c0.4,0,0.5-0.2,0.7-0.4
				c0-0.1,0.1-0.2,0.1-0.3l-1.4-3.7h0.6l0.5,1.5c0.2,0.5,0.4,1,0.5,1.6c0.2-0.5,0.3-1,0.5-1.6l0.5-1.5H289.8z"/>
			<path d="M293.6,296.7c0,1.2-0.7,1.9-1.7,1.9c-0.5,0-0.9-0.2-1.2-0.6v1.9h-0.6v-5h0.5v0.6c0.3-0.4,0.7-0.6,1.2-0.6
				C293,294.8,293.6,295.5,293.6,296.7z M293.1,296.7c0-0.9-0.5-1.4-1.2-1.4c-0.7,0-1.2,0.5-1.2,1.4c0,0.9,0.5,1.4,1.2,1.4
				C292.6,298.1,293.1,297.5,293.1,296.7z"/>
			<path d="M297.5,296.9h-2.7c0.1,0.8,0.5,1.2,1.1,1.2c0.5,0,0.8-0.3,1-0.7h0.6c-0.2,0.7-0.7,1.2-1.6,1.2c-1,0-1.7-0.7-1.7-1.9
				c0-1.1,0.7-1.9,1.7-1.9c1.1,0,1.7,0.9,1.7,1.9V296.9z M294.7,296.4h2.1c-0.1-0.6-0.4-1.1-1.1-1.1
				C295.2,295.3,294.8,295.7,294.7,296.4z"/>
			<path d="M302.7,293.5v5h-0.5v-0.6c-0.3,0.4-0.7,0.6-1.2,0.6c-1,0-1.7-0.7-1.7-1.9c0-1.2,0.7-1.9,1.7-1.9c0.5,0,0.9,0.2,1.2,0.6
				v-1.9H302.7z M302.2,296.7c0-0.9-0.5-1.4-1.2-1.4s-1.2,0.5-1.2,1.4c0,0.9,0.5,1.4,1.2,1.4S302.2,297.6,302.2,296.7z"/>
			<path d="M306.7,298v0.5c-0.1,0-0.2,0-0.3,0c-0.4,0-0.6-0.2-0.6-0.5c-0.3,0.4-0.7,0.6-1.2,0.6c-0.8,0-1.3-0.4-1.3-1.1
				c0-0.6,0.3-1,1.3-1.1l0.5-0.1c0.4,0,0.6-0.2,0.6-0.5c0-0.4-0.2-0.6-0.8-0.6s-0.9,0.2-0.9,0.7h-0.6c0-0.7,0.4-1.2,1.5-1.2
				c1,0,1.4,0.4,1.4,1.1v2c0,0.1,0.1,0.2,0.2,0.2H306.7z M305.8,297.1v-0.4c-0.1,0.1-0.3,0.1-0.5,0.2l-0.5,0.1
				c-0.7,0.1-0.8,0.3-0.8,0.7c0,0.4,0.2,0.6,0.7,0.6C305.2,298.1,305.8,297.8,305.8,297.1z"/>
			<path d="M307.9,295.4v2.3c0,0.2,0.1,0.3,0.4,0.3h0.3v0.5c-0.2,0-0.3,0-0.4,0c-0.6,0-0.9-0.2-0.9-0.8v-2.4h-0.6v-0.5h0.6v-1h0.6v1
				h0.7v0.5H307.9z"/>
			<path d="M312.4,298v0.5c-0.1,0-0.2,0-0.3,0c-0.4,0-0.6-0.2-0.6-0.5c-0.3,0.4-0.7,0.6-1.2,0.6c-0.8,0-1.3-0.4-1.3-1.1
				c0-0.6,0.3-1,1.3-1.1l0.5-0.1c0.4,0,0.6-0.2,0.6-0.5c0-0.4-0.2-0.6-0.8-0.6c-0.6,0-0.9,0.2-0.9,0.7h-0.6c0-0.7,0.4-1.2,1.5-1.2
				c1,0,1.4,0.4,1.4,1.1v2c0,0.1,0.1,0.2,0.2,0.2H312.4z M311.4,297.1v-0.4c-0.1,0.1-0.3,0.1-0.5,0.2l-0.5,0.1
				c-0.7,0.1-0.8,0.3-0.8,0.7c0,0.4,0.2,0.6,0.7,0.6C310.8,298.1,311.4,297.8,311.4,297.1z"/>
			<path d="M317.4,298v0.5c-0.1,0-0.2,0-0.3,0c-0.4,0-0.6-0.2-0.6-0.5c-0.3,0.4-0.7,0.6-1.2,0.6c-0.8,0-1.3-0.4-1.3-1.1
				c0-0.6,0.3-1,1.3-1.1l0.5-0.1c0.4,0,0.6-0.2,0.6-0.5c0-0.4-0.2-0.6-0.8-0.6s-0.9,0.2-0.9,0.7h-0.6c0-0.7,0.4-1.2,1.5-1.2
				c1,0,1.4,0.4,1.4,1.1v2c0,0.1,0.1,0.2,0.2,0.2H317.4z M316.4,297.1v-0.4c-0.1,0.1-0.3,0.1-0.5,0.2l-0.5,0.1
				c-0.7,0.1-0.8,0.3-0.8,0.7c0,0.4,0.2,0.6,0.7,0.6C315.8,298.1,316.4,297.8,316.4,297.1z"/>
			<path d="M320.8,296.1v2.4h-0.6v-2.4c0-0.6-0.3-0.8-0.8-0.8c-0.5,0-1,0.3-1,1.1v2h-0.6v-3.6h0.5v0.5c0.2-0.4,0.6-0.6,1.1-0.6
				C320.3,294.8,320.8,295.3,320.8,296.1z"/>
			<path d="M324.9,293.5v5h-0.5v-0.6c-0.3,0.4-0.7,0.6-1.2,0.6c-1,0-1.7-0.7-1.7-1.9c0-1.2,0.7-1.9,1.7-1.9c0.5,0,0.9,0.2,1.2,0.6
				v-1.9H324.9z M324.4,296.7c0-0.9-0.5-1.4-1.2-1.4s-1.2,0.5-1.2,1.4c0,0.9,0.5,1.4,1.2,1.4S324.4,297.6,324.4,296.7z"/>
		</g>
		<g class="st3">
			<path d="M210.2,305.4c0-1.4,0.4-2.6,1-3.4h0.5c-0.7,1.1-0.9,2.1-0.9,3.4c0,1.4,0.3,2.4,0.9,3.4h-0.5
				C210.5,308,210.2,306.8,210.2,305.4z"/>
			<path d="M211.9,306.3h0.6c0.1,0.5,0.3,0.7,1,0.7c0.6,0,0.9-0.2,0.9-0.6c0-0.3-0.2-0.5-0.8-0.6l-0.3-0.1c-0.8-0.1-1.1-0.5-1.1-1.1
				c0-0.6,0.5-1,1.3-1c1,0,1.5,0.4,1.5,1.2h-0.6c0-0.6-0.4-0.7-0.9-0.7c-0.5,0-0.8,0.2-0.8,0.5c0,0.3,0.3,0.5,0.7,0.6l0.3,0.1
				c0.9,0.2,1.2,0.5,1.2,1.1c0,0.7-0.5,1.1-1.4,1.1C212.5,307.6,212,307.2,211.9,306.3z"/>
			<path d="M218.9,305.7c0,1.2-0.7,1.9-1.7,1.9c-0.5,0-0.9-0.2-1.2-0.6v1.9h-0.6v-5h0.5v0.6c0.3-0.4,0.7-0.6,1.2-0.6
				C218.2,303.8,218.9,304.5,218.9,305.7z M218.3,305.7c0-0.9-0.5-1.4-1.2-1.4c-0.7,0-1.2,0.5-1.2,1.4c0,0.9,0.5,1.4,1.2,1.4
				C217.8,307.1,218.3,306.5,218.3,305.7z"/>
			<path d="M222.6,307v0.5c-0.1,0-0.2,0-0.3,0c-0.4,0-0.6-0.2-0.6-0.5c-0.3,0.4-0.7,0.6-1.2,0.6c-0.8,0-1.3-0.4-1.3-1.1
				c0-0.6,0.3-1,1.3-1.1l0.5-0.1c0.4,0,0.6-0.2,0.6-0.5c0-0.4-0.2-0.6-0.8-0.6s-0.9,0.2-0.9,0.7h-0.6c0-0.7,0.4-1.2,1.5-1.2
				c1,0,1.4,0.4,1.4,1.1v2c0,0.1,0.1,0.2,0.2,0.2H222.6z M221.7,306.1v-0.4c-0.1,0.1-0.3,0.1-0.5,0.2l-0.5,0.1
				c-0.7,0.1-0.8,0.3-0.8,0.7c0,0.4,0.2,0.6,0.7,0.6C221.1,307.1,221.7,306.8,221.7,306.1z"/>
			<path d="M223.8,304.4v2.3c0,0.2,0.1,0.3,0.4,0.3h0.3v0.5c-0.2,0-0.3,0-0.4,0c-0.6,0-0.9-0.2-0.9-0.8v-2.4h-0.6v-0.5h0.6v-1h0.6v1
				h0.7v0.5H223.8z"/>
			<path d="M225.2,302.6h0.6v0.7h-0.6V302.6z M225.2,303.9h0.6v3.6h-0.6V303.9z"/>
			<path d="M226.4,305.7c0-1.2,0.7-1.9,1.8-1.9s1.8,0.7,1.8,1.9c0,1.2-0.7,1.9-1.8,1.9S226.4,306.8,226.4,305.7z M229.3,305.7
				c0-0.9-0.5-1.4-1.2-1.4s-1.2,0.5-1.2,1.4c0,0.9,0.5,1.4,1.2,1.4S229.3,306.6,229.3,305.7z"/>
			<path d="M231.2,304.4v2.3c0,0.2,0.1,0.3,0.4,0.3h0.3v0.5c-0.2,0-0.3,0-0.4,0c-0.6,0-0.9-0.2-0.9-0.8v-2.4H230v-0.5h0.6v-1h0.6v1
				h0.7v0.5H231.2z"/>
			<path d="M235.6,305.9h-2.7c0.1,0.8,0.5,1.2,1.1,1.2c0.5,0,0.8-0.3,1-0.7h0.6c-0.2,0.7-0.7,1.2-1.6,1.2c-1,0-1.7-0.7-1.7-1.9
				c0-1.1,0.7-1.9,1.7-1.9c1.1,0,1.7,0.9,1.7,1.9V305.9z M232.9,305.4h2.1c-0.1-0.6-0.4-1.1-1.1-1.1
				C233.4,304.3,233,304.7,232.9,305.4z"/>
			<path d="M241.3,305v2.5h-0.6v-2.4c0-0.6-0.3-0.8-0.8-0.8c-0.5,0-0.9,0.3-0.9,1.2v2h-0.6v-2.4c0-0.6-0.3-0.8-0.8-0.8
				c-0.4,0-0.9,0.3-0.9,1.2v2h-0.6v-3.6h0.5v0.5c0.2-0.4,0.6-0.6,1-0.6c0.6,0,0.9,0.3,1.1,0.7c0.2-0.4,0.6-0.7,1.1-0.7
				C240.9,303.8,241.3,304.3,241.3,305z"/>
			<path d="M245.6,305.7c0,1.2-0.7,1.9-1.7,1.9c-0.5,0-0.9-0.2-1.2-0.6v1.9h-0.6v-5h0.5v0.6c0.3-0.4,0.7-0.6,1.2-0.6
				C244.9,303.8,245.6,304.5,245.6,305.7z M245,305.7c0-0.9-0.5-1.4-1.2-1.4c-0.7,0-1.2,0.5-1.2,1.4c0,0.9,0.5,1.4,1.2,1.4
				C244.6,307.1,245,306.5,245,305.7z"/>
			<path d="M246.1,305.7c0-1.2,0.7-1.9,1.8-1.9s1.8,0.7,1.8,1.9c0,1.2-0.7,1.9-1.8,1.9S246.1,306.8,246.1,305.7z M249,305.7
				c0-0.9-0.5-1.4-1.2-1.4s-1.2,0.5-1.2,1.4c0,0.9,0.5,1.4,1.2,1.4S249,306.6,249,305.7z"/>
			<path d="M252.1,303.8v0.5H252c-0.7,0-1.2,0.4-1.2,1.1v2.1h-0.6v-3.6h0.5v0.6c0.2-0.4,0.6-0.7,1.2-0.7
				C252,303.8,252.1,303.8,252.1,303.8z"/>
			<path d="M255.6,307v0.5c-0.1,0-0.2,0-0.3,0c-0.4,0-0.6-0.2-0.6-0.5c-0.3,0.4-0.7,0.6-1.2,0.6c-0.8,0-1.3-0.4-1.3-1.1
				c0-0.6,0.3-1,1.3-1.1l0.5-0.1c0.4,0,0.6-0.2,0.6-0.5c0-0.4-0.2-0.6-0.8-0.6c-0.6,0-0.9,0.2-0.9,0.7h-0.6c0-0.7,0.4-1.2,1.5-1.2
				c1,0,1.4,0.4,1.4,1.1v2c0,0.1,0.1,0.2,0.2,0.2H255.6z M254.6,306.1v-0.4c-0.1,0.1-0.3,0.1-0.5,0.2l-0.5,0.1
				c-0.7,0.1-0.8,0.3-0.8,0.7c0,0.4,0.2,0.6,0.7,0.6C254.1,307.1,254.6,306.8,254.6,306.1z"/>
			<path d="M256,302.5h0.6v5H256V302.5z"/>
			<path d="M258,305.4c0-1.4-0.3-2.4-0.9-3.4h0.5c0.6,0.8,1,2.1,1,3.4c0,1.4-0.4,2.6-1,3.4h-0.5C257.7,307.8,258,306.8,258,305.4z"
				/>
			<path d="M260.5,305.7c0-1.2,0.7-1.9,1.7-1.9c0.9,0,1.4,0.5,1.6,1.3h-0.6c-0.1-0.5-0.5-0.8-1-0.8c-0.6,0-1.1,0.4-1.1,1.4
				c0,0.9,0.5,1.4,1.1,1.4c0.5,0,0.9-0.3,1-0.8h0.6c-0.1,0.8-0.7,1.3-1.6,1.3C261.2,307.6,260.5,306.9,260.5,305.7z"/>
			<path d="M264.2,305.7c0-1.2,0.7-1.9,1.8-1.9s1.8,0.7,1.8,1.9c0,1.2-0.7,1.9-1.8,1.9S264.2,306.8,264.2,305.7z M267.1,305.7
				c0-0.9-0.5-1.4-1.2-1.4s-1.2,0.5-1.2,1.4c0,0.9,0.5,1.4,1.2,1.4S267.1,306.6,267.1,305.7z"/>
			<path d="M271.3,305.1v2.4h-0.6v-2.4c0-0.6-0.3-0.8-0.8-0.8c-0.5,0-1,0.3-1,1.1v2h-0.6v-3.6h0.5v0.5c0.2-0.4,0.6-0.6,1.1-0.6
				C270.8,303.8,271.3,304.3,271.3,305.1z"/>
			<path d="M272.8,304.4v2.3c0,0.2,0.1,0.3,0.4,0.3h0.3v0.5c-0.2,0-0.3,0-0.4,0c-0.6,0-0.9-0.2-0.9-0.8v-2.4h-0.6v-0.5h0.6v-1h0.6v1
				h0.7v0.5H272.8z"/>
			<path d="M277.2,305.9h-2.7c0.1,0.8,0.5,1.2,1.1,1.2c0.5,0,0.8-0.3,1-0.7h0.6c-0.2,0.7-0.7,1.2-1.6,1.2c-1,0-1.7-0.7-1.7-1.9
				c0-1.1,0.7-1.9,1.7-1.9c1.1,0,1.7,0.9,1.7,1.9V305.9z M274.5,305.4h2.1c-0.1-0.6-0.4-1.1-1.1-1.1
				C275,304.3,274.6,304.7,274.5,305.4z"/>
			<path d="M280.6,307.5H280l-0.2-0.3c-0.3-0.4-0.6-0.8-0.8-1.2c-0.3,0.4-0.6,0.8-0.9,1.2l-0.2,0.3h-0.7l1.4-1.8l-1.3-1.8h0.7
				l0.3,0.4c0.2,0.3,0.5,0.7,0.7,1c0.2-0.3,0.5-0.7,0.7-1l0.3-0.4h0.7l-1.3,1.8L280.6,307.5z"/>
			<path d="M281.9,304.4v2.3c0,0.2,0.1,0.3,0.4,0.3h0.3v0.5c-0.2,0-0.3,0-0.4,0c-0.6,0-0.9-0.2-0.9-0.8v-2.4h-0.6v-0.5h0.6v-1h0.6v1
				h0.7v0.5H281.9z"/>
			<path d="M284.5,302.6h0.6v0.7h-0.6V302.6z M284.6,303.9h0.6v3.6h-0.6V303.9z"/>
			<path d="M288.9,305.1v2.4h-0.6v-2.4c0-0.6-0.3-0.8-0.8-0.8c-0.5,0-1,0.3-1,1.1v2H286v-3.6h0.5v0.5c0.2-0.4,0.6-0.6,1.1-0.6
				C288.4,303.8,288.9,304.3,288.9,305.1z"/>
			<path d="M290.5,303.5v0.4h0.8v0.5h-0.8v3.1H290v-3.1h-0.6v-0.5h0.6v-0.4c0-0.6,0.3-1,1-1c0.1,0,0.3,0,0.4,0v0.5H291
				C290.7,303,290.5,303.2,290.5,303.5z"/>
			<path d="M291.5,305.7c0-1.2,0.7-1.9,1.8-1.9s1.8,0.7,1.8,1.9c0,1.2-0.7,1.9-1.8,1.9S291.5,306.8,291.5,305.7z M294.4,305.7
				c0-0.9-0.5-1.4-1.2-1.4s-1.2,0.5-1.2,1.4c0,0.9,0.5,1.4,1.2,1.4S294.4,306.6,294.4,305.7z"/>
			<path d="M297.5,303.8v0.5h-0.1c-0.7,0-1.2,0.4-1.2,1.1v2.1h-0.6v-3.6h0.5v0.6c0.2-0.4,0.6-0.7,1.2-0.7
				C297.4,303.8,297.5,303.8,297.5,303.8z"/>
			<path d="M303.1,305v2.5h-0.6v-2.4c0-0.6-0.3-0.8-0.8-0.8c-0.5,0-0.9,0.3-0.9,1.2v2h-0.6v-2.4c0-0.6-0.3-0.8-0.8-0.8
				c-0.4,0-0.9,0.3-0.9,1.2v2h-0.6v-3.6h0.5v0.5c0.2-0.4,0.6-0.6,1-0.6c0.6,0,0.9,0.3,1.1,0.7c0.2-0.4,0.6-0.7,1.1-0.7
				C302.7,303.8,303.1,304.3,303.1,305z"/>
			<path d="M307.1,307v0.5c-0.1,0-0.2,0-0.3,0c-0.4,0-0.6-0.2-0.6-0.5c-0.3,0.4-0.7,0.6-1.2,0.6c-0.8,0-1.3-0.4-1.3-1.1
				c0-0.6,0.3-1,1.3-1.1l0.5-0.1c0.4,0,0.6-0.2,0.6-0.5c0-0.4-0.2-0.6-0.8-0.6s-0.9,0.2-0.9,0.7h-0.6c0-0.7,0.4-1.2,1.5-1.2
				c1,0,1.4,0.4,1.4,1.1v2c0,0.1,0.1,0.2,0.2,0.2H307.1z M306.1,306.1v-0.4c-0.1,0.1-0.3,0.1-0.5,0.2l-0.5,0.1
				c-0.7,0.1-0.8,0.3-0.8,0.7c0,0.4,0.2,0.6,0.7,0.6C305.6,307.1,306.1,306.8,306.1,306.1z"/>
			<path d="M308.3,304.4v2.3c0,0.2,0.1,0.3,0.4,0.3h0.3v0.5c-0.2,0-0.3,0-0.4,0c-0.6,0-0.9-0.2-0.9-0.8v-2.4h-0.6v-0.5h0.6v-1h0.6v1
				h0.7v0.5H308.3z"/>
			<path d="M309.6,302.6h0.6v0.7h-0.6V302.6z M309.6,303.9h0.6v3.6h-0.6V303.9z"/>
			<path d="M310.8,305.7c0-1.2,0.7-1.9,1.8-1.9s1.8,0.7,1.8,1.9c0,1.2-0.7,1.9-1.8,1.9S310.8,306.8,310.8,305.7z M313.8,305.7
				c0-0.9-0.5-1.4-1.2-1.4s-1.2,0.5-1.2,1.4c0,0.9,0.5,1.4,1.2,1.4S313.8,306.6,313.8,305.7z"/>
			<path d="M318,305.1v2.4h-0.6v-2.4c0-0.6-0.3-0.8-0.8-0.8c-0.5,0-1,0.3-1,1.1v2H315v-3.6h0.5v0.5c0.2-0.4,0.6-0.6,1.1-0.6
				C317.5,303.8,318,304.3,318,305.1z"/>
		</g>
	</g>
	<path class="st5" d="M362.1,319.1"/>
	<rect x="136.1" y="138.2" class="st6" width="26.4" height="131.5"/>
	<rect x="86.8" y="138.2" class="st6" width="26.4" height="131.5"/>
	<rect x="185.5" y="138.2" class="st6" width="26.4" height="131.5"/>
	<rect x="234.8" y="138.2" class="st6" width="26.4" height="131.5"/>
	<path class="st7" d="M310.5,124.4v145.3h-26.4V124.4l9.6-0.1c0,0-7.7-12,3.3-12s4,12,4,12L310.5,124.4z"/>
	<g class="st3">
		<path class="st8" d="M99.9,221.6v-1.6c0-0.2,0-0.4,0.1-0.5c0.1-0.1,0.2-0.2,0.4-0.2c0.2,0,0.4,0.1,0.5,0.2
			c0.1,0.1,0.1,0.3,0.1,0.5v1.6h1.4c0.4,0,0.7-0.1,0.8-0.2c0.1-0.1,0.2-0.3,0.2-0.6c0-0.3-0.1-0.6-0.2-1s-0.2-0.6-0.2-0.8
			c0-0.1,0.1-0.3,0.2-0.4c0.1-0.1,0.3-0.2,0.4-0.2c0.3,0,0.5,0.2,0.8,0.7c0.2,0.5,0.3,1.1,0.3,1.7c0,0.4,0,0.7-0.2,1
			s-0.2,0.5-0.4,0.7c-0.1,0.1-0.3,0.2-0.5,0.3c-0.2,0-0.5,0.1-1,0.1h-0.1H101v0.5c0,0.2,0,0.4-0.1,0.5c-0.1,0.1-0.2,0.2-0.5,0.2
			s-0.4,0-0.4-0.2s-0.1-0.3-0.1-0.5v-0.5h-1.3c-0.2,0-0.4-0.1-0.5-0.2c-0.1-0.1-0.2-0.3-0.2-0.5s0-0.4,0.2-0.5
			c0.1-0.1,0.3-0.2,0.5-0.2H99.9z"/>
		<path class="st8" d="M101.6,214.8h1.7v-1.3c0-0.2,0-0.4,0.1-0.5c0.1-0.1,0.2-0.2,0.4-0.2c0.2,0,0.4,0.1,0.5,0.2
			c0.1,0.1,0.1,0.3,0.1,0.5v3c0,0.2,0,0.4-0.1,0.5c-0.1,0.1-0.2,0.2-0.5,0.2c-0.2,0-0.4-0.1-0.4-0.2c-0.1-0.1-0.1-0.3-0.1-0.5v-0.4
			h-2.6v0.2c0,0.2,0,0.4-0.1,0.5c-0.1,0.1-0.2,0.2-0.5,0.2c-0.2,0-0.4,0-0.5-0.1c-0.1-0.1-0.1-0.3-0.1-0.5v-1.1c0-0.1,0-0.2,0.1-0.2
			c0-0.1,0.1-0.1,0.2-0.1h0.8c-0.4-0.4-0.7-0.8-0.9-1.1c-0.2-0.3-0.3-0.7-0.3-1.1c0-0.4,0.1-0.6,0.2-0.8s0.4-0.3,0.6-0.3
			c0.2,0,0.4,0.1,0.5,0.2c0.1,0.1,0.2,0.3,0.2,0.6c0,0.2-0.1,0.4-0.2,0.6c-0.1,0.2-0.2,0.4-0.2,0.5c0,0.2,0.1,0.4,0.2,0.6
			S101.3,214.5,101.6,214.8z"/>
		<path class="st8" d="M97.1,208c0-0.3,0-0.4,0.2-0.5s0.3-0.1,0.7-0.1c0.4,0,0.6,0,0.7,0.1c0.1,0.1,0.1,0.3,0.1,0.5
			c0,0.3,0,0.5-0.1,0.5c-0.1,0.1-0.2,0.1-0.5,0.1c-0.5,0-0.8,0-0.9-0.1C97.2,208.5,97.1,208.3,97.1,208z M103.4,207.2v-1.2
			c0-0.2,0-0.4,0.1-0.5c0.1-0.1,0.2-0.2,0.4-0.2c0.2,0,0.4,0.1,0.5,0.2s0.1,0.3,0.1,0.5v3.6c0,0.2,0,0.4-0.1,0.5
			c-0.1,0.1-0.2,0.2-0.5,0.2c-0.2,0-0.4-0.1-0.4-0.2c-0.1-0.1-0.1-0.3-0.1-0.5v-1.2h-2.6v0.6c0,0.2,0,0.4-0.1,0.5
			c-0.1,0.1-0.2,0.2-0.5,0.2c-0.2,0-0.4,0-0.5-0.2c-0.1-0.1-0.1-0.3-0.1-0.5v-1.6c0-0.1,0-0.2,0.1-0.2c0-0.1,0.1-0.1,0.2-0.1H103.4z
			"/>
		<path class="st8" d="M103.4,199.1L103.4,199.1c0-0.3,0-0.4,0.1-0.5c0.1-0.1,0.2-0.1,0.4-0.1c0.2,0,0.4,0.1,0.5,0.2
			s0.1,0.3,0.1,0.5v0.8c0,0.1,0,0.2-0.1,0.2c0,0.1-0.1,0.1-0.2,0.1h-0.4c0.2,0.2,0.4,0.4,0.6,0.7s0.2,0.6,0.2,0.9
			c0,0.7-0.2,1.3-0.7,1.8c-0.5,0.5-1.1,0.7-1.8,0.7c-0.7,0-1.4-0.2-1.9-0.7c-0.5-0.5-0.7-1.1-0.7-1.8c0-0.3,0-0.5,0.1-0.7
			c0.1-0.2,0.2-0.5,0.4-0.7h-1.4v0.7c0,0.2,0,0.4-0.1,0.5c-0.1,0.1-0.2,0.2-0.5,0.2c-0.2,0-0.4-0.1-0.5-0.2
			c-0.1-0.1-0.1-0.3-0.1-0.5v-1.7c0-0.1,0-0.2,0.1-0.2c0,0,0.1-0.1,0.3-0.1H103.4z M100.7,201.6c0,0.4,0.1,0.6,0.4,0.9
			c0.3,0.2,0.6,0.3,1,0.3c0.4,0,0.8-0.1,1-0.3c0.3-0.2,0.4-0.5,0.4-0.9s-0.1-0.6-0.4-0.9c-0.3-0.2-0.6-0.3-1-0.3
			c-0.4,0-0.7,0.1-1,0.3C100.8,201,100.7,201.3,100.7,201.6z"/>
		<path class="st8" d="M102.4,196.2c0.4-0.1,0.7-0.3,0.9-0.5c0.2-0.3,0.3-0.6,0.3-1.1c0-0.4-0.1-0.9-0.3-1.3s-0.3-0.7-0.3-0.8
			c0-0.1,0-0.2,0.1-0.3s0.2-0.1,0.4-0.1c0.3,0,0.6,0.2,0.9,0.7c0.2,0.5,0.4,1.1,0.4,1.8c0,0.9-0.2,1.6-0.7,2.1
			c-0.5,0.5-1.1,0.8-1.9,0.8c-0.8,0-1.4-0.3-1.9-0.8c-0.5-0.5-0.7-1.2-0.7-2.1c0-0.8,0.2-1.4,0.7-1.9c0.5-0.5,1-0.8,1.7-0.8
			c0.2,0,0.4,0.1,0.4,0.2c0.1,0.1,0.1,0.3,0.1,0.6V196.2z M101.5,193.4c-0.3,0.1-0.6,0.2-0.8,0.5c-0.2,0.3-0.3,0.6-0.3,1
			c0,0.4,0.1,0.7,0.3,0.9c0.2,0.2,0.4,0.4,0.8,0.5V193.4z"/>
		<path class="st8" d="M103.3,185.9L103.3,185.9c0-0.3,0-0.4,0.1-0.5s0.2-0.2,0.4-0.2c0.2,0,0.4,0.1,0.5,0.2s0.1,0.3,0.1,0.5v1.3
			c0,0.2,0,0.4-0.1,0.5s-0.2,0.2-0.5,0.2c-0.2,0-0.3-0.1-0.4-0.2s-0.1-0.3-0.1-0.5v-0.1h-1.6c-0.4,0-0.7,0.1-0.9,0.2
			c-0.2,0.1-0.3,0.3-0.3,0.6c0,0.3,0.1,0.5,0.3,0.7s0.5,0.3,0.9,0.3h1.6V189c0-0.2,0-0.4,0.1-0.5c0.1-0.1,0.2-0.2,0.4-0.2
			c0.2,0,0.4,0.1,0.5,0.2s0.1,0.3,0.1,0.5v1.3c0,0.2,0,0.4-0.1,0.5s-0.2,0.2-0.5,0.2c-0.2,0-0.3,0-0.4-0.2c-0.1-0.1-0.1-0.3-0.1-0.5
			v-0.1h-2.6v0.1c0,0.2,0,0.3-0.1,0.4c-0.1,0.1-0.2,0.2-0.4,0.2c-0.2,0-0.4-0.1-0.5-0.2s-0.1-0.3-0.1-0.5v-0.9c0-0.1,0-0.2,0.1-0.2
			c0-0.1,0.1-0.1,0.2-0.1h0.4c-0.3-0.2-0.5-0.4-0.6-0.6s-0.2-0.6-0.2-0.9c0-0.6,0.2-1,0.5-1.3c0.3-0.3,0.9-0.4,1.6-0.4H103.3z"/>
		<path class="st8" d="M99.9,182v-1.6c0-0.2,0-0.4,0.1-0.5c0.1-0.1,0.2-0.2,0.4-0.2c0.2,0,0.4,0.1,0.5,0.2c0.1,0.1,0.1,0.3,0.1,0.5
			v1.6h1.4c0.4,0,0.7-0.1,0.8-0.2c0.1-0.1,0.2-0.3,0.2-0.6c0-0.3-0.1-0.6-0.2-1s-0.2-0.6-0.2-0.8c0-0.1,0.1-0.3,0.2-0.4
			s0.3-0.2,0.4-0.2c0.3,0,0.5,0.2,0.8,0.7c0.2,0.5,0.3,1.1,0.3,1.7c0,0.4,0,0.7-0.2,1s-0.2,0.5-0.4,0.7c-0.1,0.1-0.3,0.2-0.5,0.3
			c-0.2,0.1-0.5,0.1-1,0.1h-0.1H101v0.5c0,0.2,0,0.4-0.1,0.5c-0.1,0.1-0.2,0.2-0.5,0.2s-0.4-0.1-0.4-0.2s-0.1-0.3-0.1-0.5v-0.5h-1.3
			c-0.2,0-0.4-0.1-0.5-0.2c-0.1-0.1-0.2-0.3-0.2-0.5s0-0.4,0.2-0.5c0.1-0.1,0.3-0.2,0.5-0.2H99.9z"/>
	</g>
	<g class="st3">
		<path class="st8" d="M148.1,218.4l0.7-0.6l-0.7-0.6c0,0.1,0,0.2-0.1,0.3c-0.1,0.1-0.2,0.1-0.4,0.1c-0.2,0-0.3,0-0.4-0.1
			c-0.1-0.1-0.1-0.2-0.1-0.4v-1.1c0-0.2,0-0.4,0.1-0.5c0.1-0.1,0.2-0.2,0.5-0.2c0.2,0,0.3,0.1,0.4,0.2c0.1,0.1,0.1,0.3,0.1,0.5v0.2
			l1.2,1.1l1.4-1.3v-0.1c0-0.2,0-0.4,0.1-0.5s0.2-0.2,0.4-0.2c0.2,0,0.4,0.1,0.5,0.2c0.1,0.1,0.1,0.3,0.1,0.5v1.3
			c0,0.2,0,0.3-0.1,0.4c-0.1,0.1-0.2,0.1-0.4,0.1c-0.2,0-0.3,0-0.4-0.1s-0.1-0.1-0.1-0.3v0l-0.8,0.7l0.8,0.7v0c0-0.1,0-0.2,0.1-0.3
			c0.1-0.1,0.2-0.1,0.4-0.1c0.2,0,0.3,0,0.4,0.1s0.1,0.2,0.1,0.4v1.1c0,0.2,0,0.4-0.1,0.5c-0.1,0.1-0.2,0.2-0.5,0.2
			c-0.2,0-0.3,0-0.4-0.1s-0.1-0.2-0.1-0.4v-0.1l-1.3-1.3l-1.3,1.2v0.2c0,0.2,0,0.4-0.1,0.5s-0.2,0.2-0.4,0.2c-0.2,0-0.4-0.1-0.5-0.2
			s-0.1-0.3-0.1-0.5v-1.3c0-0.2,0-0.3,0.1-0.4c0.1-0.1,0.2-0.1,0.4-0.1c0.2,0,0.3,0,0.4,0.1C148.1,218.2,148.1,218.3,148.1,218.4z"
			/>
		<path class="st8" d="M149.9,212.8c0.4-0.1,0.7-0.3,0.9-0.5c0.2-0.3,0.3-0.6,0.3-1.1s-0.1-0.9-0.3-1.3c-0.2-0.4-0.3-0.7-0.3-0.8
			c0-0.1,0-0.2,0.1-0.3c0.1-0.1,0.2-0.1,0.4-0.1c0.3,0,0.6,0.2,0.9,0.7c0.2,0.5,0.4,1.1,0.4,1.8c0,0.9-0.2,1.6-0.7,2.1
			c-0.5,0.5-1.1,0.8-1.9,0.8c-0.8,0-1.4-0.3-1.9-0.8s-0.7-1.2-0.7-2.1c0-0.8,0.2-1.4,0.7-1.9c0.5-0.5,1-0.8,1.7-0.8
			c0.2,0,0.4,0.1,0.4,0.2c0.1,0.1,0.1,0.3,0.1,0.6V212.8z M149,209.9c-0.3,0.1-0.6,0.2-0.8,0.5c-0.2,0.3-0.3,0.6-0.3,1
			c0,0.4,0.1,0.7,0.3,0.9s0.4,0.4,0.8,0.5V209.9z"/>
		<path class="st8" d="M149.1,204.9h1.7v-1.3c0-0.2,0-0.4,0.1-0.5c0.1-0.1,0.2-0.2,0.4-0.2c0.2,0,0.4,0.1,0.5,0.2
			c0.1,0.1,0.1,0.3,0.1,0.5v3c0,0.2,0,0.4-0.1,0.5s-0.2,0.2-0.5,0.2c-0.2,0-0.4-0.1-0.4-0.2s-0.1-0.3-0.1-0.5v-0.4h-2.6v0.2
			c0,0.2,0,0.4-0.1,0.5c-0.1,0.1-0.2,0.2-0.5,0.2c-0.2,0-0.4,0-0.5-0.1c-0.1-0.1-0.1-0.3-0.1-0.5v-1.1c0-0.1,0-0.2,0.1-0.2
			s0.1-0.1,0.2-0.1h0.8c-0.4-0.4-0.7-0.8-0.9-1.1c-0.2-0.3-0.3-0.7-0.3-1.1c0-0.4,0.1-0.6,0.2-0.8c0.2-0.2,0.4-0.3,0.6-0.3
			c0.2,0,0.4,0.1,0.5,0.2c0.1,0.1,0.2,0.3,0.2,0.6c0,0.2-0.1,0.4-0.2,0.6c-0.1,0.2-0.2,0.4-0.2,0.5c0,0.2,0.1,0.4,0.2,0.6
			C148.6,204.3,148.8,204.6,149.1,204.9z"/>
		<path class="st8" d="M148.1,198.6l0.7-0.6l-0.7-0.6c0,0.1,0,0.2-0.1,0.3s-0.2,0.1-0.4,0.1c-0.2,0-0.3,0-0.4-0.1
			c-0.1-0.1-0.1-0.2-0.1-0.4v-1.1c0-0.2,0-0.4,0.1-0.5s0.2-0.2,0.5-0.2c0.2,0,0.3,0.1,0.4,0.2c0.1,0.1,0.1,0.3,0.1,0.5v0.2l1.2,1.1
			l1.4-1.3v-0.1c0-0.2,0-0.4,0.1-0.5c0.1-0.1,0.2-0.2,0.4-0.2c0.2,0,0.4,0.1,0.5,0.2c0.1,0.1,0.1,0.3,0.1,0.5v1.3
			c0,0.2,0,0.3-0.1,0.4c-0.1,0.1-0.2,0.1-0.4,0.1c-0.2,0-0.3,0-0.4-0.1c-0.1-0.1-0.1-0.1-0.1-0.3v0l-0.8,0.7l0.8,0.7v0
			c0-0.1,0-0.2,0.1-0.3c0.1-0.1,0.2-0.1,0.4-0.1c0.2,0,0.3,0,0.4,0.1s0.1,0.2,0.1,0.4v1.1c0,0.2,0,0.4-0.1,0.5
			c-0.1,0.1-0.2,0.2-0.5,0.2c-0.2,0-0.3,0-0.4-0.1c-0.1-0.1-0.1-0.2-0.1-0.4v-0.1l-1.3-1.3l-1.3,1.2v0.2c0,0.2,0,0.4-0.1,0.5
			s-0.2,0.2-0.4,0.2c-0.2,0-0.4-0.1-0.5-0.2s-0.1-0.3-0.1-0.5v-1.3c0-0.2,0-0.3,0.1-0.4c0.1-0.1,0.2-0.1,0.4-0.1
			c0.2,0,0.3,0,0.4,0.1C148.1,198.4,148.1,198.5,148.1,198.6z"/>
		<path class="st8" d="M149.9,192.9c0.4-0.1,0.7-0.3,0.9-0.5c0.2-0.3,0.3-0.6,0.3-1.1c0-0.4-0.1-0.9-0.3-1.3s-0.3-0.7-0.3-0.8
			c0-0.1,0-0.2,0.1-0.3s0.2-0.1,0.4-0.1c0.3,0,0.6,0.2,0.9,0.7c0.2,0.5,0.4,1.1,0.4,1.8c0,0.9-0.2,1.6-0.7,2.1
			c-0.5,0.5-1.1,0.8-1.9,0.8c-0.8,0-1.4-0.3-1.9-0.8c-0.5-0.5-0.7-1.2-0.7-2.1c0-0.8,0.2-1.4,0.7-1.9c0.5-0.5,1-0.8,1.7-0.8
			c0.2,0,0.4,0.1,0.4,0.2c0.1,0.1,0.1,0.3,0.1,0.6V192.9z M149,190.1c-0.3,0.1-0.6,0.2-0.8,0.5c-0.2,0.3-0.3,0.6-0.3,1
			c0,0.4,0.1,0.7,0.3,0.9c0.2,0.2,0.4,0.4,0.8,0.5V190.1z"/>
		<path class="st8" d="M152,186.3c0.1,0.1,0.1,0.2,0.2,0.3c0,0.1,0.1,0.2,0.1,0.3c0,0.2,0,0.3-0.1,0.3s-0.2,0.1-0.5,0.1h-0.7
			c-0.2,0-0.4,0-0.5-0.1c-0.1-0.1-0.1-0.2-0.1-0.4c0-0.2,0.1-0.4,0.3-0.5c0.1-0.1,0.2-0.1,0.2-0.2c0.2-0.2,0.3-0.4,0.4-0.6
			c0.1-0.2,0.1-0.5,0.1-0.8c0-0.3,0-0.5-0.2-0.6c-0.1-0.2-0.2-0.2-0.4-0.2c-0.3,0-0.5,0.4-0.6,1.2c0,0.2,0,0.3-0.1,0.4
			c-0.1,0.6-0.3,1.1-0.5,1.4c-0.3,0.3-0.6,0.5-1,0.5c-0.5,0-0.9-0.2-1.2-0.5c-0.3-0.4-0.4-0.9-0.4-1.6c0-0.2,0-0.5,0.1-0.7
			c0-0.2,0.1-0.5,0.2-0.8c-0.1-0.1-0.2-0.2-0.2-0.2c0-0.1-0.1-0.2-0.1-0.3c0-0.1,0-0.3,0.1-0.3c0.1-0.1,0.2-0.1,0.4-0.1h0.7
			c0.2,0,0.3,0,0.4,0.1c0.1,0.1,0.1,0.2,0.1,0.3c0,0.1-0.1,0.4-0.4,0.8c-0.3,0.4-0.4,0.7-0.4,1.1c0,0.3,0,0.5,0.1,0.7
			c0.1,0.2,0.2,0.2,0.4,0.2c0.3,0,0.4-0.3,0.5-1c0-0.2,0-0.3,0.1-0.4c0.1-0.8,0.3-1.4,0.5-1.7s0.6-0.5,1-0.5c0.5,0,1,0.2,1.3,0.6
			c0.3,0.4,0.4,1,0.4,1.7c0,0.3,0,0.6-0.1,0.8C152.1,185.8,152,186.1,152,186.3z"/>
	</g>
	<g class="st3">
		<path class="st8" d="M197.3,216.7h-0.4c-0.1,0-0.1,0-0.2-0.1c0-0.1-0.1-0.1-0.1-0.2v-0.8c0-0.2,0-0.4,0.1-0.5
			c0.1-0.1,0.2-0.2,0.4-0.2c0.2,0,0.3,0,0.4,0.1c0.1,0.1,0.2,0.2,0.2,0.4v0.1h4.7v-0.3c0-0.2,0-0.4,0.1-0.5s0.2-0.2,0.5-0.2
			c0.2,0,0.4,0.1,0.4,0.2c0.1,0.1,0.1,0.3,0.1,0.5v2.3c0,0.2,0,0.4-0.1,0.5c-0.1,0.1-0.2,0.2-0.4,0.2c-0.2,0-0.4-0.1-0.5-0.2
			c-0.1-0.1-0.1-0.3-0.1-0.5v-0.7h-1.5c0.2,0.2,0.3,0.4,0.4,0.7c0.1,0.3,0.1,0.5,0.1,0.8c0,0.7-0.2,1.3-0.7,1.8
			c-0.5,0.5-1.1,0.7-1.8,0.7c-0.7,0-1.3-0.2-1.8-0.7c-0.5-0.5-0.7-1.1-0.7-1.8c0-0.3,0.1-0.6,0.2-0.9
			C196.8,217.1,197,216.9,197.3,216.7z M197.7,218.1c0,0.4,0.1,0.6,0.4,0.9s0.6,0.3,1,0.3s0.7-0.1,1-0.3s0.4-0.5,0.4-0.9
			c0-0.4-0.1-0.6-0.4-0.9c-0.3-0.2-0.6-0.3-1-0.3c-0.4,0-0.7,0.1-1,0.3C197.8,217.5,197.7,217.8,197.7,218.1z"/>
		<path class="st8" d="M194.2,210.9c0-0.3,0-0.4,0.2-0.5s0.3-0.1,0.7-0.1c0.4,0,0.6,0,0.7,0.1c0.1,0.1,0.1,0.3,0.1,0.5
			c0,0.3,0,0.5-0.1,0.5c-0.1,0.1-0.2,0.1-0.5,0.1c-0.5,0-0.8,0-0.9-0.1C194.3,211.4,194.2,211.2,194.2,210.9z M197.8,211.2v1.8
			c0,0.2,0,0.4-0.1,0.5c-0.1,0.1-0.2,0.2-0.5,0.2c-0.2,0-0.4-0.1-0.5-0.2c-0.1-0.1-0.1-0.3-0.1-0.5v-2.8c0-0.1,0-0.2,0.1-0.2
			s0.1-0.1,0.2-0.1h4.6c0.7,0,1.3,0.2,1.7,0.6c0.4,0.4,0.6,1,0.6,1.8c0,0.6-0.1,1-0.2,1.2c-0.1,0.2-0.3,0.4-0.6,0.4
			c-0.2,0-0.3,0-0.4-0.1s-0.1-0.2-0.1-0.4c0-0.1,0-0.2,0.1-0.5c0-0.3,0.1-0.5,0.1-0.6c0-0.4-0.1-0.6-0.3-0.8
			c-0.2-0.1-0.6-0.2-1.3-0.2H197.8z"/>
		<path class="st8" d="M200.4,202.5L200.4,202.5c0-0.3,0.1-0.4,0.2-0.5c0.1-0.1,0.2-0.2,0.4-0.2c0.2,0,0.4,0.1,0.4,0.2
			c0.1,0.1,0.1,0.3,0.1,0.5v0.5c0,0.2,0,0.3-0.1,0.4c-0.1,0.1-0.2,0.2-0.4,0.2c0.2,0.3,0.3,0.6,0.5,0.9c0.1,0.3,0.2,0.7,0.2,1
			c0,0.6-0.1,1-0.4,1.4c-0.3,0.3-0.7,0.5-1.2,0.5c-0.5,0-1-0.2-1.3-0.6c-0.3-0.4-0.4-1-0.4-1.8c0-0.2,0-0.4,0-0.5
			c0-0.2,0-0.4,0.1-0.7h-0.1c-0.3,0-0.6,0.1-0.7,0.2c-0.2,0.2-0.3,0.4-0.3,0.7c0,0.2,0.1,0.5,0.3,0.9c0.2,0.4,0.3,0.6,0.3,0.8
			c0,0.2,0,0.3-0.1,0.4c-0.1,0.1-0.2,0.2-0.4,0.2c-0.3,0-0.5-0.2-0.7-0.6c-0.2-0.4-0.3-1-0.3-1.7c0-0.8,0.1-1.3,0.4-1.6
			s0.8-0.5,1.5-0.5H200.4z M199.4,203.8c0,0.2-0.1,0.3-0.1,0.5s0,0.3,0,0.4c0,0.4,0.1,0.7,0.2,0.9c0.1,0.2,0.3,0.3,0.5,0.3
			c0.2,0,0.4-0.1,0.5-0.2c0.1-0.1,0.2-0.3,0.2-0.6c0-0.2,0-0.5-0.1-0.7s-0.2-0.4-0.3-0.6H199.4z"/>
		<path class="st8" d="M200.4,195.8L200.4,195.8c0-0.3,0-0.4,0.1-0.5s0.2-0.2,0.4-0.2c0.2,0,0.4,0.1,0.5,0.2
			c0.1,0.1,0.1,0.3,0.1,0.5v1.3c0,0.2,0,0.4-0.1,0.5c-0.1,0.1-0.2,0.2-0.5,0.2c-0.2,0-0.3-0.1-0.4-0.2c-0.1-0.1-0.1-0.3-0.1-0.5
			v-0.1h-1.6c-0.4,0-0.7,0.1-0.9,0.2c-0.2,0.1-0.3,0.3-0.3,0.6c0,0.3,0.1,0.5,0.3,0.7c0.2,0.2,0.5,0.3,0.9,0.3h1.6v-0.1
			c0-0.2,0-0.4,0.1-0.5c0.1-0.1,0.2-0.2,0.4-0.2c0.2,0,0.4,0.1,0.5,0.2s0.1,0.3,0.1,0.5v1.3c0,0.2,0,0.4-0.1,0.5s-0.2,0.2-0.5,0.2
			c-0.2,0-0.3-0.1-0.4-0.2c-0.1-0.1-0.1-0.3-0.1-0.5v-0.1h-2.6v0.1c0,0.2,0,0.3-0.1,0.4c-0.1,0.1-0.2,0.2-0.4,0.2
			c-0.2,0-0.4-0.1-0.5-0.2s-0.1-0.3-0.1-0.5v-0.9c0-0.1,0-0.2,0.1-0.2c0-0.1,0.1-0.1,0.2-0.1h0.4c-0.3-0.2-0.5-0.4-0.6-0.6
			c-0.1-0.3-0.2-0.6-0.2-0.9c0-0.6,0.2-1,0.5-1.3c0.3-0.3,0.9-0.4,1.6-0.4H200.4z"/>
		<path class="st8" d="M200.4,189.2L200.4,189.2c0-0.3,0-0.4,0.1-0.5c0.1-0.1,0.2-0.2,0.4-0.2c0.2,0,0.4,0.1,0.5,0.2
			c0.1,0.1,0.1,0.3,0.1,0.5v1.3c0,0.2,0,0.4-0.1,0.5s-0.2,0.2-0.5,0.2c-0.2,0-0.3-0.1-0.4-0.2c-0.1-0.1-0.1-0.3-0.1-0.5v-0.1h-1.6
			c-0.4,0-0.7,0.1-0.9,0.2s-0.3,0.3-0.3,0.6c0,0.3,0.1,0.5,0.3,0.7c0.2,0.2,0.5,0.3,0.9,0.3h1.6v-0.1c0-0.2,0-0.4,0.1-0.5
			s0.2-0.2,0.4-0.2c0.2,0,0.4,0.1,0.5,0.2c0.1,0.1,0.1,0.3,0.1,0.5v1.3c0,0.2,0,0.4-0.1,0.5c-0.1,0.1-0.2,0.2-0.5,0.2
			c-0.2,0-0.3-0.1-0.4-0.2s-0.1-0.3-0.1-0.5v-0.1h-2.6v0.1c0,0.2,0,0.3-0.1,0.4s-0.2,0.2-0.4,0.2c-0.2,0-0.4-0.1-0.5-0.2
			c-0.1-0.1-0.1-0.3-0.1-0.5v-0.9c0-0.1,0-0.2,0.1-0.2c0-0.1,0.1-0.1,0.2-0.1h0.4c-0.3-0.2-0.5-0.4-0.6-0.6s-0.2-0.6-0.2-0.9
			c0-0.6,0.2-1,0.5-1.3c0.3-0.3,0.9-0.4,1.6-0.4H200.4z"/>
		<path class="st8" d="M196.5,184.9c0-0.9,0.2-1.6,0.7-2.1c0.5-0.5,1.1-0.8,1.9-0.8c0.8,0,1.4,0.3,1.9,0.8c0.5,0.5,0.7,1.2,0.7,2.1
			c0,0.9-0.2,1.6-0.7,2.1c-0.5,0.5-1.1,0.8-1.9,0.8c-0.8,0-1.4-0.3-1.9-0.8C196.8,186.5,196.5,185.7,196.5,184.9z M197.7,184.9
			c0,0.4,0.1,0.8,0.4,1c0.3,0.3,0.6,0.4,1.1,0.4c0.4,0,0.8-0.1,1.1-0.4c0.3-0.3,0.4-0.6,0.4-1c0-0.4-0.1-0.8-0.4-1s-0.6-0.4-1.1-0.4
			c-0.4,0-0.8,0.1-1.1,0.4C197.8,184.1,197.7,184.5,197.7,184.9z"/>
	</g>
	<g class="st3">
		<path class="st8" d="M243.6,227.4c0-0.3,0-0.4,0.2-0.5c0.1-0.1,0.3-0.1,0.7-0.1c0.4,0,0.6,0,0.7,0.1s0.1,0.3,0.1,0.5
			c0,0.3,0,0.5-0.1,0.5s-0.2,0.1-0.5,0.1c-0.5,0-0.8,0-0.9-0.1C243.7,227.9,243.6,227.7,243.6,227.4z M247.2,227.7v1.8
			c0,0.2,0,0.4-0.1,0.5c-0.1,0.1-0.2,0.2-0.5,0.2c-0.2,0-0.4-0.1-0.5-0.2c-0.1-0.1-0.1-0.3-0.1-0.5v-2.8c0-0.1,0-0.2,0.1-0.2
			c0-0.1,0.1-0.1,0.2-0.1h4.6c0.7,0,1.3,0.2,1.7,0.6c0.4,0.4,0.6,1,0.6,1.8c0,0.6-0.1,1-0.2,1.2c-0.1,0.2-0.3,0.4-0.6,0.4
			c-0.2,0-0.3,0-0.4-0.1c-0.1-0.1-0.1-0.2-0.1-0.4c0-0.1,0-0.2,0.1-0.5c0-0.3,0.1-0.5,0.1-0.6c0-0.4-0.1-0.6-0.3-0.8
			c-0.2-0.1-0.6-0.2-1.3-0.2H247.2z"/>
		<path class="st8" d="M249.8,219L249.8,219c0-0.3,0.1-0.4,0.2-0.5c0.1-0.1,0.2-0.2,0.4-0.2c0.2,0,0.4,0.1,0.4,0.2
			c0.1,0.1,0.1,0.3,0.1,0.5v0.5c0,0.2,0,0.3-0.1,0.4c-0.1,0.1-0.2,0.2-0.4,0.2c0.2,0.3,0.3,0.6,0.5,0.9s0.2,0.7,0.2,1
			c0,0.6-0.1,1-0.4,1.4c-0.3,0.3-0.7,0.5-1.2,0.5c-0.5,0-1-0.2-1.3-0.6c-0.3-0.4-0.4-1-0.4-1.8c0-0.2,0-0.4,0-0.5
			c0-0.2,0-0.4,0.1-0.6h-0.1c-0.3,0-0.6,0.1-0.7,0.2c-0.2,0.2-0.3,0.4-0.3,0.7c0,0.2,0.1,0.5,0.3,0.9c0.2,0.4,0.3,0.6,0.3,0.8
			c0,0.2,0,0.3-0.1,0.4s-0.2,0.2-0.4,0.2c-0.3,0-0.5-0.2-0.7-0.6s-0.3-1-0.3-1.7c0-0.8,0.1-1.3,0.4-1.6c0.3-0.3,0.8-0.5,1.5-0.5
			H249.8z M248.8,220.3c0,0.2-0.1,0.3-0.1,0.5s0,0.3,0,0.4c0,0.4,0.1,0.7,0.2,0.9c0.1,0.2,0.3,0.3,0.5,0.3c0.2,0,0.4-0.1,0.5-0.2
			s0.2-0.3,0.2-0.6c0-0.2,0-0.5-0.1-0.7c-0.1-0.2-0.2-0.4-0.3-0.6H248.8z"/>
		<path class="st8" d="M249.8,212.3L249.8,212.3c0-0.3,0-0.4,0.1-0.5c0.1-0.1,0.2-0.2,0.4-0.2c0.2,0,0.4,0.1,0.5,0.2
			c0.1,0.1,0.1,0.3,0.1,0.5v1.3c0,0.2,0,0.4-0.1,0.5c-0.1,0.1-0.2,0.2-0.5,0.2c-0.2,0-0.3-0.1-0.4-0.2c-0.1-0.1-0.1-0.3-0.1-0.5
			v-0.1h-1.6c-0.4,0-0.7,0.1-0.9,0.2c-0.2,0.1-0.3,0.3-0.3,0.6c0,0.3,0.1,0.5,0.3,0.7c0.2,0.2,0.5,0.3,0.9,0.3h1.6v-0.1
			c0-0.2,0-0.4,0.1-0.5s0.2-0.2,0.4-0.2c0.2,0,0.4,0.1,0.5,0.2c0.1,0.1,0.1,0.3,0.1,0.5v1.3c0,0.2,0,0.4-0.1,0.5
			c-0.1,0.1-0.2,0.2-0.5,0.2c-0.2,0-0.3,0-0.4-0.2s-0.1-0.3-0.1-0.5v-0.1h-2.6v0.1c0,0.2,0,0.3-0.1,0.4s-0.2,0.2-0.4,0.2
			c-0.2,0-0.4-0.1-0.5-0.2c-0.1-0.1-0.1-0.3-0.1-0.5v-0.9c0-0.1,0-0.2,0.1-0.2c0-0.1,0.1-0.1,0.2-0.1h0.4c-0.3-0.2-0.5-0.4-0.6-0.6
			c-0.1-0.3-0.2-0.6-0.2-0.9c0-0.6,0.2-1,0.5-1.3c0.3-0.3,0.9-0.4,1.6-0.4H249.8z"/>
		<path class="st8" d="M249.8,205.7L249.8,205.7c0-0.3,0-0.4,0.1-0.5s0.2-0.2,0.4-0.2c0.2,0,0.4,0.1,0.5,0.2
			c0.1,0.1,0.1,0.3,0.1,0.5v1.3c0,0.2,0,0.4-0.1,0.5c-0.1,0.1-0.2,0.2-0.5,0.2c-0.2,0-0.3-0.1-0.4-0.2c-0.1-0.1-0.1-0.3-0.1-0.5
			v-0.1h-1.6c-0.4,0-0.7,0.1-0.9,0.2c-0.2,0.1-0.3,0.3-0.3,0.6c0,0.3,0.1,0.5,0.3,0.7c0.2,0.2,0.5,0.3,0.9,0.3h1.6v-0.1
			c0-0.2,0-0.4,0.1-0.5c0.1-0.1,0.2-0.2,0.4-0.2c0.2,0,0.4,0.1,0.5,0.2s0.1,0.3,0.1,0.5v1.3c0,0.2,0,0.4-0.1,0.5s-0.2,0.2-0.5,0.2
			c-0.2,0-0.3-0.1-0.4-0.2c-0.1-0.1-0.1-0.3-0.1-0.5v-0.1h-2.6v0.1c0,0.2,0,0.3-0.1,0.4c-0.1,0.1-0.2,0.2-0.4,0.2
			c-0.2,0-0.4-0.1-0.5-0.2s-0.1-0.3-0.1-0.5v-0.9c0-0.1,0-0.2,0.1-0.2c0-0.1,0.1-0.1,0.2-0.1h0.4c-0.3-0.2-0.5-0.4-0.6-0.6
			c-0.1-0.3-0.2-0.6-0.2-0.9c0-0.6,0.2-1,0.5-1.3c0.3-0.3,0.9-0.4,1.6-0.4H249.8z"/>
		<path class="st8" d="M245.9,201.4c0-0.9,0.2-1.6,0.7-2.1s1.1-0.8,1.9-0.8c0.8,0,1.4,0.3,1.9,0.8c0.5,0.5,0.7,1.2,0.7,2.1
			c0,0.9-0.2,1.6-0.7,2.1c-0.5,0.5-1.1,0.8-1.9,0.8c-0.8,0-1.4-0.3-1.9-0.8C246.2,203,245.9,202.3,245.9,201.4z M247.1,201.4
			c0,0.4,0.1,0.8,0.4,1c0.3,0.3,0.6,0.4,1.1,0.4c0.4,0,0.8-0.1,1.1-0.4s0.4-0.6,0.4-1s-0.1-0.8-0.4-1c-0.3-0.3-0.6-0.4-1.1-0.4
			c-0.4,0-0.8,0.1-1.1,0.4C247.2,200.6,247.1,201,247.1,201.4z"/>
		<path class="st8" d="M244.4,186.8c0-0.1,0-0.1,0.1-0.2s0.1-0.1,0.2-0.1c0.1,0,0.3,0.1,0.6,0.3c0.2,0.1,0.4,0.2,0.5,0.3
			c0.5,0.3,1,0.5,1.5,0.6s1,0.2,1.5,0.2c0.5,0,0.9-0.1,1.4-0.2c0.4-0.1,0.9-0.3,1.3-0.5c0.2-0.1,0.5-0.3,0.8-0.5
			c0.3-0.2,0.5-0.3,0.6-0.3c0.1,0,0.1,0,0.2,0.1c0,0,0.1,0.1,0.1,0.2c0,0.1-0.1,0.3-0.2,0.5c-0.1,0.2-0.3,0.4-0.5,0.6
			c-0.5,0.5-1.1,0.9-1.7,1.1c-0.6,0.2-1.2,0.4-1.9,0.4c-0.6,0-1.2-0.1-1.7-0.3s-1.1-0.5-1.6-0.9c-0.3-0.3-0.6-0.5-0.8-0.7
			C244.5,187.1,244.4,186.9,244.4,186.8z"/>
		<path class="st8" d="M248.1,180.2c0.1-0.1,0.2-0.2,0.3-0.3c0,0,0,0,0.1,0l1.4-0.9V179v-0.1c0-0.2,0-0.4,0.1-0.5
			c0.1-0.1,0.2-0.2,0.4-0.2c0.2,0,0.4,0.1,0.5,0.2c0.1,0.1,0.1,0.3,0.1,0.5v0.7c0,0.2-0.1,0.4-0.3,0.6l0,0l-2,1.3
			c-0.1,0-0.1,0.1-0.2,0.2s-0.1,0.1-0.1,0.2v0.5h1.4v-0.1c0-0.2,0-0.3,0.1-0.4c0.1-0.1,0.2-0.1,0.4-0.1c0.2,0,0.4,0.1,0.5,0.2
			s0.1,0.3,0.1,0.5v1.4c0,0.2,0,0.4-0.1,0.5s-0.2,0.2-0.5,0.2c-0.2,0-0.3,0-0.4-0.1c-0.1-0.1-0.1-0.2-0.1-0.4v-0.1h-4v0.1
			c0,0.2-0.1,0.3-0.2,0.4c-0.1,0.1-0.2,0.2-0.4,0.2c-0.2,0-0.4-0.1-0.5-0.2c-0.1-0.1-0.1-0.3-0.1-0.5v-2.5c0-0.8,0.1-1.3,0.4-1.7
			c0.3-0.4,0.7-0.6,1.3-0.6c0.4,0,0.7,0.1,1,0.3S247.9,179.8,248.1,180.2z M245.8,182.5h1.5v-0.7c0-0.4-0.1-0.8-0.2-0.9
			s-0.3-0.3-0.6-0.3c-0.3,0-0.5,0.1-0.6,0.2c-0.1,0.2-0.2,0.4-0.2,0.8V182.5z"/>
		<path class="st8" d="M244.7,176.6c-0.1,0-0.1,0-0.2-0.1c-0.1,0-0.1-0.1-0.1-0.2c0-0.2,0.1-0.4,0.3-0.6c0.2-0.2,0.4-0.5,0.8-0.7
			c0.5-0.4,1-0.7,1.6-0.9s1.1-0.3,1.7-0.3c0.7,0,1.3,0.1,1.9,0.4s1.2,0.6,1.7,1.1c0.2,0.2,0.4,0.4,0.5,0.6c0.1,0.2,0.2,0.4,0.2,0.5
			c0,0.1,0,0.1-0.1,0.2c0,0-0.1,0.1-0.2,0.1c-0.1,0-0.3-0.1-0.5-0.3c-0.2-0.1-0.4-0.2-0.5-0.3c-0.5-0.3-1-0.5-1.5-0.6
			c-0.5-0.1-1-0.2-1.5-0.2c-0.5,0-0.9,0.1-1.4,0.2s-0.9,0.3-1.3,0.5c-0.2,0.1-0.5,0.3-0.8,0.5C245,176.5,244.8,176.6,244.7,176.6z"
			/>
	</g>
	<g class="st3">
		<path d="M299.1,227.7l-3-1c-0.2-0.1-0.3-0.2-0.4-0.3c-0.1-0.1-0.1-0.3-0.1-0.5v-0.8c0-0.2,0-0.4,0.1-0.5s0.2-0.2,0.5-0.2
			c0.2,0,0.3,0.1,0.4,0.2c0.1,0.1,0.2,0.2,0.2,0.4v0.1l4-0.2v-0.1c0-0.2,0-0.3,0.1-0.4s0.2-0.1,0.4-0.1c0.2,0,0.4,0.1,0.5,0.2
			c0.1,0.1,0.1,0.3,0.1,0.5v1.2c0,0.2,0,0.4-0.1,0.5c-0.1,0.1-0.2,0.2-0.5,0.2c-0.2,0-0.3,0-0.4-0.1c-0.1-0.1-0.1-0.2-0.1-0.4v-0.1
			l-3.3,0.1l2.4,0.8c0.2,0.1,0.3,0.1,0.4,0.2c0.1,0.1,0.1,0.3,0.1,0.4s0,0.3-0.1,0.4c-0.1,0.1-0.2,0.2-0.4,0.2l-2.4,0.8l3.3,0.1
			v-0.1c0-0.2,0-0.3,0.1-0.4c0.1-0.1,0.2-0.1,0.4-0.1c0.2,0,0.4,0.1,0.5,0.2s0.1,0.3,0.1,0.5v1.2c0,0.2,0,0.4-0.1,0.5
			s-0.2,0.2-0.5,0.2c-0.2,0-0.3,0-0.4-0.1s-0.1-0.2-0.1-0.4v-0.1l-4-0.2v0.1c0,0.2,0,0.3-0.2,0.4c-0.1,0.1-0.2,0.2-0.4,0.2
			c-0.2,0-0.4-0.1-0.5-0.2s-0.1-0.3-0.1-0.5v-0.8c0-0.2,0-0.3,0.1-0.4c0.1-0.1,0.2-0.2,0.4-0.3L299.1,227.7z"/>
		<path d="M294.4,221.2c0-0.3,0-0.4,0.2-0.5s0.3-0.1,0.7-0.1c0.4,0,0.6,0,0.7,0.1c0.1,0.1,0.1,0.3,0.1,0.5c0,0.3,0,0.5-0.1,0.5
			s-0.2,0.1-0.5,0.1c-0.5,0-0.8,0-0.9-0.1C294.5,221.6,294.4,221.4,294.4,221.2z M300.7,220.4v-1.2c0-0.2,0-0.4,0.1-0.5
			s0.2-0.2,0.4-0.2c0.2,0,0.4,0.1,0.5,0.2s0.1,0.3,0.1,0.5v3.6c0,0.2,0,0.4-0.1,0.5s-0.2,0.2-0.5,0.2c-0.2,0-0.4-0.1-0.4-0.2
			s-0.1-0.3-0.1-0.5v-1.2H298v0.6c0,0.2,0,0.4-0.1,0.5c-0.1,0.1-0.2,0.2-0.5,0.2c-0.2,0-0.4,0-0.5-0.2c-0.1-0.1-0.1-0.3-0.1-0.5
			v-1.6c0-0.1,0-0.2,0.1-0.2s0.1-0.1,0.2-0.1H300.7z"/>
		<path d="M300.6,212.3L300.6,212.3c0-0.3,0-0.4,0.1-0.5c0.1-0.1,0.2-0.2,0.4-0.2c0.2,0,0.4,0.1,0.5,0.2c0.1,0.1,0.1,0.3,0.1,0.5
			v1.3c0,0.2,0,0.4-0.1,0.5c-0.1,0.1-0.2,0.2-0.5,0.2c-0.2,0-0.3-0.1-0.4-0.2c-0.1-0.1-0.1-0.3-0.1-0.5v-0.1h-1.6
			c-0.4,0-0.7,0.1-0.9,0.2c-0.2,0.1-0.3,0.3-0.3,0.6c0,0.3,0.1,0.5,0.3,0.7c0.2,0.2,0.5,0.3,0.9,0.3h1.6v-0.1c0-0.2,0-0.4,0.1-0.5
			s0.2-0.2,0.4-0.2c0.2,0,0.4,0.1,0.5,0.2c0.1,0.1,0.1,0.3,0.1,0.5v1.3c0,0.2,0,0.4-0.1,0.5c-0.1,0.1-0.2,0.2-0.5,0.2
			c-0.2,0-0.3,0-0.4-0.2s-0.1-0.3-0.1-0.5v-0.1H298v0.1c0,0.2,0,0.3-0.1,0.4s-0.2,0.2-0.4,0.2c-0.2,0-0.4-0.1-0.5-0.2
			c-0.1-0.1-0.1-0.3-0.1-0.5v-0.9c0-0.1,0-0.2,0.1-0.2c0-0.1,0.1-0.1,0.2-0.1h0.4c-0.3-0.2-0.5-0.4-0.6-0.6
			c-0.1-0.3-0.2-0.6-0.2-0.9c0-0.6,0.2-1,0.5-1.3c0.3-0.3,0.9-0.4,1.6-0.4H300.6z"/>
		<path d="M296.7,207.9c0-0.9,0.2-1.6,0.7-2.1c0.5-0.5,1.1-0.8,1.9-0.8c0.8,0,1.4,0.3,1.9,0.8c0.5,0.5,0.7,1.2,0.7,2.1
			c0,0.9-0.2,1.6-0.7,2.1c-0.5,0.5-1.1,0.8-1.9,0.8c-0.8,0-1.4-0.3-1.9-0.8S296.7,208.8,296.7,207.9z M297.9,207.9
			c0,0.4,0.1,0.8,0.4,1c0.3,0.3,0.6,0.4,1.1,0.4c0.4,0,0.8-0.1,1.1-0.4c0.3-0.3,0.4-0.6,0.4-1c0-0.4-0.1-0.8-0.4-1s-0.6-0.4-1.1-0.4
			c-0.4,0-0.8,0.1-1.1,0.4C298,207.2,297.9,207.5,297.9,207.9z"/>
		<path d="M297.2,201.7v-1.6c0-0.2,0-0.4,0.1-0.5c0.1-0.1,0.2-0.2,0.4-0.2c0.2,0,0.4,0.1,0.5,0.2c0.1,0.1,0.1,0.3,0.1,0.5v1.6h1.4
			c0.4,0,0.7-0.1,0.8-0.2c0.1-0.1,0.2-0.3,0.2-0.6c0-0.3-0.1-0.6-0.2-1s-0.2-0.6-0.2-0.8c0-0.1,0.1-0.3,0.2-0.4
			c0.1-0.1,0.3-0.2,0.4-0.2c0.3,0,0.5,0.2,0.8,0.7c0.2,0.5,0.3,1.1,0.3,1.7c0,0.4,0,0.7-0.2,1s-0.2,0.5-0.4,0.7
			c-0.1,0.1-0.3,0.2-0.5,0.3c-0.2,0-0.5,0.1-1,0.1h-0.1h-1.4v0.5c0,0.2,0,0.4-0.1,0.5c-0.1,0.1-0.2,0.2-0.5,0.2s-0.4,0-0.4-0.2
			s-0.1-0.3-0.1-0.5V203h-1.3c-0.2,0-0.4-0.1-0.5-0.2c-0.1-0.1-0.2-0.3-0.2-0.5s0-0.4,0.2-0.5c0.1-0.1,0.3-0.2,0.5-0.2H297.2z"/>
		<path d="M300.7,192.5L300.7,192.5c0-0.3,0.1-0.4,0.2-0.5c0.1-0.1,0.2-0.2,0.4-0.2c0.2,0,0.4,0.1,0.4,0.2c0.1,0.1,0.1,0.3,0.1,0.5
			v0.5c0,0.2,0,0.3-0.1,0.4c-0.1,0.1-0.2,0.2-0.4,0.2c0.2,0.3,0.3,0.6,0.5,0.9s0.2,0.7,0.2,1c0,0.6-0.1,1-0.4,1.4
			c-0.3,0.3-0.7,0.5-1.2,0.5c-0.5,0-1-0.2-1.3-0.6c-0.3-0.4-0.4-1-0.4-1.8c0-0.2,0-0.4,0-0.5c0-0.2,0-0.4,0.1-0.6h-0.1
			c-0.3,0-0.6,0.1-0.7,0.2c-0.2,0.2-0.3,0.4-0.3,0.7c0,0.2,0.1,0.5,0.3,0.9c0.2,0.4,0.3,0.6,0.3,0.8c0,0.2,0,0.3-0.1,0.4
			s-0.2,0.2-0.4,0.2c-0.3,0-0.5-0.2-0.7-0.6s-0.3-1-0.3-1.7c0-0.8,0.1-1.3,0.4-1.6c0.3-0.3,0.8-0.5,1.5-0.5H300.7z M299.6,193.8
			c0,0.2-0.1,0.3-0.1,0.5s0,0.3,0,0.4c0,0.4,0.1,0.7,0.2,0.9c0.1,0.2,0.3,0.3,0.5,0.3c0.2,0,0.4-0.1,0.5-0.2s0.2-0.3,0.2-0.6
			c0-0.2,0-0.5-0.1-0.7c-0.1-0.2-0.2-0.4-0.3-0.6H299.6z"/>
		<path d="M298,187.3L298,187.3c0,0.3,0,0.4-0.2,0.5c-0.1,0.1-0.2,0.1-0.4,0.1c-0.2,0-0.4-0.1-0.5-0.2c-0.1-0.1-0.1-0.3-0.1-0.5v-1
			c0-0.1,0-0.2,0.1-0.2c0-0.1,0.1-0.1,0.2-0.1h3.6v-0.1c0-0.2,0-0.3,0.2-0.4c0.1-0.1,0.2-0.2,0.4-0.2c0.2,0,0.4,0.1,0.5,0.2
			c0.1,0.1,0.1,0.3,0.1,0.5v0.9c0,0.1,0,0.2-0.1,0.2c0,0.1-0.1,0.1-0.2,0.1h-0.4c0.3,0.2,0.5,0.4,0.6,0.6c0.1,0.2,0.2,0.5,0.2,0.9
			c0,0.6-0.2,1-0.5,1.3s-0.9,0.4-1.6,0.4H298v0.1c0,0.2,0,0.3-0.2,0.4c-0.1,0.1-0.2,0.2-0.4,0.2c-0.2,0-0.4-0.1-0.5-0.2
			c-0.1-0.1-0.1-0.3-0.1-0.5v-1c0-0.1,0-0.2,0.1-0.2s0.1-0.1,0.2-0.1h2.5c0.4,0,0.8-0.1,0.9-0.2c0.2-0.1,0.3-0.3,0.3-0.6
			c0-0.3-0.1-0.5-0.3-0.7c-0.2-0.2-0.5-0.3-0.9-0.3H298z"/>
		<path d="M298.9,181.8h1.7v-1.3c0-0.2,0-0.4,0.1-0.5s0.2-0.2,0.4-0.2c0.2,0,0.4,0.1,0.5,0.2s0.1,0.3,0.1,0.5v3c0,0.2,0,0.4-0.1,0.5
			c-0.1,0.1-0.2,0.2-0.5,0.2c-0.2,0-0.4-0.1-0.4-0.2c-0.1-0.1-0.1-0.3-0.1-0.5v-0.4H298v0.2c0,0.2,0,0.4-0.1,0.5
			c-0.1,0.1-0.2,0.2-0.5,0.2c-0.2,0-0.4,0-0.5-0.1c-0.1-0.1-0.1-0.3-0.1-0.5v-1.1c0-0.1,0-0.2,0.1-0.2c0-0.1,0.1-0.1,0.2-0.1h0.8
			c-0.4-0.4-0.7-0.8-0.9-1.1s-0.3-0.7-0.3-1.1c0-0.4,0.1-0.6,0.2-0.8s0.4-0.3,0.6-0.3c0.2,0,0.4,0.1,0.5,0.2
			c0.1,0.1,0.2,0.3,0.2,0.6c0,0.2-0.1,0.4-0.2,0.6s-0.2,0.4-0.2,0.5c0,0.2,0.1,0.4,0.2,0.6S298.6,181.4,298.9,181.8z"/>
	</g>
	
		<g id="g4993_00000130648695674383969690000008316079619271749055_" transform="matrix(0,1.0412308,-1.0412308,0,-228.60016,-429.03404)" inkscape:export-filename="../6924c80d/mini4.png" inkscape:export-xdpi="600" inkscape:export-ydpi="600">
		
			<g id="g4991_00000163072173686518542170000001887874764846873997_" transform="matrix(0,-0.1223197,0.1223197,0,556.73285,-317.94801)">
			<g id="g4989_00000099621790408686200530000002759547799151262896_" transform="translate(23.882705,68.958178)">
				
					<path id="path4987_00000033331494200908394380000005062641979045103027_" sodipodi:nodetypes="ccccccsscccccccccssccccc" class="st9" d="
					M1489.7,17.2c0.4,2.7,6.6,17.9,3.3,18.4c-1-4-1-4-2.4-7c-2.4-4.4-16.8-18.3-34.3-15.4c15,9.2,21.3,12.9,27.3,25.7
					c-3,1.3-0.5,1.6-0.5,5V72c0,3.5-2.5,3.7,0.5,5c-9.5,13.6-18.1,18-27.3,25.7c17.9,0,31.5-12.2,34.3-15.4c1.9-3.6,2-3.6,3.7-7
					c2.2,0.4-3.8,15.6-4.7,18.4c7.3,2.5,7.1,2.2,9.9,0.5c5-3.2,6.5-7.7,6.9-11.9c0.7,0.1,1.5,0.1,2.2,0.1c8.4-0.3,14.8-11.5,21.8-14
					c5.5-1.8,11.1,4.4,15.3,0.7c4.6-4.1,6.8-9.4,6.8-16.3s-2.2-12.2-6.8-16.3c-4.2-3.7-9.8,2.5-15.3,0.7c-7.3-2.6-15.5-14-21.8-14
					c-0.8,0-1.5,0-2.2,0.1c-0.5-4.3-2-8.7-6.9-11.9C1494.9,14.9,1494.6,14.8,1489.7,17.2L1489.7,17.2z"/>
			</g>
		</g>
	</g>
	<g>
		<path class="st10" d="M72.1,240.9l2.3-0.3c0.1-0.8,0.1-1.6,0-2.4l-2.3-0.3c-0.2-0.7-0.4-1.3-0.8-1.8l1.4-1.9
			c-0.5-0.6-1-1.2-1.7-1.7l-1.9,1.4c-0.6-0.3-1.2-0.6-1.8-0.8l-0.3-2.3c-0.8-0.1-1.6-0.1-2.4,0l-0.3,2.3c-0.7,0.2-1.3,0.4-1.8,0.8
			l-1.9-1.4c-0.6,0.5-1.2,1-1.7,1.7l1.4,1.9c-0.3,0.6-0.6,1.2-0.8,1.8l-2.3,0.3c-0.1,0.8-0.1,1.6,0,2.4l2.3,0.3
			c0.2,0.7,0.4,1.3,0.8,1.8l-1.4,1.9c0.5,0.6,1,1.2,1.7,1.7l1.9-1.4c0.6,0.3,1.2,0.6,1.8,0.8l0.3,2.3c0.8,0.1,1.6,0.1,2.4,0l0.3-2.3
			c0.7-0.2,1.3-0.4,1.8-0.8l1.9,1.4c0.6-0.5,1.2-1,1.7-1.7l-1.4-1.9C71.7,242.2,72,241.5,72.1,240.9z"/>
		<path class="st11" d="M69.1,239.4c0,1.8-1.4,3.2-3.2,3.2c-1.8,0-3.2-1.4-3.2-3.2s1.4-3.2,3.2-3.2
			C67.7,236.2,69.1,237.6,69.1,239.4z"/>
	</g>
	<path class="st12" d="M331.7,102.6"/>
	<polyline class="st13" points="25.1,167.1 25.1,138.2 44.2,138.2 	"/>
	<g>
		<rect x="105.6" y="106" class="st14" width="213.4" height="8.9"/>
		<g class="st3">
			<path d="M139.4,108.5c0-1.6,1-2.6,2.3-2.6c1,0,1.9,0.5,2.1,1.7h-0.6c-0.2-0.9-0.9-1.2-1.5-1.2c-1,0-1.7,0.8-1.7,2.1
				s0.7,2.1,1.7,2.1c0.7,0,1.4-0.4,1.6-1.4h0.6c-0.1,1.3-1.1,1.9-2.2,1.9C140.3,111.1,139.4,110.1,139.4,108.5z"/>
			<path d="M144.3,109.2c0-1.2,0.7-1.9,1.8-1.9s1.8,0.7,1.8,1.9c0,1.2-0.7,1.9-1.8,1.9S144.3,110.3,144.3,109.2z M147.2,109.2
				c0-0.9-0.5-1.4-1.2-1.4s-1.2,0.5-1.2,1.4c0,0.9,0.5,1.4,1.2,1.4S147.2,110.1,147.2,109.2z"/>
			<path d="M153.5,108.5v2.5h-0.6v-2.4c0-0.6-0.3-0.8-0.8-0.8c-0.5,0-0.9,0.3-0.9,1.2v2h-0.6v-2.4c0-0.6-0.3-0.8-0.8-0.8
				c-0.4,0-0.9,0.3-0.9,1.2v2h-0.6v-3.6h0.5v0.5c0.2-0.4,0.6-0.6,1-0.6c0.6,0,0.9,0.3,1.1,0.7c0.2-0.4,0.6-0.7,1.1-0.7
				C153.1,107.3,153.5,107.8,153.5,108.5z"/>
			<path d="M159.4,108.5v2.5h-0.6v-2.4c0-0.6-0.3-0.8-0.8-0.8c-0.5,0-0.9,0.3-0.9,1.2v2h-0.6v-2.4c0-0.6-0.3-0.8-0.8-0.8
				c-0.4,0-0.9,0.3-0.9,1.2v2h-0.6v-3.6h0.5v0.5c0.2-0.4,0.6-0.6,1-0.6c0.6,0,0.9,0.3,1.1,0.7c0.2-0.4,0.6-0.7,1.1-0.7
				C159,107.3,159.4,107.8,159.4,108.5z"/>
			<path d="M163,107.4v3.6h-0.5v-0.5c-0.2,0.4-0.6,0.6-1.1,0.6c-0.8,0-1.3-0.5-1.3-1.3v-2.4h0.6v2.4c0,0.6,0.3,0.8,0.8,0.8
				c0.5,0,1-0.4,1-1.1v-2H163z"/>
			<path d="M166.8,108.5v2.4h-0.6v-2.4c0-0.6-0.3-0.8-0.8-0.8c-0.5,0-1,0.3-1,1.1v2h-0.6v-3.6h0.5v0.5c0.2-0.4,0.6-0.6,1.1-0.6
				C166.3,107.3,166.8,107.7,166.8,108.5z"/>
			<path d="M167.6,106.1h0.6v0.7h-0.6V106.1z M167.6,107.4h0.6v3.6h-0.6V107.4z"/>
			<path d="M169.9,107.9v2.3c0,0.2,0.1,0.3,0.4,0.3h0.3v0.5c-0.2,0-0.3,0-0.4,0c-0.6,0-0.9-0.2-0.9-0.8v-2.4h-0.6v-0.5h0.6v-1h0.6v1
				h0.7v0.5H169.9z"/>
			<path d="M174.1,107.4l-1.5,4.2c-0.2,0.6-0.6,0.8-1.2,0.8c-0.1,0-0.2,0-0.3,0v-0.5h0.3c0.4,0,0.5-0.2,0.7-0.4
				c0-0.1,0.1-0.2,0.1-0.3l-1.4-3.7h0.6l0.5,1.5c0.2,0.5,0.4,1,0.5,1.6c0.2-0.5,0.3-1,0.5-1.6l0.5-1.5H174.1z"/>
			<path d="M174.2,108.8h2v0.5h-2V108.8z"/>
			<path d="M182,108.5v2.5h-0.6v-2.4c0-0.6-0.3-0.8-0.8-0.8c-0.5,0-0.9,0.3-0.9,1.2v2h-0.6v-2.4c0-0.6-0.3-0.8-0.8-0.8
				c-0.4,0-0.9,0.3-0.9,1.2v2h-0.6v-3.6h0.5v0.5c0.2-0.4,0.6-0.6,1-0.6c0.6,0,0.9,0.3,1.1,0.7c0.2-0.4,0.6-0.7,1.1-0.7
				C181.6,107.3,182,107.8,182,108.5z"/>
			<path d="M186,110.5v0.5c-0.1,0-0.2,0-0.3,0c-0.4,0-0.6-0.2-0.6-0.5c-0.3,0.4-0.7,0.6-1.2,0.6c-0.8,0-1.3-0.4-1.3-1.1
				c0-0.6,0.3-1,1.3-1.1l0.5-0.1c0.4,0,0.6-0.2,0.6-0.5c0-0.4-0.2-0.6-0.8-0.6s-0.9,0.2-0.9,0.7h-0.6c0-0.7,0.4-1.2,1.5-1.2
				c1,0,1.4,0.4,1.4,1.1v2c0,0.1,0.1,0.2,0.2,0.2H186z M185,109.6v-0.4c-0.1,0.1-0.3,0.1-0.5,0.2l-0.5,0.1c-0.7,0.1-0.8,0.3-0.8,0.7
				c0,0.4,0.2,0.6,0.7,0.6C184.4,110.6,185,110.3,185,109.6z"/>
			<path d="M186.4,106.1h0.6v0.7h-0.6V106.1z M186.4,107.4h0.6v3.6h-0.6V107.4z"/>
			<path d="M190.7,108.5v2.4h-0.6v-2.4c0-0.6-0.3-0.8-0.8-0.8c-0.5,0-1,0.3-1,1.1v2h-0.6v-3.6h0.5v0.5c0.2-0.4,0.6-0.6,1.1-0.6
				C190.3,107.3,190.7,107.7,190.7,108.5z"/>
			<path d="M192.3,107.9v2.3c0,0.2,0.1,0.3,0.4,0.3h0.3v0.5c-0.2,0-0.3,0-0.4,0c-0.6,0-0.9-0.2-0.9-0.8v-2.4h-0.6v-0.5h0.6v-1h0.6v1
				h0.7v0.5H192.3z"/>
			<path d="M196.7,110.5v0.5c-0.1,0-0.2,0-0.3,0c-0.4,0-0.6-0.2-0.6-0.5c-0.3,0.4-0.7,0.6-1.2,0.6c-0.8,0-1.3-0.4-1.3-1.1
				c0-0.6,0.3-1,1.3-1.1l0.5-0.1c0.4,0,0.6-0.2,0.6-0.5c0-0.4-0.2-0.6-0.8-0.6s-0.9,0.2-0.9,0.7h-0.6c0-0.7,0.4-1.2,1.5-1.2
				c1,0,1.4,0.4,1.4,1.1v2c0,0.1,0.1,0.2,0.2,0.2H196.7z M195.8,109.6v-0.4c-0.1,0.1-0.3,0.1-0.5,0.2l-0.5,0.1
				c-0.7,0.1-0.8,0.3-0.8,0.7c0,0.4,0.2,0.6,0.7,0.6C195.2,110.6,195.8,110.3,195.8,109.6z"/>
			<path d="M197.2,106.1h0.6v0.7h-0.6V106.1z M197.2,107.4h0.6v3.6h-0.6V107.4z"/>
			<path d="M201.5,108.5v2.4H201v-2.4c0-0.6-0.3-0.8-0.8-0.8c-0.5,0-1,0.3-1,1.1v2h-0.6v-3.6h0.5v0.5c0.2-0.4,0.6-0.6,1.1-0.6
				C201.1,107.3,201.5,107.7,201.5,108.5z"/>
			<path d="M205.5,109.4h-2.7c0.1,0.8,0.5,1.2,1.1,1.2c0.5,0,0.8-0.3,1-0.7h0.6c-0.2,0.7-0.7,1.2-1.6,1.2c-1,0-1.7-0.7-1.7-1.9
				c0-1.1,0.7-1.9,1.7-1.9c1.1,0,1.7,0.9,1.7,1.9V109.4z M202.8,108.9h2.1c-0.1-0.6-0.4-1.1-1.1-1.1
				C203.3,107.8,202.9,108.2,202.8,108.9z"/>
			<path d="M209.5,106v5h-0.5v-0.6c-0.3,0.4-0.7,0.6-1.2,0.6c-1,0-1.7-0.7-1.7-1.9c0-1.2,0.7-1.9,1.7-1.9c0.5,0,0.9,0.2,1.2,0.6V106
				H209.5z M208.9,109.2c0-0.9-0.5-1.4-1.2-1.4s-1.2,0.5-1.2,1.4c0,0.9,0.5,1.4,1.2,1.4S208.9,110.1,208.9,109.2z"/>
			<path d="M214.9,106v5h-0.5v-0.6c-0.3,0.4-0.7,0.6-1.2,0.6c-1,0-1.7-0.7-1.7-1.9c0-1.2,0.7-1.9,1.7-1.9c0.5,0,0.9,0.2,1.2,0.6V106
				H214.9z M214.4,109.2c0-0.9-0.5-1.4-1.2-1.4s-1.2,0.5-1.2,1.4c0,0.9,0.5,1.4,1.2,1.4S214.4,110.1,214.4,109.2z"/>
			<path d="M218.9,110.5v0.5c-0.1,0-0.2,0-0.3,0c-0.4,0-0.6-0.2-0.6-0.5c-0.3,0.4-0.7,0.6-1.2,0.6c-0.8,0-1.3-0.4-1.3-1.1
				c0-0.6,0.3-1,1.3-1.1l0.5-0.1c0.4,0,0.6-0.2,0.6-0.5c0-0.4-0.2-0.6-0.8-0.6s-0.9,0.2-0.9,0.7h-0.6c0-0.7,0.4-1.2,1.5-1.2
				c1,0,1.4,0.4,1.4,1.1v2c0,0.1,0.1,0.2,0.2,0.2H218.9z M218,109.6v-0.4c-0.1,0.1-0.3,0.1-0.5,0.2l-0.5,0.1
				c-0.7,0.1-0.8,0.3-0.8,0.7c0,0.4,0.2,0.6,0.7,0.6C217.4,110.6,218,110.3,218,109.6z"/>
			<path d="M220.1,107.9v2.3c0,0.2,0.1,0.3,0.4,0.3h0.3v0.5c-0.2,0-0.3,0-0.4,0c-0.6,0-0.9-0.2-0.9-0.8v-2.4h-0.6v-0.5h0.6v-1h0.6v1
				h0.7v0.5H220.1z"/>
			<path d="M224.6,110.5v0.5c-0.1,0-0.2,0-0.3,0c-0.4,0-0.6-0.2-0.6-0.5c-0.3,0.4-0.7,0.6-1.2,0.6c-0.8,0-1.3-0.4-1.3-1.1
				c0-0.6,0.3-1,1.3-1.1l0.5-0.1c0.4,0,0.6-0.2,0.6-0.5c0-0.4-0.2-0.6-0.8-0.6c-0.6,0-0.9,0.2-0.9,0.7h-0.6c0-0.7,0.4-1.2,1.5-1.2
				c1,0,1.4,0.4,1.4,1.1v2c0,0.1,0.1,0.2,0.2,0.2H224.6z M223.6,109.6v-0.4c-0.1,0.1-0.3,0.1-0.5,0.2l-0.5,0.1
				c-0.7,0.1-0.8,0.3-0.8,0.7c0,0.4,0.2,0.6,0.7,0.6C223,110.6,223.6,110.3,223.6,109.6z"/>
			<path d="M226.1,109.8h0.6c0.1,0.5,0.3,0.7,1,0.7c0.6,0,0.9-0.2,0.9-0.6c0-0.3-0.2-0.5-0.8-0.6l-0.3-0.1c-0.8-0.1-1.1-0.5-1.1-1.1
				c0-0.6,0.5-1,1.3-1c1,0,1.5,0.4,1.5,1.2h-0.6c0-0.6-0.4-0.7-0.9-0.7c-0.5,0-0.8,0.2-0.8,0.5c0,0.3,0.3,0.5,0.7,0.6l0.3,0.1
				c0.9,0.2,1.2,0.5,1.2,1.1c0,0.7-0.5,1.1-1.4,1.1C226.7,111.1,226.2,110.7,226.1,109.8z"/>
			<path d="M230.4,107.9v2.3c0,0.2,0.1,0.3,0.4,0.3h0.3v0.5c-0.2,0-0.3,0-0.4,0c-0.6,0-0.9-0.2-0.9-0.8v-2.4h-0.6v-0.5h0.6v-1h0.6v1
				h0.7v0.5H230.4z"/>
			<path d="M231.5,109.2c0-1.2,0.7-1.9,1.8-1.9s1.8,0.7,1.8,1.9c0,1.2-0.7,1.9-1.8,1.9S231.5,110.3,231.5,109.2z M234.4,109.2
				c0-0.9-0.5-1.4-1.2-1.4s-1.2,0.5-1.2,1.4c0,0.9,0.5,1.4,1.2,1.4S234.4,110.1,234.4,109.2z"/>
			<path d="M237.6,107.3v0.5h-0.1c-0.7,0-1.2,0.4-1.2,1.1v2.1h-0.6v-3.6h0.5v0.6c0.2-0.4,0.6-0.7,1.2-0.7
				C237.4,107.3,237.5,107.3,237.6,107.3z"/>
			<path d="M241,110.5v0.5c-0.1,0-0.2,0-0.3,0c-0.4,0-0.6-0.2-0.6-0.5c-0.3,0.4-0.7,0.6-1.2,0.6c-0.8,0-1.3-0.4-1.3-1.1
				c0-0.6,0.3-1,1.3-1.1l0.5-0.1c0.4,0,0.6-0.2,0.6-0.5c0-0.4-0.2-0.6-0.8-0.6c-0.6,0-0.9,0.2-0.9,0.7h-0.6c0-0.7,0.4-1.2,1.5-1.2
				c1,0,1.4,0.4,1.4,1.1v2c0,0.1,0.1,0.2,0.2,0.2H241z M240.1,109.6v-0.4c-0.1,0.1-0.3,0.1-0.5,0.2l-0.5,0.1
				c-0.7,0.1-0.8,0.3-0.8,0.7c0,0.4,0.2,0.6,0.7,0.6C239.5,110.6,240.1,110.3,240.1,109.6z"/>
			<path d="M244.7,107.4v3.5c0,0.9-0.5,1.6-1.7,1.6c-0.9,0-1.5-0.5-1.5-1.2h0.6c0.1,0.5,0.4,0.7,1,0.7c0.7,0,1.1-0.4,1.1-1.1v-0.4
				c-0.3,0.4-0.7,0.6-1.2,0.6c-1,0-1.7-0.7-1.7-1.9c0-1.2,0.7-1.9,1.7-1.9c0.5,0,1,0.2,1.2,0.6v-0.5H244.7z M244.2,109.2
				c0-0.9-0.5-1.4-1.2-1.4s-1.2,0.5-1.2,1.4c0,0.8,0.5,1.4,1.2,1.4S244.2,110.1,244.2,109.2z"/>
			<path d="M248.7,109.4h-2.7c0.1,0.8,0.5,1.2,1.1,1.2c0.5,0,0.8-0.3,1-0.7h0.6c-0.2,0.7-0.7,1.2-1.6,1.2c-1,0-1.7-0.7-1.7-1.9
				c0-1.1,0.7-1.9,1.7-1.9c1.1,0,1.7,0.9,1.7,1.9V109.4z M246,108.9h2.1c-0.1-0.6-0.4-1.1-1.1-1.1C246.5,107.8,246,108.2,246,108.9z
				"/>
			<path d="M254.1,111l-0.5-0.6c-0.4,0.4-0.9,0.7-1.6,0.7c-0.9,0-1.5-0.6-1.5-1.4c0-0.7,0.4-1.1,1.2-1.5c-0.4-0.5-0.6-0.8-0.6-1.2
				c0-0.6,0.4-1.1,1.2-1.1c0.6,0,1.2,0.4,1.2,1.1c0,0.5-0.4,1-1,1.3l1,1.2c0.1-0.3,0.1-0.6,0.1-0.9h0.6c0,0.4-0.1,0.9-0.3,1.3l1,1.1
				H254.1z M253.2,110l-1.3-1.4c-0.5,0.3-0.9,0.6-0.9,1.1c0,0.4,0.3,0.9,0.9,0.9C252.6,110.6,253,110.3,253.2,110z M251.6,107
				c0,0.2,0.2,0.6,0.5,0.9c0.5-0.3,0.8-0.6,0.8-0.9c0-0.4-0.3-0.6-0.6-0.6C251.9,106.4,251.6,106.6,251.6,107z"/>
			<path d="M262.8,106l-1.4,5h-0.7l-0.7-2.5c-0.2-0.5-0.3-1.1-0.5-1.7c-0.1,0.6-0.3,1.1-0.5,1.7l-0.7,2.5h-0.7l-1.4-5h0.6l0.7,2.5
				c0.2,0.6,0.3,1.2,0.5,1.8c0.2-0.6,0.3-1.2,0.5-1.8l0.7-2.4h0.7l0.7,2.4c0.2,0.6,0.3,1.2,0.5,1.8c0.1-0.6,0.3-1.2,0.5-1.8l0.7-2.5
				H262.8z"/>
			<path d="M266,109.4h-2.7c0.1,0.8,0.5,1.2,1.1,1.2c0.5,0,0.8-0.3,1-0.7h0.6c-0.2,0.7-0.7,1.2-1.6,1.2c-1,0-1.7-0.7-1.7-1.9
				c0-1.1,0.7-1.9,1.7-1.9c1.1,0,1.7,0.9,1.7,1.9V109.4z M263.3,108.9h2.1c-0.1-0.6-0.4-1.1-1.1-1.1
				C263.8,107.8,263.4,108.2,263.3,108.9z"/>
			<path d="M270.1,109.2c0,1.2-0.7,1.9-1.7,1.9c-0.5,0-1-0.2-1.2-0.6v0.6h-0.5v-5h0.6v1.9c0.3-0.4,0.7-0.6,1.2-0.6
				C269.5,107.3,270.1,108,270.1,109.2z M269.5,109.2c0-0.9-0.5-1.4-1.2-1.4c-0.7,0-1.2,0.5-1.2,1.4c0,0.9,0.5,1.4,1.2,1.4
				C269.1,110.6,269.5,110,269.5,109.2z"/>
			<path d="M270.6,108.8h2v0.5h-2V108.8z"/>
			<path d="M276.2,109.5h-2.3l-0.6,1.5h-0.6l2-5h0.7l2,5h-0.6L276.2,109.5z M275.9,109L275.9,109c-0.2-0.6-0.6-1.6-0.9-2.4
				c-0.3,0.8-0.7,1.8-0.9,2.3l0,0.1H275.9z"/>
			<path d="M281.5,107.5c0,0.9-0.5,1.5-1.7,1.5h-1.5v1.9h-0.6v-5h2.1C281,106,281.5,106.6,281.5,107.5z M280.9,107.5
				c0-0.6-0.3-1-1-1h-1.5v2h1.5C280.6,108.5,280.9,108.2,280.9,107.5z"/>
			<path d="M282.2,106h0.6v5h-0.6V106z"/>
		</g>
	</g>
	<g>
		<rect x="317.9" y="177.2" class="st14" width="42" height="76.3"/>
		<g class="st3">
			<path d="M320.1,180.3h0.6c0,0.9,0.6,1.1,1.4,1.1c0.7,0,1.2-0.3,1.2-0.9c0-0.4-0.3-0.7-1.1-0.8l-0.4-0.1c-0.8-0.2-1.4-0.5-1.4-1.3
				c0-0.7,0.6-1.2,1.6-1.2c1.4,0,1.8,0.7,1.8,1.5h-0.6c0-0.6-0.3-1-1.2-1c-0.7,0-1,0.3-1,0.7c0,0.4,0.2,0.7,1.1,0.9l0.4,0.1
				c1.1,0.2,1.4,0.7,1.4,1.3c0,0.8-0.6,1.4-1.7,1.4C320.9,181.9,320.1,181.4,320.1,180.3z"/>
			<path d="M325,178.9v2.2c0,0.2,0.1,0.3,0.4,0.3h0.3v0.4c-0.1,0-0.3,0-0.4,0c-0.5,0-0.8-0.2-0.8-0.7v-2.2h-0.6v-0.5h0.6v-0.9h0.5
				v0.9h0.7v0.5H325z"/>
			<path d="M329.1,181.4v0.4c-0.1,0-0.2,0-0.3,0c-0.4,0-0.5-0.2-0.6-0.5c-0.2,0.4-0.6,0.5-1.1,0.5c-0.7,0-1.2-0.4-1.2-1
				c0-0.5,0.3-0.9,1.2-1l0.5-0.1c0.3,0,0.5-0.2,0.5-0.5c0-0.4-0.2-0.5-0.8-0.5s-0.8,0.2-0.8,0.7h-0.5c0-0.7,0.4-1.1,1.4-1.1
				c0.9,0,1.3,0.4,1.3,1v1.9c0,0.1,0.1,0.2,0.2,0.2H329.1z M328.3,180.5v-0.4c-0.1,0.1-0.2,0.1-0.4,0.1l-0.5,0.1
				c-0.6,0.1-0.8,0.3-0.8,0.6c0,0.3,0.2,0.6,0.7,0.6C327.7,181.4,328.3,181.1,328.3,180.5z"/>
			<path d="M332.3,179.5v2.3h-0.5v-2.2c0-0.5-0.3-0.7-0.8-0.7c-0.4,0-0.9,0.3-0.9,1.1v1.9h-0.5v-3.4h0.5v0.5
				c0.2-0.3,0.6-0.6,1.1-0.6C331.9,178.4,332.3,178.8,332.3,179.5z"/>
			<path d="M336.1,177.2v4.6h-0.5v-0.5c-0.3,0.4-0.7,0.6-1.2,0.6c-0.9,0-1.6-0.7-1.6-1.8c0-1.1,0.6-1.8,1.6-1.8
				c0.5,0,0.9,0.2,1.1,0.6v-1.8H336.1z M335.6,180.1c0-0.8-0.4-1.3-1.1-1.3c-0.6,0-1.1,0.5-1.1,1.3s0.4,1.3,1.1,1.3
				C335.2,181.4,335.6,180.9,335.6,180.1z"/>
			<path d="M339.9,181.4v0.4c-0.1,0-0.2,0-0.3,0c-0.4,0-0.5-0.2-0.6-0.5c-0.2,0.4-0.6,0.5-1.1,0.5c-0.7,0-1.2-0.4-1.2-1
				c0-0.5,0.3-0.9,1.2-1l0.5-0.1c0.3,0,0.5-0.2,0.5-0.5c0-0.4-0.2-0.5-0.8-0.5c-0.6,0-0.8,0.2-0.8,0.7h-0.5c0-0.7,0.4-1.1,1.4-1.1
				c0.9,0,1.3,0.4,1.3,1v1.9c0,0.1,0.1,0.2,0.2,0.2H339.9z M339,180.5v-0.4c-0.1,0.1-0.2,0.1-0.4,0.1l-0.5,0.1
				c-0.6,0.1-0.8,0.3-0.8,0.6c0,0.3,0.2,0.6,0.7,0.6C338.4,181.4,339,181.1,339,180.5z"/>
			<path d="M342.1,178.4v0.5h-0.1c-0.7,0-1.1,0.3-1.1,1v1.9h-0.5v-3.4h0.5v0.6c0.2-0.4,0.5-0.6,1.1-0.6
				C341.9,178.4,342,178.4,342.1,178.4z"/>
			<path d="M345.4,177.2v4.6h-0.5v-0.5c-0.3,0.4-0.6,0.6-1.2,0.6c-0.9,0-1.6-0.7-1.6-1.8c0-1.1,0.6-1.8,1.6-1.8
				c0.5,0,0.9,0.2,1.1,0.6v-1.8H345.4z M344.9,180.1c0-0.8-0.4-1.3-1.1-1.3c-0.7,0-1.1,0.5-1.1,1.3s0.4,1.3,1.1,1.3
				C344.5,181.4,344.9,180.9,344.9,180.1z"/>
			<path d="M346.2,177.3h0.6v0.6h-0.6V177.3z M346.2,178.5h0.5v3.4h-0.5V178.5z"/>
			<path d="M350,181.4v0.5h-2.7v-0.4l1.5-2c0.1-0.2,0.3-0.4,0.4-0.5c-0.2,0-0.5,0-0.7,0h-1.2v-0.5h2.6v0.4l-1.5,2
				c-0.1,0.2-0.3,0.4-0.4,0.5c0.2,0,0.5,0,0.7,0H350z"/>
			<path d="M353.2,180.3h-2.5c0.1,0.8,0.4,1.1,1,1.1c0.5,0,0.8-0.2,0.9-0.6h0.5c-0.2,0.6-0.6,1.1-1.4,1.1c-0.9,0-1.6-0.7-1.6-1.8
				c0-1.1,0.6-1.8,1.5-1.8c1,0,1.5,0.8,1.5,1.8V180.3z M350.7,179.8h2c-0.1-0.6-0.4-1-1-1C351.2,178.8,350.8,179.2,350.7,179.8z"/>
			<path d="M356.9,177.2v4.6h-0.5v-0.5c-0.3,0.4-0.6,0.6-1.2,0.6c-0.9,0-1.6-0.7-1.6-1.8c0-1.1,0.6-1.8,1.6-1.8
				c0.5,0,0.9,0.2,1.1,0.6v-1.8H356.9z M356.4,180.1c0-0.8-0.4-1.3-1.1-1.3c-0.7,0-1.1,0.5-1.1,1.3s0.4,1.3,1.1,1.3
				C356,181.4,356.4,180.9,356.4,180.1z"/>
		</g>
		<g class="st3">
			<path d="M328.8,186.5v3.2c0,0.9-0.5,1.5-1.6,1.5c-0.9,0-1.4-0.4-1.4-1.1h0.5c0.1,0.4,0.4,0.6,0.9,0.6c0.7,0,1-0.3,1-1v-0.3
				c-0.3,0.3-0.6,0.5-1.1,0.5c-0.9,0-1.6-0.7-1.6-1.8c0-1.1,0.6-1.8,1.6-1.8c0.5,0,0.9,0.2,1.2,0.6v-0.5H328.8z M328.3,188.1
				c0-0.8-0.4-1.3-1.1-1.3c-0.7,0-1.1,0.5-1.1,1.3c0,0.8,0.4,1.3,1.1,1.3C327.9,189.4,328.3,188.9,328.3,188.1z"/>
			<path d="M332.5,188.3H330c0.1,0.8,0.4,1.1,1,1.1c0.5,0,0.8-0.2,0.9-0.6h0.5c-0.2,0.6-0.6,1.1-1.4,1.1c-0.9,0-1.6-0.7-1.6-1.8
				c0-1.1,0.6-1.8,1.5-1.8c1,0,1.5,0.8,1.5,1.8V188.3z M330,187.8h2c-0.1-0.6-0.4-1-1-1C330.4,186.8,330.1,187.2,330,187.8z"/>
			<path d="M335.9,187.5v2.3h-0.5v-2.2c0-0.5-0.3-0.7-0.8-0.7c-0.4,0-0.9,0.3-0.9,1.1v1.9h-0.5v-3.4h0.5v0.5
				c0.2-0.3,0.6-0.6,1.1-0.6C335.4,186.4,335.9,186.8,335.9,187.5z"/>
			<path d="M336.5,188.1c0-1.1,0.7-1.8,1.6-1.8s1.6,0.7,1.6,1.8c0,1.1-0.7,1.8-1.6,1.8S336.5,189.2,336.5,188.1z M339.2,188.1
				c0-0.8-0.4-1.3-1.1-1.3c-0.6,0-1.1,0.5-1.1,1.3s0.4,1.3,1.1,1.3C338.8,189.4,339.2,188.9,339.2,188.1z"/>
			<path d="M340.9,186.9v2.2c0,0.2,0.1,0.3,0.4,0.3h0.3v0.4c-0.1,0-0.3,0-0.4,0c-0.5,0-0.8-0.2-0.8-0.7v-2.2h-0.6v-0.5h0.6v-0.9h0.5
				v0.9h0.7v0.5H340.9z"/>
			<path d="M344.9,186.5l-1.4,3.9c-0.2,0.6-0.6,0.8-1.1,0.8c-0.1,0-0.2,0-0.3,0v-0.4h0.3c0.3,0,0.5-0.1,0.6-0.4
				c0-0.1,0.1-0.2,0.1-0.3l-1.3-3.5h0.6l0.5,1.4c0.2,0.5,0.3,1,0.5,1.5c0.1-0.5,0.3-1,0.5-1.5l0.5-1.4H344.9z"/>
			<path d="M348.5,188.1c0,1.1-0.6,1.8-1.6,1.8c-0.5,0-0.9-0.2-1.1-0.6v1.8h-0.5v-4.6h0.5v0.5c0.3-0.4,0.6-0.6,1.2-0.6
				C347.8,186.4,348.5,187.1,348.5,188.1z M347.9,188.1c0-0.8-0.4-1.3-1.1-1.3s-1.1,0.5-1.1,1.3s0.4,1.3,1.1,1.3
				S347.9,188.9,347.9,188.1z"/>
			<path d="M352,188.3h-2.5c0.1,0.8,0.4,1.1,1,1.1c0.5,0,0.8-0.2,0.9-0.6h0.5c-0.2,0.6-0.6,1.1-1.4,1.1c-0.9,0-1.6-0.7-1.6-1.8
				c0-1.1,0.6-1.8,1.5-1.8c1,0,1.5,0.8,1.5,1.8V188.3z M349.5,187.8h2c-0.1-0.6-0.4-1-1-1C349.9,186.8,349.5,187.2,349.5,187.8z"/>
		</g>
		<g class="st3">
			<path d="M336,193.2v4.6h-0.5v-0.5c-0.3,0.4-0.6,0.6-1.2,0.6c-0.9,0-1.6-0.7-1.6-1.8c0-1.1,0.6-1.8,1.6-1.8c0.5,0,0.9,0.2,1.1,0.6
				v-1.8H336z M335.5,196.1c0-0.8-0.4-1.3-1.1-1.3c-0.7,0-1.1,0.5-1.1,1.3s0.4,1.3,1.1,1.3C335.1,197.4,335.5,196.9,335.5,196.1z"/>
			<path d="M339.7,197.4v0.4c-0.1,0-0.2,0-0.3,0c-0.4,0-0.5-0.2-0.6-0.5c-0.2,0.4-0.6,0.5-1.1,0.5c-0.7,0-1.2-0.4-1.2-1
				c0-0.5,0.3-0.9,1.2-1l0.5-0.1c0.3,0,0.5-0.2,0.5-0.5c0-0.4-0.2-0.5-0.8-0.5s-0.8,0.2-0.8,0.7h-0.5c0-0.7,0.4-1.1,1.4-1.1
				c0.9,0,1.3,0.4,1.3,1v1.9c0,0.1,0.1,0.2,0.2,0.2H339.7z M338.8,196.5v-0.4c-0.1,0.1-0.2,0.1-0.4,0.1l-0.5,0.1
				c-0.6,0.1-0.8,0.3-0.8,0.6c0,0.3,0.2,0.6,0.7,0.6C338.3,197.4,338.8,197.1,338.8,196.5z"/>
			<path d="M340.8,194.9v2.2c0,0.2,0.1,0.3,0.4,0.3h0.3v0.4c-0.1,0-0.3,0-0.4,0c-0.5,0-0.8-0.2-0.8-0.7v-2.2h-0.6v-0.5h0.6v-0.9h0.5
				v0.9h0.7v0.5H340.8z"/>
			<path d="M345,197.4v0.4c-0.1,0-0.2,0-0.3,0c-0.4,0-0.5-0.2-0.6-0.5c-0.2,0.4-0.6,0.5-1.1,0.5c-0.7,0-1.2-0.4-1.2-1
				c0-0.5,0.3-0.9,1.2-1l0.5-0.1c0.3,0,0.5-0.2,0.5-0.5c0-0.4-0.2-0.5-0.8-0.5c-0.6,0-0.8,0.2-0.8,0.7H342c0-0.7,0.4-1.1,1.4-1.1
				c0.9,0,1.3,0.4,1.3,1v1.9c0,0.1,0.1,0.2,0.2,0.2H345z M344.1,196.5v-0.4c-0.1,0.1-0.2,0.1-0.4,0.1l-0.5,0.1
				c-0.6,0.1-0.8,0.3-0.8,0.6c0,0.3,0.2,0.6,0.7,0.6C343.5,197.4,344.1,197.1,344.1,196.5z"/>
		</g>
		<g class="st3">
			<path d="M327,202.5v3.2c0,0.9-0.5,1.5-1.6,1.5c-0.9,0-1.4-0.4-1.4-1.1h0.5c0.1,0.4,0.4,0.6,0.9,0.6c0.7,0,1-0.3,1-1v-0.3
				c-0.3,0.3-0.6,0.5-1.1,0.5c-0.9,0-1.6-0.7-1.6-1.8c0-1.1,0.6-1.8,1.6-1.8c0.5,0,0.9,0.2,1.2,0.6v-0.5H327z M326.5,204.1
				c0-0.8-0.4-1.3-1.1-1.3c-0.7,0-1.1,0.5-1.1,1.3c0,0.8,0.4,1.3,1.1,1.3C326.1,205.4,326.5,204.9,326.5,204.1z"/>
			<path d="M330.7,204.3h-2.5c0.1,0.8,0.4,1.1,1,1.1c0.5,0,0.8-0.2,0.9-0.6h0.5c-0.2,0.6-0.6,1.1-1.4,1.1c-0.9,0-1.6-0.7-1.6-1.8
				c0-1.1,0.6-1.8,1.5-1.8c1,0,1.5,0.8,1.5,1.8V204.3z M328.2,203.8h2c-0.1-0.6-0.4-1-1-1C328.6,202.8,328.3,203.2,328.2,203.8z"/>
			<path d="M334.1,203.5v2.3h-0.5v-2.2c0-0.5-0.3-0.7-0.8-0.7c-0.4,0-0.9,0.3-0.9,1.1v1.9h-0.5v-3.4h0.5v0.5
				c0.2-0.3,0.6-0.6,1.1-0.6C333.6,202.4,334.1,202.8,334.1,203.5z"/>
			<path d="M337.8,204.3h-2.5c0.1,0.8,0.4,1.1,1,1.1c0.5,0,0.8-0.2,0.9-0.6h0.5c-0.2,0.6-0.6,1.1-1.4,1.1c-0.9,0-1.6-0.7-1.6-1.8
				c0-1.1,0.6-1.8,1.5-1.8c1,0,1.5,0.8,1.5,1.8V204.3z M335.2,203.8h2c-0.1-0.6-0.4-1-1-1C335.7,202.8,335.3,203.2,335.2,203.8z"/>
			<path d="M340.1,202.4v0.5H340c-0.7,0-1.1,0.3-1.1,1v1.9h-0.5v-3.4h0.5v0.6c0.2-0.4,0.5-0.6,1.1-0.6
				C340,202.4,340.1,202.4,340.1,202.4z"/>
			<path d="M343.3,205.4v0.4c-0.1,0-0.2,0-0.3,0c-0.4,0-0.5-0.2-0.6-0.5c-0.2,0.4-0.6,0.5-1.1,0.5c-0.7,0-1.2-0.4-1.2-1
				c0-0.5,0.3-0.9,1.2-1l0.5-0.1c0.3,0,0.5-0.2,0.5-0.5c0-0.4-0.2-0.5-0.8-0.5s-0.8,0.2-0.8,0.7h-0.5c0-0.7,0.4-1.1,1.4-1.1
				c0.9,0,1.3,0.4,1.3,1v1.9c0,0.1,0.1,0.2,0.2,0.2H343.3z M342.4,204.5v-0.4c-0.1,0.1-0.2,0.1-0.4,0.1l-0.5,0.1
				c-0.6,0.1-0.8,0.3-0.8,0.6c0,0.3,0.2,0.6,0.7,0.6C341.9,205.4,342.4,205.1,342.4,204.5z"/>
			<path d="M344.4,202.9v2.2c0,0.2,0.1,0.3,0.4,0.3h0.3v0.4c-0.1,0-0.3,0-0.4,0c-0.5,0-0.8-0.2-0.8-0.7v-2.2h-0.6v-0.5h0.6v-0.9h0.5
				v0.9h0.7v0.5H344.4z"/>
			<path d="M345.6,201.3h0.6v0.6h-0.6V201.3z M345.7,202.5h0.5v3.4h-0.5V202.5z"/>
			<path d="M346.8,204.1c0-1.1,0.7-1.8,1.6-1.8s1.6,0.7,1.6,1.8c0,1.1-0.7,1.8-1.6,1.8S346.8,205.2,346.8,204.1z M349.5,204.1
				c0-0.8-0.4-1.3-1.1-1.3c-0.6,0-1.1,0.5-1.1,1.3s0.4,1.3,1.1,1.3C349.1,205.4,349.5,204.9,349.5,204.1z"/>
			<path d="M353.4,203.5v2.3h-0.5v-2.2c0-0.5-0.3-0.7-0.8-0.7c-0.4,0-0.9,0.3-0.9,1.1v1.9h-0.5v-3.4h0.5v0.5
				c0.2-0.3,0.6-0.6,1.1-0.6C353,202.4,353.4,202.8,353.4,203.5z"/>
		</g>
		<g class="st3">
			<path d="M331.5,212.1c0,1.1-0.6,1.8-1.6,1.8c-0.5,0-0.9-0.2-1.1-0.6v1.8h-0.5v-4.6h0.5v0.5c0.3-0.4,0.7-0.6,1.2-0.6
				C330.9,210.4,331.5,211.1,331.5,212.1z M330.9,212.1c0-0.8-0.4-1.3-1.1-1.3c-0.7,0-1.1,0.5-1.1,1.3s0.4,1.3,1.1,1.3
				C330.5,213.4,330.9,212.9,330.9,212.1z"/>
			<path d="M332.1,209.3h0.6v0.6h-0.6V209.3z M332.1,210.5h0.5v3.4h-0.5V210.5z"/>
			<path d="M336.6,212.1c0,1.1-0.6,1.8-1.6,1.8c-0.5,0-0.9-0.2-1.1-0.6v1.8h-0.5v-4.6h0.5v0.5c0.3-0.4,0.7-0.6,1.2-0.6
				C336,210.4,336.6,211.1,336.6,212.1z M336,212.1c0-0.8-0.4-1.3-1.1-1.3c-0.7,0-1.1,0.5-1.1,1.3s0.4,1.3,1.1,1.3
				C335.6,213.4,336,212.9,336,212.1z"/>
			<path d="M340.1,212.3h-2.5c0.1,0.8,0.4,1.1,1,1.1c0.5,0,0.8-0.2,0.9-0.6h0.5c-0.2,0.6-0.6,1.1-1.4,1.1c-0.9,0-1.6-0.7-1.6-1.8
				c0-1.1,0.6-1.8,1.5-1.8c1,0,1.5,0.8,1.5,1.8V212.3z M337.6,211.8h2c-0.1-0.6-0.4-1-1-1C338.1,210.8,337.7,211.2,337.6,211.8z"/>
			<path d="M340.8,209.2h0.5v4.6h-0.5V209.2z"/>
			<path d="M342,209.3h0.6v0.6H342V209.3z M342,210.5h0.5v3.4H342V210.5z"/>
			<path d="M346.1,211.5v2.3h-0.5v-2.2c0-0.5-0.3-0.7-0.8-0.7c-0.4,0-0.9,0.3-0.9,1.1v1.9h-0.5v-3.4h0.5v0.5
				c0.2-0.3,0.6-0.6,1.1-0.6C345.6,210.4,346.1,210.8,346.1,211.5z"/>
			<path d="M349.8,212.3h-2.5c0.1,0.8,0.4,1.1,1,1.1c0.5,0,0.8-0.2,0.9-0.6h0.5c-0.2,0.6-0.6,1.1-1.4,1.1c-0.9,0-1.6-0.7-1.6-1.8
				c0-1.1,0.6-1.8,1.5-1.8c1,0,1.5,0.8,1.5,1.8V212.3z M347.2,211.8h2c-0.1-0.6-0.4-1-1-1C347.7,210.8,347.3,211.2,347.2,211.8z"/>
		</g>
	</g>
	<g>
		<rect x="25.5" y="298.4" class="st15" width="15.3" height="10.9"/>
		<g id="package_1_00000041257392215515262170000005141970613896476834_">
			<polygon class="st16" points="38.3,293.6 28.4,293.6 25.5,298.6 25.5,309.2 41.1,309.2 41.1,298.6 			"/>
			<line class="st16" x1="27.7" y1="306.4" x2="30.5" y2="306.4"/>
			<line class="st16" x1="33.3" y1="293.6" x2="33.3" y2="301.4"/>
			<line class="st16" x1="25.5" y1="298.6" x2="41.1" y2="298.6"/>
		</g>
	</g>
	<g>
		<g>
			<path class="st17" d="M39.4,106.9"/>
			<path class="st17" d="M34.3,103.7"/>
			<path class="st17" d="M28.5,104.3"/>
			<path class="st17" d="M39.4,106.9"/>
			<path class="st17" d="M34.3,103.7"/>
		</g>
	</g>
	<g>
		<g>
			<polygon class="st15" points="34.3,100.2 43.5,105.2 34.3,110.5 25.1,105.2 			"/>
			<polygon class="st15" points="34.2,104.9 43.4,109.9 34.2,115.2 25,109.9 			"/>
		</g>
		<polygon class="st1" points="34.4,96.6 43.6,101.6 34.4,106.9 25.2,101.6 		"/>
		<polyline class="st17" points="27.5,104.5 25.2,105.9 34.4,111.2 43.6,105.9 41.3,104.5 		"/>
		<polyline class="st17" points="27.5,108.9 25.2,110.3 34.4,115.6 43.6,110.3 41.3,108.9 		"/>
	</g>
	<path class="st18" d="M400.8,122.7"/>
	<line class="st19" x1="57.2" y1="92.6" x2="316.6" y2="92.6"/>
	<polyline class="st13" points="338.1,167.1 338.1,138.2 324.5,138.2 	"/>
	<rect x="9.7" y="177.2" class="st14" width="35.5" height="66.4"/>
	<g class="st3">
		<path d="M11.1,180.3h0.6c0,0.9,0.6,1.1,1.4,1.1c0.7,0,1.2-0.3,1.2-0.9c0-0.4-0.3-0.7-1.1-0.8l-0.4-0.1c-0.8-0.2-1.4-0.5-1.4-1.3
			c0-0.7,0.6-1.2,1.6-1.2c1.4,0,1.8,0.7,1.8,1.5h-0.6c0-0.6-0.3-1-1.2-1c-0.7,0-1,0.3-1,0.7c0,0.4,0.2,0.7,1.1,0.9l0.4,0.1
			c1.1,0.2,1.4,0.7,1.4,1.3c0,0.8-0.6,1.4-1.7,1.4C11.9,181.9,11.1,181.4,11.1,180.3z"/>
		<path d="M15.2,180.1c0-1.1,0.7-1.8,1.6-1.8s1.6,0.7,1.6,1.8c0,1.1-0.7,1.8-1.6,1.8S15.2,181.2,15.2,180.1z M17.9,180.1
			c0-0.8-0.4-1.3-1.1-1.3s-1.1,0.5-1.1,1.3s0.4,1.3,1.1,1.3S17.9,180.9,17.9,180.1z"/>
		<path d="M19.7,178.1v0.4h0.7v0.5h-0.7v2.9h-0.5v-2.9h-0.6v-0.5h0.6v-0.3c0-0.6,0.3-0.9,0.9-0.9c0.1,0,0.3,0,0.3,0v0.4h-0.3
			C19.9,177.6,19.7,177.8,19.7,178.1z"/>
		<path d="M21.8,178.9v2.2c0,0.2,0.1,0.3,0.4,0.3h0.3v0.4c-0.1,0-0.3,0-0.4,0c-0.5,0-0.8-0.2-0.8-0.7v-2.2h-0.6v-0.5h0.6v-0.9h0.5
			v0.9h0.7v0.5H21.8z"/>
		<path d="M27.7,178.5l-1.1,3.4H26l-0.5-1.6c-0.1-0.4-0.2-0.8-0.3-1.1c-0.1,0.4-0.2,0.8-0.3,1.1l-0.5,1.6h-0.5l-1.1-3.4h0.6l0.5,1.5
			c0.1,0.4,0.2,0.8,0.4,1.2c0.1-0.4,0.2-0.8,0.4-1.2l0.5-1.5h0.5l0.5,1.5c0.1,0.4,0.2,0.8,0.4,1.2c0.1-0.4,0.2-0.8,0.4-1.2l0.5-1.5
			H27.7z"/>
		<path d="M30.9,181.4v0.4c-0.1,0-0.2,0-0.3,0c-0.4,0-0.5-0.2-0.6-0.5c-0.2,0.4-0.6,0.5-1.1,0.5c-0.7,0-1.2-0.4-1.2-1
			c0-0.5,0.3-0.9,1.2-1l0.5-0.1c0.3,0,0.5-0.2,0.5-0.5c0-0.4-0.2-0.5-0.8-0.5c-0.6,0-0.8,0.2-0.8,0.7h-0.5c0-0.7,0.4-1.1,1.4-1.1
			c0.9,0,1.3,0.4,1.3,1v1.9c0,0.1,0.1,0.2,0.2,0.2H30.9z M30,180.5v-0.4c-0.1,0.1-0.2,0.1-0.4,0.1l-0.5,0.1
			c-0.6,0.1-0.8,0.3-0.8,0.6c0,0.3,0.2,0.6,0.7,0.6C29.5,181.4,30,181.1,30,180.5z"/>
		<path d="M33.1,178.4v0.5H33c-0.7,0-1.1,0.3-1.1,1v1.9h-0.5v-3.4h0.5v0.6c0.2-0.4,0.5-0.6,1.1-0.6C33,178.4,33,178.4,33.1,178.4z"
			/>
		<path d="M36.3,180.3h-2.5c0.1,0.8,0.4,1.1,1,1.1c0.5,0,0.8-0.2,0.9-0.6h0.5c-0.2,0.6-0.6,1.1-1.4,1.1c-0.9,0-1.6-0.7-1.6-1.8
			c0-1.1,0.6-1.8,1.5-1.8c1,0,1.5,0.8,1.5,1.8V180.3z M33.8,179.8h2c-0.1-0.6-0.4-1-1-1C34.2,178.8,33.9,179.2,33.8,179.8z"/>
		<path d="M38.9,178.9v2.2c0,0.2,0.1,0.3,0.4,0.3h0.3v0.4c-0.1,0-0.3,0-0.4,0c-0.5,0-0.8-0.2-0.8-0.7v-2.2h-0.6v-0.5h0.6v-0.9h0.5
			v0.9h0.7v0.5H38.9z"/>
		<path d="M39.9,180.1c0-1.1,0.7-1.8,1.6-1.8s1.6,0.7,1.6,1.8c0,1.1-0.7,1.8-1.6,1.8S39.9,181.2,39.9,180.1z M42.7,180.1
			c0-0.8-0.4-1.3-1.1-1.3s-1.1,0.5-1.1,1.3s0.4,1.3,1.1,1.3S42.7,180.9,42.7,180.1z"/>
	</g>
	<g class="st3">
		<path d="M16.1,185.2v4.6h-0.5v-0.5c-0.3,0.4-0.6,0.6-1.2,0.6c-0.9,0-1.6-0.7-1.6-1.8c0-1.1,0.6-1.8,1.6-1.8c0.5,0,0.9,0.2,1.1,0.6
			v-1.8H16.1z M15.6,188.1c0-0.8-0.4-1.3-1.1-1.3s-1.1,0.5-1.1,1.3s0.4,1.3,1.1,1.3S15.6,188.9,15.6,188.1z"/>
		<path d="M16.7,188.1c0-1.1,0.7-1.8,1.6-1.8s1.6,0.7,1.6,1.8c0,1.1-0.7,1.8-1.6,1.8S16.7,189.2,16.7,188.1z M19.4,188.1
			c0-0.8-0.4-1.3-1.1-1.3s-1.1,0.5-1.1,1.3s0.4,1.3,1.1,1.3S19.4,188.9,19.4,188.1z"/>
		<path d="M25,186.5l-1.1,3.4h-0.5l-0.5-1.6c-0.1-0.4-0.2-0.8-0.3-1.1c-0.1,0.4-0.2,0.8-0.3,1.1l-0.5,1.6h-0.5l-1.1-3.4h0.6l0.5,1.5
			c0.1,0.4,0.2,0.8,0.4,1.2c0.1-0.4,0.2-0.8,0.4-1.2l0.5-1.5h0.5l0.5,1.5c0.1,0.4,0.2,0.8,0.4,1.2c0.1-0.4,0.2-0.8,0.4-1.2l0.5-1.5
			H25z"/>
		<path d="M28.1,187.5v2.3h-0.5v-2.2c0-0.5-0.3-0.7-0.8-0.7c-0.4,0-0.9,0.3-0.9,1.1v1.9h-0.5v-3.4h0.5v0.5c0.2-0.3,0.6-0.6,1.1-0.6
			C27.7,186.4,28.1,186.8,28.1,187.5z"/>
		<path d="M28.9,185.2h0.5v4.6h-0.5V185.2z"/>
		<path d="M30.1,188.1c0-1.1,0.7-1.8,1.6-1.8s1.6,0.7,1.6,1.8c0,1.1-0.7,1.8-1.6,1.8S30.1,189.2,30.1,188.1z M32.8,188.1
			c0-0.8-0.4-1.3-1.1-1.3s-1.1,0.5-1.1,1.3s0.4,1.3,1.1,1.3S32.8,188.9,32.8,188.1z"/>
		<path d="M36.8,189.4v0.4c-0.1,0-0.2,0-0.3,0c-0.4,0-0.5-0.2-0.6-0.5c-0.2,0.4-0.6,0.5-1.1,0.5c-0.7,0-1.2-0.4-1.2-1
			c0-0.5,0.3-0.9,1.2-1l0.5-0.1c0.3,0,0.5-0.2,0.5-0.5c0-0.4-0.2-0.5-0.8-0.5c-0.6,0-0.8,0.2-0.8,0.7h-0.5c0-0.7,0.4-1.1,1.4-1.1
			c0.9,0,1.3,0.4,1.3,1v1.9c0,0.1,0.1,0.2,0.2,0.2H36.8z M35.9,188.5v-0.4c-0.1,0.1-0.2,0.1-0.4,0.1l-0.5,0.1
			c-0.6,0.1-0.8,0.3-0.8,0.6c0,0.3,0.2,0.6,0.7,0.6C35.4,189.4,35.9,189.1,35.9,188.5z"/>
		<path d="M40.3,185.2v4.6h-0.5v-0.5c-0.3,0.4-0.6,0.6-1.2,0.6c-0.9,0-1.6-0.7-1.6-1.8c0-1.1,0.6-1.8,1.6-1.8c0.5,0,0.9,0.2,1.1,0.6
			v-1.8H40.3z M39.8,188.1c0-0.8-0.4-1.3-1.1-1.3s-1.1,0.5-1.1,1.3s0.4,1.3,1.1,1.3S39.8,188.9,39.8,188.1z"/>
		<path d="M41.6,189.2v0.7c0,0.6-0.2,0.8-0.6,0.8l-0.1,0v-0.4l0,0c0.2,0,0.2-0.2,0.2-0.4v-0.1h-0.3v-0.7H41.6z"/>
	</g>
	<g class="st3">
		<path d="M17.4,196.7h0.5c0.1,0.5,0.3,0.7,0.9,0.7c0.6,0,0.8-0.2,0.8-0.5c0-0.3-0.2-0.4-0.8-0.5l-0.3-0.1c-0.7-0.1-1-0.5-1-1
			c0-0.6,0.5-0.9,1.2-0.9c0.9,0,1.4,0.4,1.4,1.1h-0.5c0-0.5-0.3-0.7-0.8-0.7c-0.4,0-0.7,0.2-0.7,0.5c0,0.3,0.2,0.4,0.7,0.5l0.3,0.1
			c0.8,0.2,1.2,0.4,1.2,1c0,0.6-0.5,1-1.3,1C18,197.9,17.5,197.5,17.4,196.7z"/>
		<path d="M23.4,194.5v3.4h-0.5v-0.5c-0.2,0.3-0.6,0.6-1.1,0.6c-0.7,0-1.2-0.4-1.2-1.2v-2.3h0.5v2.2c0,0.5,0.3,0.7,0.8,0.7
			c0.4,0,0.9-0.3,0.9-1.1v-1.9H23.4z"/>
		<path d="M27.4,196.1c0,1.1-0.6,1.8-1.6,1.8c-0.5,0-0.9-0.2-1.2-0.6v0.5h-0.5v-4.6h0.5v1.8c0.3-0.4,0.6-0.6,1.1-0.6
			C26.8,194.4,27.4,195.1,27.4,196.1z M26.9,196.1c0-0.8-0.4-1.3-1.1-1.3s-1.1,0.5-1.1,1.3s0.4,1.3,1.1,1.3S26.9,196.9,26.9,196.1z"
			/>
		<path d="M27.7,196.7h0.5c0.1,0.5,0.3,0.7,0.9,0.7c0.6,0,0.8-0.2,0.8-0.5c0-0.3-0.2-0.4-0.8-0.5l-0.3-0.1c-0.7-0.1-1-0.5-1-1
			c0-0.6,0.5-0.9,1.2-0.9c0.9,0,1.4,0.4,1.4,1.1h-0.5c0-0.5-0.3-0.7-0.8-0.7c-0.4,0-0.7,0.2-0.7,0.5c0,0.3,0.2,0.4,0.7,0.5l0.3,0.1
			c0.8,0.2,1.2,0.4,1.2,1c0,0.6-0.5,1-1.3,1C28.3,197.9,27.8,197.5,27.7,196.7z"/>
		<path d="M33.9,196.3h-2.5c0.1,0.8,0.4,1.1,1,1.1c0.5,0,0.8-0.2,0.9-0.6h0.5c-0.2,0.6-0.6,1.1-1.4,1.1c-0.9,0-1.6-0.7-1.6-1.8
			c0-1.1,0.6-1.8,1.5-1.8c1,0,1.5,0.8,1.5,1.8V196.3z M31.4,195.8h2c-0.1-0.6-0.4-1-1-1C31.9,194.8,31.5,195.2,31.4,195.8z"/>
		<path d="M35.1,194.9v2.2c0,0.2,0.1,0.3,0.4,0.3h0.3v0.4c-0.1,0-0.3,0-0.4,0c-0.5,0-0.8-0.2-0.8-0.7v-2.2h-0.6v-0.5h0.6v-0.9h0.5
			v0.9h0.7v0.5H35.1z"/>
		<path d="M36.9,197.2v0.7c0,0.6-0.2,0.8-0.6,0.8l-0.1,0v-0.4l0,0c0.2,0,0.2-0.2,0.2-0.4v-0.1h-0.3v-0.7H36.9z"/>
	</g>
	<g class="st3">
		<path d="M22.5,203.5v2.3H22v-2.2c0-0.5-0.3-0.7-0.7-0.7c-0.4,0-0.9,0.3-0.9,1.1v1.8h-0.5v-2.2c0-0.5-0.3-0.7-0.7-0.7
			c-0.4,0-0.9,0.3-0.9,1.1v1.8h-0.5v-3.4h0.5v0.5c0.2-0.3,0.5-0.6,1-0.6c0.5,0,0.9,0.3,1,0.6c0.2-0.4,0.6-0.6,1-0.6
			C22.2,202.4,22.5,202.9,22.5,203.5z"/>
		<path d="M26.2,204.3h-2.5c0.1,0.8,0.4,1.1,1,1.1c0.5,0,0.8-0.2,0.9-0.6h0.5c-0.2,0.6-0.6,1.1-1.4,1.1c-0.9,0-1.6-0.7-1.6-1.8
			c0-1.1,0.6-1.8,1.5-1.8c1,0,1.5,0.8,1.5,1.8V204.3z M23.7,203.8h2c-0.1-0.6-0.4-1-1-1C24.2,202.8,23.8,203.2,23.7,203.8z"/>
		<path d="M28.6,202.4v0.5h-0.1c-0.7,0-1.1,0.3-1.1,1v1.9h-0.5v-3.4h0.5v0.6c0.2-0.4,0.5-0.6,1.1-0.6
			C28.5,202.4,28.5,202.4,28.6,202.4z"/>
		<path d="M31.9,202.5v3.2c0,0.9-0.5,1.5-1.6,1.5c-0.9,0-1.4-0.4-1.4-1.1h0.5c0.1,0.4,0.4,0.6,0.9,0.6c0.7,0,1-0.3,1-1v-0.3
			c-0.3,0.3-0.6,0.5-1.1,0.5c-0.9,0-1.6-0.7-1.6-1.8c0-1.1,0.6-1.8,1.6-1.8c0.5,0,0.9,0.2,1.2,0.6v-0.5H31.9z M31.4,204.1
			c0-0.8-0.4-1.3-1.1-1.3s-1.1,0.5-1.1,1.3c0,0.8,0.4,1.3,1.1,1.3S31.4,204.9,31.4,204.1z"/>
		<path d="M35.7,204.3h-2.5c0.1,0.8,0.4,1.1,1,1.1c0.5,0,0.8-0.2,0.9-0.6h0.5c-0.2,0.6-0.6,1.1-1.4,1.1c-0.9,0-1.6-0.7-1.6-1.8
			c0-1.1,0.6-1.8,1.5-1.8c1,0,1.5,0.8,1.5,1.8V204.3z M33.1,203.8h2c-0.1-0.6-0.4-1-1-1C33.6,202.8,33.2,203.2,33.1,203.8z"/>
		<path d="M36.6,205.2v0.7c0,0.6-0.2,0.8-0.6,0.8l-0.1,0v-0.4l0,0c0.2,0,0.2-0.2,0.2-0.4v-0.1h-0.3v-0.7H36.6z"/>
	</g>
	<g class="st3">
		<path d="M22.1,210.5v4.6h-0.5v-1.8c-0.3,0.4-0.6,0.6-1.1,0.6c-0.9,0-1.6-0.7-1.6-1.8c0-1.1,0.6-1.8,1.6-1.8c0.5,0,0.9,0.2,1.2,0.6
			v-0.5H22.1z M21.6,212.1c0-0.8-0.4-1.3-1.1-1.3s-1.1,0.5-1.1,1.3s0.4,1.3,1.1,1.3S21.6,212.9,21.6,212.1z"/>
		<path d="M25.6,210.5v3.4h-0.5v-0.5c-0.2,0.3-0.6,0.6-1.1,0.6c-0.7,0-1.2-0.4-1.2-1.2v-2.3h0.5v2.2c0,0.5,0.3,0.7,0.8,0.7
			c0.4,0,0.9-0.3,0.9-1.1v-1.9H25.6z"/>
		<path d="M29.3,212.3h-2.5c0.1,0.8,0.4,1.1,1,1.1c0.5,0,0.8-0.2,0.9-0.6h0.5c-0.2,0.6-0.6,1.1-1.4,1.1c-0.9,0-1.6-0.7-1.6-1.8
			c0-1.1,0.6-1.8,1.5-1.8c1,0,1.5,0.8,1.5,1.8V212.3z M26.8,211.8h2c-0.1-0.6-0.4-1-1-1C27.3,210.8,26.9,211.2,26.8,211.8z"/>
		<path d="M31.7,210.4v0.5h-0.1c-0.7,0-1.1,0.3-1.1,1v1.9h-0.5v-3.4h0.5v0.6c0.2-0.4,0.5-0.6,1.1-0.6
			C31.6,210.4,31.6,210.4,31.7,210.4z"/>
		<path d="M35,210.5l-1.4,3.9c-0.2,0.6-0.6,0.8-1.1,0.8c-0.1,0-0.2,0-0.3,0v-0.4h0.3c0.3,0,0.5-0.1,0.6-0.4c0-0.1,0.1-0.2,0.1-0.3
			l-1.3-3.5h0.6l0.5,1.4c0.2,0.5,0.3,1,0.5,1.5c0.1-0.5,0.3-1,0.5-1.5l0.5-1.4H35z"/>
		<path d="M35.4,213.2v0.7c0,0.6-0.2,0.8-0.6,0.8l-0.1,0v-0.4l0,0c0.2,0,0.2-0.2,0.2-0.4v-0.1h-0.3v-0.7H35.4z"/>
	</g>
	<g class="st3">
		<path d="M14.1,221.4v0.4c-0.1,0-0.2,0-0.3,0c-0.4,0-0.5-0.2-0.6-0.5c-0.2,0.4-0.6,0.5-1.1,0.5c-0.7,0-1.2-0.4-1.2-1
			c0-0.5,0.3-0.9,1.2-1l0.5-0.1c0.3,0,0.5-0.2,0.5-0.5c0-0.4-0.2-0.5-0.8-0.5c-0.6,0-0.8,0.2-0.8,0.7h-0.5c0-0.7,0.4-1.1,1.4-1.1
			c0.9,0,1.3,0.4,1.3,1v1.9c0,0.1,0.1,0.2,0.2,0.2H14.1z M13.2,220.5v-0.4c-0.1,0.1-0.2,0.1-0.4,0.1l-0.5,0.1
			c-0.6,0.1-0.8,0.3-0.8,0.6c0,0.3,0.2,0.6,0.7,0.6C12.7,221.4,13.2,221.1,13.2,220.5z"/>
		<path d="M17.3,219.5v2.3h-0.5v-2.2c0-0.5-0.3-0.7-0.8-0.7c-0.4,0-0.9,0.3-0.9,1.1v1.9h-0.5v-3.4H15v0.5c0.2-0.3,0.6-0.6,1.1-0.6
			C16.8,218.4,17.3,218.8,17.3,219.5z"/>
		<path d="M21,221.4v0.4c-0.1,0-0.2,0-0.3,0c-0.4,0-0.5-0.2-0.6-0.5c-0.2,0.4-0.6,0.5-1.1,0.5c-0.7,0-1.2-0.4-1.2-1
			c0-0.5,0.3-0.9,1.2-1l0.5-0.1c0.3,0,0.5-0.2,0.5-0.5c0-0.4-0.2-0.5-0.8-0.5c-0.6,0-0.8,0.2-0.8,0.7H18c0-0.7,0.4-1.1,1.4-1.1
			c0.9,0,1.3,0.4,1.3,1v1.9c0,0.1,0.1,0.2,0.2,0.2H21z M20.1,220.5v-0.4c-0.1,0.1-0.2,0.1-0.4,0.1l-0.5,0.1
			c-0.6,0.1-0.8,0.3-0.8,0.6c0,0.3,0.2,0.6,0.7,0.6C19.6,221.4,20.1,221.1,20.1,220.5z"/>
		<path d="M21.4,217.2h0.5v4.6h-0.5V217.2z"/>
		<path d="M25.3,218.5l-1.4,3.9c-0.2,0.6-0.6,0.8-1.1,0.8c-0.1,0-0.2,0-0.3,0v-0.4h0.3c0.3,0,0.5-0.1,0.6-0.4c0-0.1,0.1-0.2,0.1-0.3
			l-1.3-3.5h0.6l0.5,1.4c0.2,0.5,0.3,1,0.5,1.5c0.1-0.5,0.3-1,0.5-1.5l0.5-1.4H25.3z"/>
		<path d="M25.5,220.7H26c0.1,0.5,0.3,0.7,0.9,0.7c0.6,0,0.8-0.2,0.8-0.5c0-0.3-0.2-0.4-0.8-0.5l-0.3-0.1c-0.7-0.1-1-0.5-1-1
			c0-0.6,0.5-0.9,1.2-0.9c0.9,0,1.4,0.4,1.4,1.1h-0.5c0-0.5-0.3-0.7-0.8-0.7c-0.4,0-0.7,0.2-0.7,0.5c0,0.3,0.2,0.4,0.7,0.5l0.3,0.1
			c0.8,0.2,1.2,0.4,1.2,1c0,0.6-0.5,1-1.3,1C26,221.9,25.5,221.5,25.5,220.7z"/>
		<path d="M31.7,220.3h-2.5c0.1,0.8,0.4,1.1,1,1.1c0.5,0,0.8-0.2,0.9-0.6h0.5c-0.2,0.6-0.6,1.1-1.4,1.1c-0.9,0-1.6-0.7-1.6-1.8
			c0-1.1,0.6-1.8,1.5-1.8c1,0,1.5,0.8,1.5,1.8V220.3z M29.1,219.8h2c-0.1-0.6-0.4-1-1-1C29.6,218.8,29.2,219.2,29.1,219.8z"/>
		<path d="M36.4,221.4v0.4c-0.1,0-0.2,0-0.3,0c-0.4,0-0.5-0.2-0.6-0.5c-0.2,0.4-0.6,0.5-1.1,0.5c-0.7,0-1.2-0.4-1.2-1
			c0-0.5,0.3-0.9,1.2-1l0.5-0.1c0.3,0,0.5-0.2,0.5-0.5c0-0.4-0.2-0.5-0.8-0.5c-0.6,0-0.8,0.2-0.8,0.7h-0.5c0-0.7,0.4-1.1,1.4-1.1
			c0.9,0,1.3,0.4,1.3,1v1.9c0,0.1,0.1,0.2,0.2,0.2H36.4z M35.6,220.5v-0.4c-0.1,0.1-0.2,0.1-0.4,0.1l-0.5,0.1
			c-0.6,0.1-0.8,0.3-0.8,0.6c0,0.3,0.2,0.6,0.7,0.6C35,221.4,35.6,221.1,35.6,220.5z"/>
		<path d="M39.6,219.5v2.3h-0.5v-2.2c0-0.5-0.3-0.7-0.8-0.7c-0.4,0-0.9,0.3-0.9,1.1v1.9h-0.5v-3.4h0.5v0.5c0.2-0.3,0.6-0.6,1.1-0.6
			C39.2,218.4,39.6,218.8,39.6,219.5z"/>
		<path d="M43.4,217.2v4.6H43v-0.5c-0.3,0.4-0.6,0.6-1.2,0.6c-0.9,0-1.6-0.7-1.6-1.8c0-1.1,0.6-1.8,1.6-1.8c0.5,0,0.9,0.2,1.1,0.6
			v-1.8H43.4z M42.9,220.1c0-0.8-0.4-1.3-1.1-1.3c-0.7,0-1.1,0.5-1.1,1.3s0.4,1.3,1.1,1.3C42.5,221.4,42.9,220.9,42.9,220.1z"/>
	</g>
	<g class="st3">
		<path d="M19.6,226.5l-1.3,3.4h-0.5l-1.3-3.4H17l0.6,1.5c0.2,0.4,0.3,0.9,0.5,1.3c0.1-0.4,0.3-0.9,0.5-1.3l0.6-1.5H19.6z"/>
		<path d="M22.8,229.4v0.4c-0.1,0-0.2,0-0.3,0c-0.4,0-0.5-0.2-0.6-0.5c-0.2,0.4-0.6,0.5-1.1,0.5c-0.7,0-1.2-0.4-1.2-1
			c0-0.5,0.3-0.9,1.2-1l0.5-0.1c0.3,0,0.5-0.2,0.5-0.5c0-0.4-0.2-0.5-0.8-0.5c-0.6,0-0.8,0.2-0.8,0.7h-0.5c0-0.7,0.4-1.1,1.4-1.1
			c0.9,0,1.3,0.4,1.3,1v1.9c0,0.1,0.1,0.2,0.2,0.2H22.8z M21.9,228.5v-0.4c-0.1,0.1-0.2,0.1-0.4,0.1l-0.5,0.1
			c-0.6,0.1-0.8,0.3-0.8,0.6c0,0.3,0.2,0.6,0.7,0.6C21.4,229.4,21.9,229.1,21.9,228.5z"/>
		<path d="M23.2,225.2h0.5v4.6h-0.5V225.2z"/>
		<path d="M24.5,225.3H25v0.6h-0.6V225.3z M24.5,226.5H25v3.4h-0.5V226.5z"/>
		<path d="M28.8,225.2v4.6h-0.5v-0.5c-0.3,0.4-0.6,0.6-1.2,0.6c-0.9,0-1.6-0.7-1.6-1.8c0-1.1,0.6-1.8,1.6-1.8c0.5,0,0.9,0.2,1.1,0.6
			v-1.8H28.8z M28.3,228.1c0-0.8-0.4-1.3-1.1-1.3s-1.1,0.5-1.1,1.3s0.4,1.3,1.1,1.3S28.3,228.9,28.3,228.1z"/>
		<path d="M32.6,229.4v0.4c-0.1,0-0.2,0-0.3,0c-0.4,0-0.5-0.2-0.6-0.5c-0.2,0.4-0.6,0.5-1.1,0.5c-0.7,0-1.2-0.4-1.2-1
			c0-0.5,0.3-0.9,1.2-1l0.5-0.1c0.3,0,0.5-0.2,0.5-0.5c0-0.4-0.2-0.5-0.8-0.5c-0.6,0-0.8,0.2-0.8,0.7h-0.5c0-0.7,0.4-1.1,1.4-1.1
			c0.9,0,1.3,0.4,1.3,1v1.9c0,0.1,0.1,0.2,0.2,0.2H32.6z M31.7,228.5v-0.4c-0.1,0.1-0.2,0.1-0.4,0.1l-0.5,0.1
			c-0.6,0.1-0.8,0.3-0.8,0.6c0,0.3,0.2,0.6,0.7,0.6C31.1,229.4,31.7,229.1,31.7,228.5z"/>
		<path d="M33.7,226.9v2.2c0,0.2,0.1,0.3,0.4,0.3h0.3v0.4c-0.1,0-0.3,0-0.4,0c-0.5,0-0.8-0.2-0.8-0.7v-2.2h-0.6v-0.5h0.6v-0.9h0.5
			v0.9h0.7v0.5H33.7z"/>
		<path d="M37.8,228.3h-2.5c0.1,0.8,0.4,1.1,1,1.1c0.5,0,0.8-0.2,0.9-0.6h0.5c-0.2,0.6-0.6,1.1-1.4,1.1c-0.9,0-1.6-0.7-1.6-1.8
			c0-1.1,0.6-1.8,1.5-1.8c1,0,1.5,0.8,1.5,1.8V228.3z M35.2,227.8h2c-0.1-0.6-0.4-1-1-1C35.7,226.8,35.3,227.2,35.2,227.8z"/>
	</g>
	<g class="st3">
		<path d="M17.2,236.1c0,1.1-0.6,1.8-1.6,1.8c-0.5,0-0.9-0.2-1.1-0.6v1.8H14v-4.6h0.5v0.5c0.3-0.4,0.7-0.6,1.2-0.6
			C16.6,234.4,17.2,235.1,17.2,236.1z M16.6,236.1c0-0.8-0.4-1.3-1.1-1.3c-0.7,0-1.1,0.5-1.1,1.3s0.4,1.3,1.1,1.3
			C16.2,237.4,16.6,236.9,16.6,236.1z"/>
		<path d="M20.7,237.4v0.4c-0.1,0-0.2,0-0.3,0c-0.4,0-0.5-0.2-0.6-0.5c-0.2,0.4-0.6,0.5-1.1,0.5c-0.7,0-1.2-0.4-1.2-1
			c0-0.5,0.3-0.9,1.2-1l0.5-0.1c0.3,0,0.5-0.2,0.5-0.5c0-0.4-0.2-0.5-0.8-0.5c-0.6,0-0.8,0.2-0.8,0.7h-0.5c0-0.7,0.4-1.1,1.4-1.1
			c0.9,0,1.3,0.4,1.3,1v1.9c0,0.1,0.1,0.2,0.2,0.2H20.7z M19.8,236.5v-0.4c-0.1,0.1-0.2,0.1-0.4,0.1l-0.5,0.1
			c-0.6,0.1-0.8,0.3-0.8,0.6c0,0.3,0.2,0.6,0.7,0.6C19.2,237.4,19.8,237.1,19.8,236.5z"/>
		<path d="M20.9,236.1c0-1.1,0.6-1.8,1.6-1.8c0.8,0,1.3,0.5,1.4,1.2h-0.5c-0.1-0.5-0.5-0.7-0.9-0.7c-0.6,0-1,0.4-1,1.3
			c0,0.9,0.4,1.3,1,1.3c0.4,0,0.8-0.2,0.9-0.8h0.5c-0.1,0.8-0.7,1.2-1.4,1.2C21.5,237.9,20.9,237.2,20.9,236.1z"/>
		<path d="M25.6,236l-0.6,0.6v1.2h-0.5v-4.6H25v2.8l1.6-1.5h0.7l-1.3,1.2l1.4,2.1h-0.6L25.6,236z"/>
		<path d="M30.5,237.4v0.4c-0.1,0-0.2,0-0.3,0c-0.4,0-0.5-0.2-0.6-0.5c-0.2,0.4-0.6,0.5-1.1,0.5c-0.7,0-1.2-0.4-1.2-1
			c0-0.5,0.3-0.9,1.2-1l0.5-0.1c0.3,0,0.5-0.2,0.5-0.5c0-0.4-0.2-0.5-0.8-0.5c-0.6,0-0.8,0.2-0.8,0.7h-0.5c0-0.7,0.4-1.1,1.4-1.1
			c0.9,0,1.3,0.4,1.3,1v1.9c0,0.1,0.1,0.2,0.2,0.2H30.5z M29.6,236.5v-0.4c-0.1,0.1-0.2,0.1-0.4,0.1l-0.5,0.1
			c-0.6,0.1-0.8,0.3-0.8,0.6c0,0.3,0.2,0.6,0.7,0.6C29.1,237.4,29.6,237.1,29.6,236.5z"/>
		<path d="M33.9,234.5v3.2c0,0.9-0.5,1.5-1.6,1.5c-0.9,0-1.4-0.4-1.4-1.1h0.5c0.1,0.4,0.4,0.6,0.9,0.6c0.7,0,1-0.3,1-1v-0.3
			c-0.3,0.3-0.6,0.5-1.1,0.5c-0.9,0-1.6-0.7-1.6-1.8c0-1.1,0.6-1.8,1.6-1.8c0.5,0,0.9,0.2,1.2,0.6v-0.5H33.9z M33.4,236.1
			c0-0.8-0.4-1.3-1.1-1.3s-1.1,0.5-1.1,1.3c0,0.8,0.4,1.3,1.1,1.3S33.4,236.9,33.4,236.1z"/>
		<path d="M37.6,236.3h-2.5c0.1,0.8,0.4,1.1,1,1.1c0.5,0,0.8-0.2,0.9-0.6h0.5c-0.2,0.6-0.6,1.1-1.4,1.1c-0.9,0-1.6-0.7-1.6-1.8
			c0-1.1,0.6-1.8,1.5-1.8c1,0,1.5,0.8,1.5,1.8V236.3z M35.1,235.8h2c-0.1-0.6-0.4-1-1-1C35.6,234.8,35.2,235.2,35.1,235.8z"/>
		<path d="M38,236.7h0.5c0.1,0.5,0.3,0.7,0.9,0.7c0.6,0,0.8-0.2,0.8-0.5c0-0.3-0.2-0.4-0.8-0.5l-0.3-0.1c-0.7-0.1-1-0.5-1-1
			c0-0.6,0.5-0.9,1.2-0.9c0.9,0,1.4,0.4,1.4,1.1h-0.5c0-0.5-0.3-0.7-0.8-0.7c-0.4,0-0.7,0.2-0.7,0.5c0,0.3,0.2,0.4,0.7,0.5l0.3,0.1
			c0.8,0.2,1.2,0.4,1.2,1c0,0.6-0.5,1-1.3,1C38.6,237.9,38,237.5,38,236.7z"/>
	</g>
</g>
<g id="Layer_2_00000025420809079312908570000011752648838760016817_">
</g>
</svg>
