<?xml version="1.0" encoding="UTF-8" standalone="no"?>
<!-- Created with Inkscape (http://www.inkscape.org/) -->

<svg
   version="1.1"
   id="svg1"
   width="435.13199"
   height="386.04666"
   viewBox="0 0 435.13199 386.04666"
   sodipodi:docname="MPI-CS-Package.svg"
   inkscape:version="1.3.2 (091e20e, 2023-11-25)"
   xmlns:inkscape="http://www.inkscape.org/namespaces/inkscape"
   xmlns:sodipodi="http://sodipodi.sourceforge.net/DTD/sodipodi-0.dtd"
   xmlns="http://www.w3.org/2000/svg"
   xmlns:svg="http://www.w3.org/2000/svg">
  <defs
     id="defs1">
    <clipPath
       clipPathUnits="userSpaceOnUse"
       id="clipPath4">
      <path
         d="M 33,322.535 H 359.349 V 33 H 33 Z"
         transform="translate(-113.75541,-89.877)"
         id="path4" />
    </clipPath>
    <clipPath
       clipPathUnits="userSpaceOnUse"
       id="clipPath6">
      <path
         d="M 33,322.535 H 359.349 V 33 H 33 Z"
         transform="translate(-105.1093,-79.235699)"
         id="path6" />
    </clipPath>
    <clipPath
       clipPathUnits="userSpaceOnUse"
       id="clipPath8">
      <path
         d="M 33,322.535 H 359.349 V 33 H 33 Z"
         transform="translate(-91.837302,-153.50951)"
         id="path8" />
    </clipPath>
    <clipPath
       clipPathUnits="userSpaceOnUse"
       id="clipPath10">
      <path
         d="M 33,322.535 H 359.349 V 33 H 33 Z"
         transform="translate(-218.41761,-313.11971)"
         id="path10" />
    </clipPath>
    <clipPath
       clipPathUnits="userSpaceOnUse"
       id="clipPath12">
      <path
         d="M 33,322.535 H 359.349 V 33 H 33 Z"
         transform="translate(-234.28881,-224.30001)"
         id="path12" />
    </clipPath>
    <clipPath
       clipPathUnits="userSpaceOnUse"
       id="clipPath23">
      <path
         d="M 33,322.535 H 359.349 V 33 H 33 Z"
         transform="translate(-179.2348,-153.50951)"
         id="path23" />
    </clipPath>
    <clipPath
       clipPathUnits="userSpaceOnUse"
       id="clipPath25">
      <path
         d="M 33,322.535 H 359.349 V 33 H 33 Z"
         transform="translate(-192.5068,-79.235699)"
         id="path25" />
    </clipPath>
    <clipPath
       clipPathUnits="userSpaceOnUse"
       id="clipPath27">
      <path
         d="M 33,322.535 H 359.349 V 33 H 33 Z"
         transform="translate(-255.70711,-153.50951)"
         id="path27" />
    </clipPath>
    <clipPath
       clipPathUnits="userSpaceOnUse"
       id="clipPath29">
      <path
         d="M 33,322.535 H 359.349 V 33 H 33 Z"
         transform="translate(-268.9792,-79.235699)"
         id="path29" />
    </clipPath>
    <clipPath
       clipPathUnits="userSpaceOnUse"
       id="clipPath31">
      <path
         d="M 33,322.535 H 359.349 V 33 H 33 Z"
         transform="translate(-331.34521,-153.50951)"
         id="path31" />
    </clipPath>
    <clipPath
       clipPathUnits="userSpaceOnUse"
       id="clipPath33">
      <path
         d="M 33,322.535 H 359.349 V 33 H 33 Z"
         transform="translate(-344.61721,-79.235699)"
         id="path33" />
    </clipPath>
    <clipPath
       clipPathUnits="userSpaceOnUse"
       id="clipPath35">
      <path
         d="M 33,322.535 H 359.349 V 33 H 33 Z"
         transform="translate(-201.45981,-214.4754)"
         id="path35" />
    </clipPath>
    <clipPath
       clipPathUnits="userSpaceOnUse"
       id="clipPath46">
      <path
         d="M 33,322.535 H 359.349 V 33 H 33 Z"
         transform="translate(-218.80291,-313.20941)"
         id="path46" />
    </clipPath>
    <clipPath
       clipPathUnits="userSpaceOnUse"
       id="clipPath48">
      <path
         d="M 33,322.535 H 359.349 V 33 H 33 Z"
         transform="translate(-314.52371,-165.1437)"
         id="path48" />
    </clipPath>
    <clipPath
       clipPathUnits="userSpaceOnUse"
       id="clipPath50">
      <path
         d="M 33,322.535 H 359.349 V 33 H 33 Z"
         transform="translate(-163.88271,-188.75891)"
         id="path50" />
    </clipPath>
    <clipPath
       clipPathUnits="userSpaceOnUse"
       id="clipPath52">
      <path
         d="M 33,322.535 H 359.349 V 33 H 33 Z"
         transform="translate(-239.03691,-188.75891)"
         id="path52" />
    </clipPath>
  </defs>
  <sodipodi:namedview
     id="namedview1"
     pagecolor="#ffffff"
     bordercolor="#000000"
     borderopacity="0.25"
     inkscape:showpageshadow="2"
     inkscape:pageopacity="0.0"
     inkscape:pagecheckerboard="0"
     inkscape:deskcolor="#d1d1d1"
     inkscape:zoom="2.024673"
     inkscape:cx="217.56599"
     inkscape:cy="192.87065"
     inkscape:window-width="1408"
     inkscape:window-height="1212"
     inkscape:window-x="2240"
     inkscape:window-y="25"
     inkscape:window-maximized="0"
     inkscape:current-layer="g1">
    <inkscape:page
       x="0"
       y="0"
       inkscape:label="1"
       id="page1"
       width="435.13199"
       height="386.04666"
       margin="0 5.5346665 12.434667 20.881067"
       bleed="0" />
  </sodipodi:namedview>
  <g
     id="g1"
     inkscape:groupmode="layer"
     inkscape:label="1">
    <g
       id="group-MC0">
      <path
         id="path2"
         d="M 0,0 V -13.272 H 13.272"
         style="fill:none;stroke:#5cb9eb;stroke-width:1.5;stroke-linecap:butt;stroke-linejoin:round;stroke-miterlimit:9.463;stroke-dasharray:none;stroke-opacity:1"
         transform="matrix(1.3333333,0,0,-1.3333333,89.977867,211.17893)" />
      <path
         id="path3"
         d="m 0,0 c 0,-1.449 -1.175,-2.654 -2.626,-2.654 h -50.46 c -1.449,0 -2.613,1.205 -2.613,2.654 v 71.601 c 0,1.448 1.164,2.673 2.613,2.673 h 39.814 c 0.689,0 1.009,-0.297 1.499,-0.78 L -0.783,62.649 C -0.284,62.157 0,61.703 0,61.002 Z"
         style="fill:#ffffff;fill-opacity:1;fill-rule:nonzero;stroke:#5cb9eb;stroke-width:1.5;stroke-linecap:butt;stroke-linejoin:round;stroke-miterlimit:9.463;stroke-dasharray:none;stroke-opacity:1;paint-order:stroke fill markers"
         transform="matrix(1.3333333,0,0,-1.3333333,107.67387,310.21067)"
         clip-path="url(#clipPath4)" />
      <path
         id="path5"
         d="m 0,0 c 0,-1.449 -1.175,-2.654 -2.626,-2.654 h -50.46 c -1.449,0 -2.613,1.205 -2.613,2.654 v 71.601 c 0,1.448 1.164,2.673 2.613,2.673 h 39.814 c 0.689,0 1.009,-0.297 1.499,-0.78 L -0.783,62.649 C -0.284,62.157 0,61.703 0,61.002 Z"
         style="fill:none;stroke:#5cb9eb;stroke-width:1.5;stroke-linecap:butt;stroke-linejoin:round;stroke-miterlimit:9.463;stroke-dasharray:none;stroke-opacity:1"
         transform="matrix(1.3333333,0,0,-1.3333333,96.145733,324.39907)"
         clip-path="url(#clipPath6)" />
      <path
         id="path7"
         d="M 0,0 V -13.272 H 13.272"
         style="fill:none;stroke:#5cb9eb;stroke-width:1.5;stroke-linecap:butt;stroke-linejoin:round;stroke-miterlimit:9.463;stroke-dasharray:none;stroke-opacity:1"
         transform="matrix(1.3333333,0,0,-1.3333333,78.449733,225.36733)"
         clip-path="url(#clipPath8)" />
      <path
         id="path9"
         d="M 0,0 V -15.871 H 15.871"
         style="fill:none;stroke:#ffffff;stroke-width:1;stroke-linecap:butt;stroke-linejoin:miter;stroke-miterlimit:10;stroke-dasharray:none;stroke-opacity:1"
         transform="matrix(1.3333333,0,0,-1.3333333,247.22347,12.553733)"
         clip-path="url(#clipPath10)" />
      <path
         id="path11"
         d="m 0,0 c 0,-1.732 -1.405,-3.174 -3.14,-3.174 h -60.343 c -1.732,0 -3.124,1.442 -3.124,3.174 v 85.623 c 0,1.732 1.392,3.197 3.124,3.197 h 47.612 c 0.824,0 1.206,-0.355 1.792,-0.932 L -0.936,74.918 C -0.34,74.33 0,73.787 0,72.948 Z"
         style="fill:#5cb9eb;fill-opacity:1;fill-rule:nonzero;stroke:none"
         transform="matrix(1.3333333,0,0,-1.3333333,268.38507,130.98)"
         clip-path="url(#clipPath12)" />
      <text
         id="text12"
         xml:space="preserve"
         transform="matrix(1.3333333,0,0,1.3333333,185.71093,73.6456)"><tspan
           style="font-variant:normal;font-weight:700;font-stretch:normal;font-size:8px;font-family:Courier;writing-mode:lr-tb;fill:#ffffff;fill-opacity:1;fill-rule:nonzero;stroke:none"
           x="0 4.8000002 9.6000004 14.4 19.200001 24 28.799999 33.599998 38.400002 43.200001 48 52.799999"
           y="0"
           sodipodi:role="line"
           id="tspan12">POSEIDON.yml</tspan></text>
      <text
         id="text13"
         xml:space="preserve"
         transform="matrix(1.3333333,0,0,1.3333333,33.134933,262.08293)"><tspan
           style="font-variant:normal;font-weight:700;font-stretch:normal;font-size:8px;font-family:Courier;writing-mode:lr-tb;fill:#100f0d;fill-opacity:1;fill-rule:nonzero;stroke:none"
           x="0 4.8000002 9.6000004 14.4 19.200001 24 28.799999 33.599998"
           y="0"
           sodipodi:role="line"
           id="tspan13">genotype</tspan><tspan
           style="font-variant:normal;font-weight:700;font-stretch:normal;font-size:8px;font-family:Courier;writing-mode:lr-tb;fill:#100f0d;fill-opacity:1;fill-rule:nonzero;stroke:none"
           x="9.6000004 14.4 19.200001 24"
           y="10"
           sodipodi:role="line"
           id="tspan14">data</tspan><tspan
           style="font-variant:normal;font-weight:700;font-stretch:normal;font-size:8px;font-family:Courier;writing-mode:lr-tb;fill:#100f0d;fill-opacity:1;fill-rule:nonzero;stroke:none"
           x="96.391998 101.192 105.992 110.792"
           y="1.992"
           sodipodi:role="line"
           id="tspan15">.bib</tspan><tspan
           style="font-variant:normal;font-weight:700;font-stretch:normal;font-size:8px;font-family:Courier;writing-mode:lr-tb;fill:#100f0d;fill-opacity:1;fill-rule:nonzero;stroke:none"
           x="96.391998 101.192 105.992 110.792"
           y="11.992"
           sodipodi:role="line"
           id="tspan16">file</tspan><tspan
           style="font-variant:normal;font-weight:700;font-stretch:normal;font-size:8px;font-family:Courier;writing-mode:lr-tb;fill:#100f0d;fill-opacity:1;fill-rule:nonzero;stroke:none"
           x="169.07201 173.87199 178.672 183.472 188.272 193.07201"
           y="1.992"
           sodipodi:role="line"
           id="tspan17">.janno</tspan><tspan
           style="font-variant:normal;font-weight:700;font-stretch:normal;font-size:8px;font-family:Courier;writing-mode:lr-tb;fill:#100f0d;fill-opacity:1;fill-rule:nonzero;stroke:none"
           x="173.87199 178.672 183.472 188.272"
           y="11.992"
           sodipodi:role="line"
           id="tspan18">file</tspan></text>
      <text
         id="text18"
         xml:space="preserve"
         transform="matrix(1.3333333,0,0,1.3333333,45.553333,44.570133)"><tspan
           style="font-variant:normal;font-weight:normal;font-stretch:normal;font-size:7px;font-family:'Helvetica Now Display';writing-mode:lr-tb;fill:#100f0d;fill-opacity:1;fill-rule:nonzero;stroke:none"
           x="0 5.2290001 9.0439997 12.824 16.639 18.802 22.414 23.813999 25.143999 29.190701 32.8027 36.449699 39.8027 43.3797 47.495701 51.310699 52.640701 54.040699 57.785702 59.746399 63.736401 66.1437 72.023697 75.531403 77.708397 79.108398 83.098396"
           y="0"
           sodipodi:role="line"
           id="tspan19">General package information</tspan><tspan
           style="font-variant:normal;font-weight:normal;font-stretch:normal;font-size:7px;font-family:'Helvetica Now Display';writing-mode:lr-tb;fill:#100f0d;fill-opacity:1;fill-rule:nonzero;stroke:none"
           x="5.6069999 9.2539997 13.034 17.15 18.48"
           y="9.0019999"
           sodipodi:role="line"
           id="tspan20">and fi</tspan><tspan
           style="font-variant:normal;font-weight:normal;font-stretch:normal;font-size:7px;font-family:'Helvetica Now Display';writing-mode:lr-tb;fill:#100f0d;fill-opacity:1;fill-rule:nonzero;stroke:none"
           x="22.049999 23.450001 27.264999 28.594999 32.640999 36.147301 38.324299 42.104301 45.373299 46.7033 48.810299 52.800301 54.130299 56.307301 60.087299 63.902302 65.2323 69.011597 71.188599 74.968597 78.7836"
           y="9.0019999"
           sodipodi:role="line"
           id="tspan21">le paths to the other</tspan><tspan
           style="font-variant:normal;font-weight:normal;font-stretch:normal;font-size:7px;font-family:'Helvetica Now Display';writing-mode:lr-tb;fill:#100f0d;fill-opacity:1;fill-rule:nonzero;stroke:none"
           x="10.549 14.595 18.207001 21.854 25.207001 28.784 32.900002 36.715 38.044998 41.692001 45.681999 51.562 55.678001 59.667999 63.448002 67.263 70.902298 73.044296"
           y="18.004"
           sodipodi:role="line"
           id="tspan22">package components</tspan></text>
      <path
         id="path22"
         d="M 0,0 V -13.272 H 13.272"
         style="fill:none;stroke:#5cb9eb;stroke-width:1.5;stroke-linecap:butt;stroke-linejoin:round;stroke-miterlimit:9.463;stroke-dasharray:none;stroke-opacity:1"
         transform="matrix(1.3333333,0,0,-1.3333333,194.97973,225.36733)"
         clip-path="url(#clipPath23)" />
      <path
         id="path24"
         d="m 0,0 c 0,-1.449 -1.175,-2.654 -2.626,-2.654 h -50.46 c -1.449,0 -2.613,1.205 -2.613,2.654 v 71.601 c 0,1.448 1.164,2.673 2.613,2.673 h 39.814 c 0.689,0 1.009,-0.297 1.499,-0.78 L -0.783,62.649 C -0.284,62.157 0,61.703 0,61.002 Z"
         style="fill:none;stroke:#5cb9eb;stroke-width:1.5;stroke-linecap:butt;stroke-linejoin:round;stroke-miterlimit:9.463;stroke-dasharray:none;stroke-opacity:1"
         transform="matrix(1.3333333,0,0,-1.3333333,212.67573,324.39907)"
         clip-path="url(#clipPath25)" />
      <path
         id="path26"
         d="M 0,0 V -13.272 H 13.272"
         style="fill:none;stroke:#5cb9eb;stroke-width:1.5;stroke-linecap:butt;stroke-linejoin:round;stroke-miterlimit:9.463;stroke-dasharray:none;stroke-opacity:1"
         transform="matrix(1.3333333,0,0,-1.3333333,296.9428,225.36733)"
         clip-path="url(#clipPath27)" />
      <path
         id="path28"
         d="m 0,0 c 0,-1.449 -1.175,-2.654 -2.626,-2.654 h -50.46 c -1.449,0 -2.613,1.205 -2.613,2.654 v 71.601 c 0,1.448 1.164,2.673 2.613,2.673 h 39.814 c 0.689,0 1.009,-0.297 1.499,-0.78 L -0.783,62.649 C -0.284,62.157 0,61.703 0,61.002 Z"
         style="fill:none;stroke:#5cb9eb;stroke-width:1.5;stroke-linecap:butt;stroke-linejoin:round;stroke-miterlimit:9.463;stroke-dasharray:none;stroke-opacity:1"
         transform="matrix(1.3333333,0,0,-1.3333333,314.63893,324.39907)"
         clip-path="url(#clipPath29)" />
      <path
         id="path30"
         d="M 0,0 V -13.272 H 13.272"
         style="fill:none;stroke:#5cb9eb;stroke-width:1.5;stroke-linecap:butt;stroke-linejoin:round;stroke-miterlimit:9.463;stroke-dasharray:none;stroke-opacity:1"
         transform="matrix(1.3333333,0,0,-1.3333333,397.7936,225.36733)"
         clip-path="url(#clipPath31)" />
      <path
         id="path32"
         d="m 0,0 c 0,-1.449 -1.175,-2.654 -2.626,-2.654 h -50.46 c -1.449,0 -2.613,1.205 -2.613,2.654 v 71.601 c 0,1.448 1.164,2.673 2.613,2.673 h 39.814 c 0.689,0 1.009,-0.297 1.499,-0.78 L -0.783,62.649 C -0.284,62.157 0,61.703 0,61.002 Z"
         style="fill:none;stroke:#5cb9eb;stroke-width:1.5;stroke-linecap:butt;stroke-linejoin:round;stroke-miterlimit:9.463;stroke-dasharray:none;stroke-opacity:1"
         transform="matrix(1.3333333,0,0,-1.3333333,415.4896,324.39907)"
         clip-path="url(#clipPath33)" />
      <path
         id="path34"
         d="M 0,0 V -25.273"
         style="fill:none;stroke:#100f0d;stroke-width:1;stroke-linecap:round;stroke-linejoin:round;stroke-miterlimit:4;stroke-dasharray:none;stroke-opacity:1"
         transform="matrix(1.3333333,0,0,-1.3333333,224.61307,144.07947)"
         clip-path="url(#clipPath35)" />
      <text
         id="text35"
         xml:space="preserve"
         transform="matrix(1.3333333,0,0,1.3333333,287.7136,90.050533)"><tspan
           style="font-variant:normal;font-weight:normal;font-stretch:normal;font-size:7px;font-family:'Helvetica Now Display';writing-mode:lr-tb;fill:#100f0d;fill-opacity:1;fill-rule:nonzero;stroke:none"
           x="0 1.337 2.737 6.5170002 10.633 13.174 14.231 16.191 19.837999 25.718 31.038 34.741001 38.444 45.094002 46.431 47.831001 51.478001 55.257999 59.037998"
           y="0"
           sodipodi:role="line"
           id="tspan35">.ind/.fam &lt;&gt; .janno</tspan><tspan
           style="font-variant:normal;font-weight:normal;font-stretch:normal;font-size:7px;font-family:'Helvetica Now Display';writing-mode:lr-tb;fill:#100f0d;fill-opacity:1;fill-rule:nonzero;stroke:none"
           x="0 1.337 2.737 6.3839998 10.164 13.944 17.934 31.233999 34.937 38.639999 45.290001 46.626999 49.966 53.235001 55.474998"
           y="10.003"
           sodipodi:role="line"
           id="tspan36">.janno &lt;&gt; .ssf </tspan><tspan
           style="font-variant:normal;font-weight:normal;font-stretch:normal;font-size:7px;font-family:'Helvetica Now Display';writing-mode:lr-tb;fill:#100f0d;fill-opacity:1;fill-rule:nonzero;stroke:none"
           x="0 1.337 2.737 6.3839998 10.164 13.944 17.934 31.233999 34.937 38.639999 45.290001 46.626999 50.743 52.143002 56.258999"
           y="20.006001"
           sodipodi:role="line"
           id="tspan37">.janno &lt;&gt; .bib </tspan><tspan
           style="font-variant:normal;font-weight:normal;font-stretch:normal;font-size:7px;font-family:'Courier New';writing-mode:lr-tb;fill:#100f0d;fill-opacity:1;fill-rule:nonzero;stroke:none"
           x="-184.35899 -180.159 -175.959 -171.759 -167.55901 -163.35899"
           y="152.145"
           sodipodi:role="line"
           id="tspan38">PLINK,</tspan><tspan
           style="font-variant:normal;font-weight:normal;font-stretch:normal;font-size:7px;font-family:'Courier New';writing-mode:lr-tb;fill:#100f0d;fill-opacity:1;fill-rule:nonzero;stroke:none"
           x="-192.759 -188.55901 -184.35899 -180.159 -175.959 -171.759 -167.55901 -163.35899 -159.159 -154.959"
           y="160.545"
           sodipodi:role="line"
           id="tspan39">EIGENSTRAT</tspan><tspan
           style="font-variant:normal;font-weight:normal;font-stretch:normal;font-size:7px;font-family:'Courier New';writing-mode:lr-tb;fill:#100f0d;fill-opacity:1;fill-rule:nonzero;stroke:none"
           x="-96.901001 -92.700996 -88.500999 -84.301003 -80.100998 -75.901001 -16.548 -12.348 -8.1479998 -3.948"
           y="154.14"
           sodipodi:role="line"
           id="tspan40">BibTextab-</tspan><tspan
           style="font-variant:normal;font-weight:normal;font-stretch:normal;font-size:7px;font-family:'Courier New';writing-mode:lr-tb;fill:#100f0d;fill-opacity:1;fill-rule:nonzero;stroke:none"
           x="-27.048 -22.848 -18.648001 -14.448 -10.248 -6.0479999 -1.848 2.352 6.552"
           y="162.53999"
           sodipodi:role="line"
           id="tspan41">separated</tspan></text>
      <text
         id="text41"
         xml:space="preserve"
         transform="matrix(1.3333333,0,0,1.3333333,366.06507,264.74587)"><tspan
           style="font-variant:normal;font-weight:700;font-stretch:normal;font-size:8px;font-family:Courier;writing-mode:lr-tb;fill:#100f0d;fill-opacity:1;fill-rule:nonzero;stroke:none"
           x="0 4.8000002 9.6000004 14.4"
           y="0"
           sodipodi:role="line"
           id="tspan42">.ssf</tspan><tspan
           style="font-variant:normal;font-weight:700;font-stretch:normal;font-size:8px;font-family:Courier;writing-mode:lr-tb;fill:#100f0d;fill-opacity:1;fill-rule:nonzero;stroke:none"
           x="0 4.8000002 9.6000004 14.4"
           y="10"
           sodipodi:role="line"
           id="tspan43">file</tspan></text>
      <text
         id="text43"
         xml:space="preserve"
         transform="matrix(1.3333333,0,0,1.3333333,366.74413,295.56093)"><tspan
           style="font-variant:normal;font-weight:normal;font-stretch:normal;font-size:7px;font-family:'Courier New';writing-mode:lr-tb;fill:#100f0d;fill-opacity:1;fill-rule:nonzero;stroke:none"
           x="0 4.1999998 8.3999996 12.6"
           y="0"
           sodipodi:role="line"
           id="tspan44">tab-</tspan><tspan
           style="font-variant:normal;font-weight:normal;font-stretch:normal;font-size:7px;font-family:'Courier New';writing-mode:lr-tb;fill:#100f0d;fill-opacity:1;fill-rule:nonzero;stroke:none"
           x="-10.5 -6.3000002 -2.0999999 2.0999999 6.3000002 10.5 14.7 18.9 23.1"
           y="8.3999996"
           sodipodi:role="line"
           id="tspan45">separated</tspan></text>
      <path
         id="path45"
         d="M 0,0 V -15.871 H 15.871"
         style="fill:none;stroke:#ffffff;stroke-width:1.5;stroke-linecap:butt;stroke-linejoin:round;stroke-miterlimit:9.463;stroke-dasharray:none;stroke-opacity:1"
         transform="matrix(1.3333333,0,0,-1.3333333,247.7372,12.434133)"
         clip-path="url(#clipPath46)" />
      <path
         id="path47"
         d="M 0,0 V 23.615 H -233.111 V 10"
         style="fill:none;stroke:#100f0d;stroke-width:1;stroke-linecap:round;stroke-linejoin:round;stroke-miterlimit:4;stroke-dasharray:none;stroke-opacity:1"
         transform="matrix(1.3333333,0,0,-1.3333333,375.36493,209.85507)"
         clip-path="url(#clipPath48)" />
      <path
         id="path49"
         d="M 0,0 V -23.615"
         style="fill:none;stroke:#100f0d;stroke-width:1;stroke-linecap:round;stroke-linejoin:round;stroke-miterlimit:4;stroke-dasharray:none;stroke-opacity:1"
         transform="matrix(1.3333333,0,0,-1.3333333,174.51027,178.36813)"
         clip-path="url(#clipPath50)" />
      <path
         id="path51"
         d="M 0,0 V -23.615"
         style="fill:none;stroke:#100f0d;stroke-width:1;stroke-linecap:round;stroke-linejoin:round;stroke-miterlimit:4;stroke-dasharray:none;stroke-opacity:1"
         transform="matrix(1.3333333,0,0,-1.3333333,274.71587,178.36813)"
         clip-path="url(#clipPath52)" />
      <text
         id="text52"
         xml:space="preserve"
         transform="matrix(1.3333333,0,0,1.3333333,37.177067,349.0668)"><tspan
           style="font-variant:normal;font-weight:normal;font-stretch:normal;font-size:7px;font-family:'Helvetica Now Display';writing-mode:lr-tb;fill:#100f0d;fill-opacity:1;fill-rule:nonzero;stroke:none"
           x="0 4.3260002 9.198 13.615 15.988 21.399 22.799 26.068001 29.882999"
           y="0"
           sodipodi:role="line"
           id="tspan52">SNP-wise </tspan><tspan
           style="font-variant:normal;font-weight:normal;font-stretch:normal;font-size:7px;font-family:'Helvetica Now Display';writing-mode:lr-tb;fill:#100f0d;fill-opacity:1;fill-rule:nonzero;stroke:none"
           x="-6.888 -2.7720001 1.043 4.823 8.6029997 10.78 14.098 18.214001 22.028999 23.358999 27.475 30.982 33.124001"
           y="9.0019999"
           sodipodi:role="line"
           id="tspan53">genotype data</tspan><tspan
           style="font-variant:normal;font-weight:normal;font-stretch:normal;font-size:7px;font-family:'Helvetica Now Display';writing-mode:lr-tb;fill:#100f0d;fill-opacity:1;fill-rule:nonzero;stroke:none"
           x="187.901 192.03799 195.81799 199.633 200.963 205.0097 208.6217 212.26871 215.6217 219.1987 223.3147 227.1297 228.4597"
           y="-229.37601"
           sodipodi:role="line"
           id="tspan54">The package fi</tspan><tspan
           style="font-variant:normal;font-weight:normal;font-stretch:normal;font-size:7px;font-family:'Helvetica Now Display';writing-mode:lr-tb;fill:#100f0d;fill-opacity:1;fill-rule:nonzero;stroke:none"
           x="232.02969 233.4297 237.2097 240.4787 241.8087 245.4557 247.6537 251.4687"
           y="-229.37601"
           sodipodi:role="line"
           id="tspan55">les are </tspan><tspan
           style="font-variant:normal;font-weight:normal;font-stretch:normal;font-size:7px;font-family:'Helvetica Now Display';writing-mode:lr-tb;fill:#100f0d;fill-opacity:1;fill-rule:nonzero;stroke:none"
           x="187.901 189.30099 192.94031 195.0473 198.8623 201.061 204.70799 208.698 212.478 216.258 220.073 223.58 225.687 229.502 233.618 234.948 240.35899 241.759 243.936 247.716"
           y="-220.37399"
           sodipodi:role="line"
           id="tspan56">interconnected with </tspan><tspan
           style="font-variant:normal;font-weight:normal;font-stretch:normal;font-size:7px;font-family:'Helvetica Now Display';writing-mode:lr-tb;fill:#100f0d;fill-opacity:1;fill-rule:nonzero;stroke:none"
           x="187.901 189.86099 193.851 196.04829 199.8633 201.26331 205.3793 209.1593 210.4893 213.77229 217.41229 220.7653 222.09531 224.2933 228.10831 229.5083 233.01601 235.19299 236.593 240.58299 244.36301 247.632 251.412 252.812 256.858 260.12701"
           y="-211.37199"
           sodipodi:role="line"
           id="tspan57">foreign key relationships:</tspan><tspan
           style="font-variant:normal;font-weight:normal;font-stretch:normal;font-size:7px;font-family:'Helvetica Now Display';writing-mode:lr-tb;fill:#100f0d;fill-opacity:1;fill-rule:nonzero;stroke:none"
           x="83.362999 89.599998 93.415001 94.815002 96.214996 97.544998 100.814 104.93 108.745 112.392 113.792"
           y="0.0070000002"
           sodipodi:role="line"
           id="tspan58">Well specifi</tspan><tspan
           style="font-variant:normal;font-weight:normal;font-stretch:normal;font-size:7px;font-family:'Helvetica Now Display';writing-mode:lr-tb;fill:#100f0d;fill-opacity:1;fill-rule:nonzero;stroke:none"
           x="117.362 121.177 125.293"
           y="0.0070000002"
           sodipodi:role="line"
           id="tspan59">ed </tspan><tspan
           style="font-variant:normal;font-weight:normal;font-stretch:normal;font-size:7px;font-family:'Helvetica Now Display';writing-mode:lr-tb;fill:#100f0d;fill-opacity:1;fill-rule:nonzero;stroke:none"
           x="74.452003 75.851997 77.251999 79.359001 83.174004 85.336998 88.844002 91.021004 94.801003 96.999001 100.814 102.144 104.342 107.947 109.907 113.722 115.92 119.735 123.515 127.162 130.9413"
           y="9.0089998"
           sodipodi:role="line"
           id="tspan60">literature references</tspan><tspan
           style="font-variant:normal;font-weight:normal;font-stretch:normal;font-size:7px;font-family:'Helvetica Now Display';writing-mode:lr-tb;fill:#100f0d;fill-opacity:1;fill-rule:nonzero;stroke:none"
           x="150.64 155.547 159.537 163.177 165.284 168.819 172.2567 174.4337 175.7637 177.1637 180.90871 182.8687 186.8587 189.2674 195.1474 198.6537 200.8307 202.2307 206.2207 210.0007"
           y="0.0070000002"
           sodipodi:role="line"
           id="tspan61">Context information </tspan><tspan
           style="font-variant:normal;font-weight:normal;font-stretch:normal;font-size:7px;font-family:'Helvetica Now Display';writing-mode:lr-tb;fill:#100f0d;fill-opacity:1;fill-rule:nonzero;stroke:none"
           x="156.254 158.214 162.20399 164.68201 166.01199 169.7934 173.40469 177.0517 180.8317 182.1617 185.535 189.18201 195.062 199.17799 200.578"
           y="9.0089998"
           sodipodi:role="line"
           id="tspan62">for each sample</tspan><tspan
           style="font-variant:normal;font-weight:normal;font-stretch:normal;font-size:7px;font-family:'Helvetica Now Display';writing-mode:lr-tb;fill:#100f0d;fill-opacity:1;fill-rule:nonzero;stroke:none"
           x="231.056 232.386 238.259 241.864 244.006 247.653 248.983 250.383 254.12801 256.08801 260.078 262.48529 268.3653 271.87299 274.04999 275.45001 279.44 283.22"
           y="0.0070000002"
           sodipodi:role="line"
           id="tspan63"> Meta information </tspan><tspan
           style="font-variant:normal;font-weight:normal;font-stretch:normal;font-size:7px;font-family:'Helvetica Now Display';writing-mode:lr-tb;fill:#100f0d;fill-opacity:1;fill-rule:nonzero;stroke:none"
           x="242.802 246.414 250.53 254.41499 258.19501 260.37201 261.702 263.879 267.659 271.474"
           y="9.0089998"
           sodipodi:role="line"
           id="tspan64">about the </tspan><tspan
           style="font-variant:normal;font-weight:normal;font-stretch:normal;font-size:7px;font-family:'Helvetica Now Display';writing-mode:lr-tb;fill:#100f0d;fill-opacity:1;fill-rule:nonzero;stroke:none"
           x="232.008 235.27699 239.092 243.20799 246.98801 250.80299 254.58299 258.23001 259.63 263.41 267.526 268.85599 272.97198 276.479 278.6203"
           y="18.011"
           sodipodi:role="line"
           id="tspan65">sequencing data</tspan></text>
    </g>
    <g
       id="group-MC1" />
    <path
       id="path65"
       d="m 0,0 h -27 m 365.349,0 h 27 M 0,-289.535 h -27 m 365.349,0 h 27 M 6,6 v 27 m 0,-328.535 v -27 M 332.349,6 v 27 m 0,-328.535 v -27"
       style="fill:none;stroke:#ffffff;stroke-width:1.25;stroke-linecap:butt;stroke-linejoin:miter;stroke-miterlimit:10;stroke-dasharray:none;stroke-opacity:1"
       transform="matrix(1.3333333,0,0,-1.3333333,-8,1.3333333e-4)" />
    <path
       id="path66"
       d="m 0,0 h -27 m 365.349,0 h 27 M 0,-289.535 h -27 m 365.349,0 h 27 M 6,6 v 27 m 0,-328.535 v -27 M 332.349,6 v 27 m 0,-328.535 v -27"
       style="fill:none;stroke:#000000;stroke-width:0.25;stroke-linecap:butt;stroke-linejoin:miter;stroke-miterlimit:10;stroke-dasharray:none;stroke-opacity:1"
       transform="matrix(1.3333333,0,0,-1.3333333,-8,1.3333333e-4)" />
  </g>
</svg>
